<?xml version="1.0" standalone="no"?>
<!DOCTYPE svg PUBLIC "-//W3C//DTD SVG 1.1//EN" "http://www.w3.org/Graphics/SVG/1.1/DTD/svg11.dtd" >
<svg xmlns="http://www.w3.org/2000/svg">
<metadata>
This is a custom SVG webfont generated by Font Squirrel.
Copyright   : Copyright c 2010 by Kimberly Geswein All rights reserved
Designer    : Kimberly Geswein
Foundry     : Kimberly Geswein
</metadata>
<defs>
<font id="ElephantHiccupsRegular" horiz-adv-x="512" >
<font-face units-per-em="1000" ascent="800" descent="-200" />
<missing-glyph horiz-adv-x="500" />
<glyph unicode=" "  horiz-adv-x="500" />
<glyph unicode="&#x09;" horiz-adv-x="500" />
<glyph unicode="&#xa0;" horiz-adv-x="500" />
<glyph unicode="!" horiz-adv-x="268" d="M23 146q0 29 1 52.5t8.5 40.5t24.5 26t49 9q40 0 67.5 -11.5t44.5 -33t24.5 -52t7.5 -67.5q0 -5 -1 -18l-2 -26l-2 -25t-1 -17q-3 -14 -15 -19.5t-27 -7t-29 -0.5t-19 1q-66 0 -98.5 41t-32.5 107zM122 73h58q0 8 0.5 28.5t-2.5 41.5t-13 37t-31 16q-2 0 -6.5 -0.5 t-5.5 -0.5v-122zM73 415q-2 11 -4 34l-6 51q-3 29 -5.5 61t-4.5 60l-3 52q-2 23 -2 34q0 13 2 40l3 60q2 34 4.5 71.5t5.5 70.5l6 60q2 27 4 40q4 12 10.5 25.5t15.5 25.5t20.5 20t26.5 8v-713q0 -15 -13 -20.5t-24 -5.5q-13 0 -20.5 5.5t-15.5 20.5z" />
<glyph unicode="&#x22;" horiz-adv-x="451" d="M254 900q0 38 12.5 52t50.5 14q26 0 43 -10.5t26.5 -28t13.5 -39.5t4 -45q0 -16 -1.5 -41t-7.5 -49t-18.5 -41.5t-34.5 -17.5q-4 0 -12.5 13.5t-17.5 34.5l-20 46q-11 25 -19 47.5t-13.5 40.5t-5.5 24zM35 891q0 22 9 36.5t23 23.5t32.5 12.5t36.5 3.5q30 0 45.5 -10 t21.5 -27t6.5 -40t0.5 -49q0 -14 0.5 -35t-3 -41t-14.5 -34.5t-34 -14.5q-3 0 -12.5 1t-11.5 2q2 33 -5 52.5t-18 31t-24.5 18t-25 15t-19.5 20.5t-8 35z" />
<glyph unicode="#" horiz-adv-x="841" d="M427 146q-4 1 -14.5 2t-22.5 2t-22.5 1.5t-14.5 0.5q-33 0 -52.5 -12.5t-35 -28t-31 -28t-40.5 -12.5q-2 0 -6.5 0.5t-4.5 1.5q-2 2 -5 13.5t-7 23.5l-8 24q-3 11 -5 12q-3 3 -21 6l-39 8q-20 4 -38.5 6.5t-23.5 4.5q-3 2 -12.5 11t-11.5 13q5 18 21.5 25.5t38.5 9.5 t45.5 1.5t43.5 1.5t33 9.5t13 25.5v171q-6 1 -20.5 4.5t-30 9.5t-29 14.5t-17.5 20.5q-2 4 -3.5 10t-2.5 12l-2 14h154l49 183q0 2 7.5 3t11.5 1q6 0 15 -0.5t17.5 -3.5t15 -8.5t6.5 -15.5q0 -3 -4 -13l-8 -24l-8 -22q-4 -11 -5 -14q0 -4 1 -13t2.5 -19.5t2.5 -19.5t1 -13 q72 0 110.5 10.5t57.5 27t26 35t15 35t24.5 27t55.5 10.5q0 -32 -9 -66t-18 -63q9 -2 23 -5.5t28.5 -9t27 -14t18.5 -20.5q-5 -2 -19 -9l-30 -15q-15 -7 -29 -14.5t-19 -10.5q-15 -9 -26 -27t-19 -39.5t-13 -45t-8.5 -43.5t-5 -34.5t-1.5 -17.5h243v-56q-63 0 -114.5 -6 t-91 -27t-67.5 -60.5t-44 -106.5h-48v146zM329 439q-2 0 -5.5 -5.5t-7.5 -13.5t-7 -16t-4 -14q-1 -8 -3 -29l-3 -44l-2 -44t-1 -29h155q13 0 22.5 26t16 59.5t10 65.5t3.5 44h-174z" />
<glyph unicode="$" horiz-adv-x="695" d="M304 244l-280 244q-1 2 -1 4q-1 2 -1 7q0 24 26 38q10 -9 38 -30l59 -45l59 -44l40 -28l9 -6l15 -7l14 -7q7 -3 10 -4q1 8 1 29l1 44q1 23 1 44v29q0 18 0.5 51t-1.5 69t-7.5 69.5t-18.5 54.5q-20 31 -45.5 53.5t-48.5 45t-39 49.5t-16 68q0 51 14.5 88.5t36.5 70.5 t48.5 65.5t49.5 71.5q13 22 14 54.5t1.5 65t6 60.5t27.5 40q7 4 17 7t20 5q11 3 24 4v-232q6 0 22 4l34 8q17 5 32 8t21 1q25 -10 51 -39.5t47.5 -66t35 -74t13.5 -64.5q0 -10 -5.5 -15.5t-13 -7.5t-15.5 -2.5t-14 -0.5q-11 0 -28 0.5t-33 3.5t-27.5 10.5t-11.5 22.5 q0 10 4 19t9.5 18t9.5 17.5t4 19.5q0 15 -6 30.5t-16 28.5t-23.5 21t-28.5 8q-6 0 -14 -0.5t-16 -3t-13.5 -8t-5.5 -15.5v-341q133 -23 201 -109t68 -222q0 -69 -19.5 -119t-56.5 -83.5t-89 -52t-116 -24.5v-220l-37 -24l-37 24v220zM390 322q48 0 85 17t61.5 46t37 68 t12.5 84q0 36 -11 75t-33 71t-54 53t-74 21q-2 0 -11.5 -0.5t-12.5 -0.5v-434zM194 988q0 -16 7 -32t18 -30.5t24 -27t25 -20.5l24 24v250q-23 0 -41 -19.5t-31 -46.5t-19.5 -54.5t-6.5 -43.5z" />
<glyph unicode="%" horiz-adv-x="902" d="M647 171q0 22 11 36t27.5 22.5t35.5 12t36 3.5q60 0 86 -26.5t26 -83.5q0 -31 -5 -56.5t-18 -43.5t-35.5 -27.5t-56.5 -9.5q-33 0 -54 17t-32.5 43t-16 56t-4.5 57zM598 805l-268 -756q-5 -14 -20 -22.5t-29 -8.5v104q0 1 13 39l34 96l47 134l54 150l52 145l44 119 q6 16 11 28t12.5 19.5t19 11.5t30.5 4v-63zM781 172q-19 0 -28.5 -12.5t-13 -30t-3.5 -34.5v-28q13 0 27.5 6.5t26.5 17.5t19.5 25.5t7.5 29.5t-13 20.5t-23 5.5zM36 670q0 28 8 64.5t24.5 69.5t42 55.5t60.5 22.5q37 0 59 -19.5t34 -48.5t15.5 -62.5t3.5 -61.5v-28 q0 -18 -4 -35t-15 -29.5t-32 -12.5h-171q-10 0 -15 11t-7.5 25.5t-2.5 28.5v20zM109 682q0 -17 7.5 -33t30.5 -16q2 0 6.5 0.5t5.5 0.5q6 2 14 5.5t16 7.5t13.5 7.5t5.5 4.5v129q-46 0 -72.5 -30t-26.5 -76z" />
<glyph unicode="&#x26;" horiz-adv-x="768" d="M24 207q0 43 9.5 86.5t28 83.5t46 75t62.5 60l-20 39l-29 59l-29 59q-14 27 -19 38q-3 6 -7.5 17.5t-7.5 23.5l-7 21q-3 9 -3 11q0 55 23 100.5t60 78t84.5 50.5t97.5 18q47 0 88.5 -14t72 -41t48 -66t17.5 -88q0 -53 -15 -101.5t-43.5 -88.5t-70 -70t-93.5 -46 q0 -1 -1 -5.5t-1 -6.5t1 -6.5t1 -5.5q15 -31 39 -62t51.5 -59.5t55.5 -53.5l49 -45q1 4 1.5 18t0.5 19q0 25 -8 47.5t-18 44.5t-18 44t-8 47q0 2 0.5 12t0.5 12q38 7 68.5 12t59 8.5t58 5t64.5 1.5q0 -34 -9.5 -50.5t-24 -23t-31.5 -7.5t-31.5 -5.5t-24 -15.5t-9.5 -38 q0 -55 5 -103t21 -91t45 -81.5t77 -74.5q-7 -15 -15 -20.5t-21 -5.5q-3 0 -7 0.5t-5 0.5q-4 2 -19 13l-31 24l-30 23l-18 14q-1 0 -5.5 0.5t-6.5 0.5q-27 0 -52 -16l-54 -34q-29 -19 -65 -35t-84 -16q-50 0 -102 9t-94.5 32t-70 64t-27.5 104zM119 256q0 -50 10.5 -85 t34 -57.5t60 -32.5t89.5 -10q18 0 48 2.5t58.5 11.5t49.5 26.5t21 47.5q0 2 -1.5 6.5t-1.5 5.5l-25 31l-39 48l-45 55l-45 56l-39 47l-26 31l-14 15q-9 9 -10 9q-38 0 -62.5 -23t-38.5 -55.5t-19 -68t-5 -60.5zM144 756q0 -21 6.5 -56t21 -68t38 -55t58.5 -16 q44 7 80.5 32.5t62 61.5t39.5 78.5t14 84.5t-14 68.5t-37 41.5t-53 20.5t-62 5.5q-43 0 -72.5 -17t-47.5 -45t-26 -63.5t-8 -72.5z" />
<glyph unicode="'" horiz-adv-x="305" d="M146 686q-20 0 -41.5 -3.5t-40 -1.5t-30.5 15.5t-12 47.5q0 22 9.5 40.5t24.5 31.5t34.5 20.5t40.5 7.5q31 0 52.5 -16t35.5 -41t20.5 -54.5t6.5 -57.5q0 -25 -2.5 -61.5t-12.5 -70.5t-30 -58t-55 -24v225z" />
<glyph unicode="(" horiz-adv-x="354" d="M23 415q0 12 4 48.5t11.5 88.5t18.5 114.5t26 126t34 123.5t42 106t49.5 74t56.5 28q6 0 14.5 -0.5t17 -3t14.5 -8t6 -14.5q0 -2 -3 -8l-6 -14q-4 -8 -8.5 -15.5t-7.5 -11.5q-52 -72 -85.5 -141t-53 -141t-27 -149.5t-7.5 -166.5q0 -9 0.5 -31.5t1 -48t1 -47.5t0.5 -31 q14 -33 38 -64.5t49.5 -61.5t48 -59.5t34.5 -58.5q6 -16 2.5 -26.5t-12 -16.5t-19.5 -8t-19 -2q-3 0 -12.5 1.5t-12.5 2.5q-41 41 -76.5 89t-62 101t-42 109.5t-15.5 115.5z" />
<glyph unicode=")" horiz-adv-x="280" d="M24 24l41 106q18 48 31.5 91t23.5 83.5t16 84t9 92t3 108.5q0 69 -13 135t-28.5 130.5t-28.5 129.5t-13 134q30 0 53.5 -23t41.5 -61t31.5 -88t23 -104t15.5 -108.5t9.5 -102t4.5 -83.5t1 -54q0 -62 -17 -128t-42.5 -130t-55.5 -124l-57 -112q-1 0 -5.5 -0.5t-6.5 -0.5 q-13 0 -21 5.5t-16 19.5z" />
<glyph unicode="*" horiz-adv-x="610" d="M256 379q-19 0 -32.5 -11.5t-25 -28.5t-22.5 -36.5t-23.5 -36.5t-28 -28.5t-37.5 -11.5q0 29 9.5 52.5t20.5 45t20.5 43.5t9.5 48q0 2 -0.5 6.5t-0.5 5.5q-7 1 -27 3.5t-41.5 9t-38 18t-16.5 30.5q0 27 20.5 34.5t46 6t48 -7.5t27.5 -6q0 26 -8 48.5t-17.5 44.5t-17.5 45 t-8 50q36 0 55.5 -13.5t33 -33t27 -42t38.5 -41.5l146 122q1 1 9.5 2t12.5 1q16 0 30.5 -4t20.5 -23q-6 -6 -20 -24l-30 -37l-29 -37l-18 -24q0 -1 -0.5 -5.5t-0.5 -6.5t0.5 -6.5t0.5 -6.5q3 0 26.5 -1.5t50 -7t48.5 -18t22 -34.5t-22 -34t-48.5 -17.5t-50 -7t-26.5 -1.5 v-25l171 -171q-21 -17 -36 -21t-38 -4q-30 0 -52.5 14.5t-40.5 36.5t-33.5 47.5t-31 47.5t-33.5 36.5t-40 14.5z" />
<glyph unicode="+" horiz-adv-x="598" d="M48 354l-24 36q9 36 36.5 45t60.5 6t64 -11.5t45 -8.5q0 11 -4 30t-7.5 40t-5.5 42.5t2.5 39t16.5 28.5t36 11q3 0 12.5 -1t11.5 -1q1 -8 4 -29t7 -44.5t8 -44.5t6 -29q1 -4 4 -10t7 -12t7.5 -10t5.5 -4h220v-86h-226q0 -16 1.5 -47.5t1.5 -69t-3.5 -76.5t-13.5 -71 t-28.5 -52.5t-48.5 -20.5v350h-196z" />
<glyph unicode="," horiz-adv-x="244" d="M61 -86q0 2 4 9l9 15q5 9 8.5 16t3.5 9q0 4 -7 18l-16 31l-17 31t-9 18q0 1 -0.5 5t-0.5 7q0 36 16 55t40 28t52.5 10.5t54.5 1.5q0 -10 -2 -35.5t-4.5 -54.5t-5 -55t-4.5 -35q-5 -26 -9 -44.5t-11.5 -31t-19 -18.5t-30.5 -6q-5 0 -14 0.5t-17.5 3t-14.5 8t-6 14.5z" />
<glyph unicode="-" horiz-adv-x="439" d="M37 426q4 7 13.5 15.5t20.5 16t21.5 12.5t17.5 5h276q0 -3 -1 -15t-4 -24.5t-9.5 -23t-17.5 -10.5h-293z" />
<glyph unicode="." horiz-adv-x="244" d="M36 61q0 17 11.5 27t28.5 15t37 6t37.5 0.5t29.5 -1.5t14 -1q0 -19 -5 -38.5t-15.5 -35t-26.5 -25.5t-37 -10q-13 0 -26 4.5t-23.5 12.5t-17.5 20t-7 26z" />
<glyph unicode="/" horiz-adv-x="488" d="M353 780l17 33q8 16 19 28.5t26 20.5t36 8v-65l-390 -805h-72z" />
<glyph unicode="0" horiz-adv-x="695" d="M35 357q0 51 4.5 113t16.5 125.5t33.5 124t56 107t83 75t114.5 28.5q89 0 148 -39t94.5 -101t50 -138.5t14.5 -150.5q0 -59 -8.5 -119t-27.5 -116t-48.5 -105t-71 -85t-96 -57t-122.5 -21q-67 0 -113 37t-74.5 91.5t-41 117t-12.5 113.5zM132 398q0 -25 0.5 -58.5t5 -70 t14 -72t27.5 -63t45.5 -45t68.5 -17.5q47 0 88.5 21.5t75.5 56.5t60.5 80t44.5 92.5t27.5 94t9.5 83.5q0 2 -0.5 6.5t-0.5 5.5q-13 47 -22 90.5t-20 81.5t-26 69.5t-39.5 54t-60.5 35t-89 12.5q-48 0 -82.5 -25t-58 -64.5t-37 -90t-20.5 -101t-9 -97t-2 -79.5z" />
<glyph unicode="1" horiz-adv-x="451" d="M219 146l-4 78l-5 94l-5 97l-5 85q-2 38 -3 62l-2 23l-25 49q-5 -3 -18 -10l-29 -15l-30 -15q-14 -7 -20 -9q-1 0 -5.5 -0.5t-6.5 -0.5q-14 0 -21.5 5t-15.5 21l171 195h49l73 -707q2 -21 17.5 -24t33.5 -2.5t32.5 -4.5t14.5 -30q0 -11 -5.5 -24t-19.5 -13h-293 q0 29 9 44.5t22.5 24t29.5 12t29.5 9t22.5 14.5t9 28v14z" />
<glyph unicode="2" horiz-adv-x="598" d="M36 196q0 50 23.5 77t59 41.5t77 22.5t77 20.5t59 35.5t23.5 68q0 30 -7.5 57.5t-22.5 48.5t-38 33.5t-54 12.5q-26 0 -45.5 -9t-37.5 -20t-37 -20t-44 -9q0 34 10.5 62.5t29 49t45.5 32t60 11.5q49 0 88.5 -18.5t68 -50.5t44 -74.5t15.5 -90.5q0 -61 -27 -100t-70 -63.5 t-95 -40t-103 -28.5v-146l48 -25q91 14 182.5 21.5t183.5 7.5v-53q0 -1 -17 -4.5t-44 -8t-61 -9.5l-70 -10l-68 -9q-33 -5 -57 -8h-10q-8 0 -18 -0.5t-20 -0.5h-15q-39 0 -65 17.5t-41 45t-21 63t-6 71.5z" />
<glyph unicode="3" horiz-adv-x="439" d="M37 122q0 14 13 20t24 6q19 0 37.5 -12t38.5 -26.5t43 -26.5t51 -12q4 0 12.5 0.5t18.5 0.5t18.5 0.5t11.5 0.5q11 12 16.5 23t8 23t2.5 25v27q0 58 -24 96t-63.5 60.5t-89.5 31t-101 8.5q0 12 10.5 28t21.5 20l38 10l59 16q32 8 59.5 14t38.5 8v12l1 18q1 10 1 19v12 q0 27 -2 44t-9.5 27t-23.5 13.5t-43 3.5t-43.5 -9.5t-30.5 -21.5t-31 -21.5t-45 -9.5q0 76 39 119t116 43q47 0 79.5 -16.5t52.5 -45.5t29 -67.5t9 -83.5q0 -2 -0.5 -3.5t-0.5 -3.5q-1 -2 -1 -4q-1 -4 -9 -18l-16 -30q-9 -17 -16 -31.5t-7 -18.5q0 -18 11 -40l26 -48 q15 -26 26.5 -57t11.5 -67v-39q0 -29 -4.5 -60t-15 -55t-31.5 -24h-219q-4 0 -20 14.5t-33 34t-31 40t-14 33.5z" />
<glyph unicode="4" horiz-adv-x="683" d="M317 317q0 16 -22 24.5t-54.5 13.5t-70.5 9.5t-70.5 14t-54.5 26t-22 46.5q0 2 0.5 6.5t0.5 5.5l195 415q15 32 30.5 41.5t41.5 9.5q6 0 14.5 -0.5t16 -3t13 -8t6.5 -15.5l49 -439q3 -25 22.5 -36t47 -14.5t60 -2.5t61.5 -1.5t50 -11.5t27 -31l-24 -37h-256v-305l-37 -24 l-24 24v293zM122 463q23 -9 40.5 -14t34 -7.5t33.5 -3t38 -0.5h10q6 0 14 0.5t15 0.5h10q-3 39 -7 85.5t-9.5 95t-13.5 96.5t-19 89z" />
<glyph unicode="5" horiz-adv-x="646" d="M122 78q4 0 14.5 -0.5t21.5 -1.5l22 -2q11 -1 15 -1t22 -4l38 -8q21 -5 39 -8.5t23 -3.5q18 0 38 11t39 29t36.5 40.5t30.5 45.5t20.5 44t7.5 36q0 29 -9.5 65.5t-27.5 69t-45 54.5t-63 22q-35 0 -66.5 -13.5t-62.5 -29.5t-62.5 -29.5t-67.5 -13.5v303l-17 9 q-11 5 -21 13t-17.5 17.5t-7.5 21.5q0 21 22 29.5t49 10t50.5 -0.5t26.5 -3l366 122q1 0 10.5 1.5t14.5 1.5q15 0 28.5 -3.5t19.5 -23.5q-14 -24 -45 -44.5t-71.5 -38.5t-86.5 -32.5t-90 -25.5t-82.5 -18.5t-63.5 -11.5q-3 -8 -7 -28.5t-8 -43.5l-6 -44q-3 -21 -3 -30 q0 -5 3 -15l6 -22q4 -12 8 -22t7 -14l43 23q20 10 38 16t36.5 9t41.5 3q61 0 105 -27t72.5 -70t42 -95.5t13.5 -103.5q0 -46 -19 -90t-50.5 -78t-73 -55t-86.5 -21q-11 0 -30.5 0.5t-43 1.5t-48 2.5t-44.5 4.5t-32.5 6.5t-12.5 9.5v54z" />
<glyph unicode="6" horiz-adv-x="585" d="M35 274q0 61 12 124.5t36 122.5t59 111t81.5 90.5t103.5 61t125 22.5v-94q-68 0 -126.5 -22.5t-101.5 -64.5t-67 -101.5t-24 -133.5q0 -2 1 -11.5t1 -12.5q15 24 35.5 35t44 14.5t48 2.5t47.5 -1q41 0 83.5 -5.5t77.5 -22.5t57 -48.5t22 -83.5q0 -62 -21.5 -110 t-60.5 -81t-92.5 -50.5t-116.5 -17.5q-54 0 -96 25t-70.5 64.5t-43 88.5t-14.5 98zM133 182q0 -31 14.5 -48.5t36 -26t46 -10.5t44.5 -2q41 0 78 9.5t64.5 30.5t44 54.5t16.5 80.5q0 27 -16 41.5t-39 22t-48 9t-44 1.5q-35 0 -70.5 -8.5t-63.5 -28t-45.5 -50t-17.5 -75.5z " />
<glyph unicode="7" horiz-adv-x="610" d="M329 24q42 58 74.5 124t54 136.5t32.5 143.5t11 145q0 14 -0.5 40.5t-2.5 58t-6.5 64t-12 59t-20 43.5t-29.5 17q-32 0 -62.5 -4t-61 -9.5t-61.5 -9.5t-63 -4q-6 0 -33.5 -1t-59 1.5t-56.5 10.5t-25 27q0 2 1.5 6.5t2.5 5.5q59 3 117 15t116 25.5t115.5 24.5t114.5 11 q3 0 10 -0.5t15 -1t14.5 -1t9.5 -0.5q13 -44 18.5 -91.5t7.5 -95.5t1.5 -95.5t-0.5 -91.5q0 -82 -6 -161.5t-27 -154t-60 -140.5t-105 -121z" />
<glyph unicode="8" horiz-adv-x="439" d="M60 173q0 34 16 63t34.5 57.5t34.5 58t16 63.5q0 2 -0.5 11.5t-1.5 12.5q-9 5 -27 22l-38 36l-36 37q-16 18 -21 27l-1 6q-1 5 -2 13l-1 14v12q0 92 52 146.5t142 54.5q45 0 75 -7t47.5 -24.5t24.5 -47t7 -74.5q0 -34 -12 -62.5t-26.5 -54.5t-26.5 -52.5t-12 -57.5 q0 -30 16 -63l34 -68q19 -36 35 -73t16 -75q0 -77 -47 -113.5t-123 -36.5q-38 0 -70 12.5t-55 35.5t-36.5 55.5t-13.5 71.5zM133 145q0 -23 9 -33.5t23 -14t31.5 -3t35.5 0.5h14q11 0 22 1l22 1q11 0 15 1q3 3 7.5 13.5t7.5 22.5l7 22q3 10 3 15q0 10 -5.5 38t-16.5 58 t-27 53t-37 23q-24 0 -44.5 -24t-35 -56.5t-23 -65.5t-8.5 -52zM128 649q0 -23 5.5 -47.5t17.5 -45t32 -34t49 -13.5q24 0 39 21.5t23 50.5t11 59t3 48q0 34 -11.5 51.5t-52.5 17.5q-65 0 -90.5 -27.5t-25.5 -80.5z" />
<glyph unicode="9" horiz-adv-x="463" d="M244 24l29 84q14 39 24 77t16 76t6 80v10q0 7 -0.5 15t-1 14.5t-0.5 9.5q-18 -9 -32.5 -14.5t-28.5 -7.5t-29 -2.5t-33 -0.5q-28 0 -58 8.5t-55.5 25t-42 41t-16.5 56.5q0 52 17.5 111t50.5 109t81 83t109 33q31 0 54 -14.5t38 -37.5t24.5 -52.5t14.5 -60.5t6.5 -60.5 t1.5 -51.5q0 -27 -4 -78.5t-12 -113t-20 -126.5t-27 -117.5t-34.5 -86.5t-41.5 -34q-13 0 -21 5.5t-15 19.5zM244 756q-48 -20 -78.5 -54t-48 -76t-24 -88.5t-6.5 -91.5q54 0 100.5 11t81 36t54 66t19.5 101q0 16 -4.5 33.5t-14 32t-23.5 24t-32 9.5q-3 0 -12.5 -1.5 t-11.5 -1.5z" />
<glyph unicode=":" horiz-adv-x="207" d="M35 50q0 23 11.5 39t28.5 25.5t38 14t40 4.5q0 -25 -1.5 -49t-9 -43t-23.5 -30.5t-45 -11.5q-23 0 -31 16.5t-8 34.5zM36 500q0 14 6.5 25.5t17 20t23.5 13t26 4.5q52 0 52 -52q0 -13 -4.5 -26t-13 -23.5t-20 -17t-25.5 -6.5q-12 0 -23 5.5t-19.5 14.5t-14 20t-5.5 22z " />
<glyph unicode=";" horiz-adv-x="256" d="M74 -58q0 15 -8 24.5t-17.5 17.5t-17.5 16.5t-8 22.5q0 31 12.5 47.5t32 24t44.5 8.5t51 1q0 -12 -2 -46.5t-4.5 -72.5t-5.5 -72.5t-5 -46.5q-2 -15 -10.5 -36.5t-22 -42t-31 -35t-38.5 -14.5q0 27 4.5 52.5t10.5 50.5t10.5 50t4.5 51zM70 271q0 33 19 59t56 26 q19 0 29.5 -5.5t15.5 -15.5t6 -24t1 -30q0 -21 -2 -35.5t-8.5 -23.5t-19 -13t-33.5 -4q-38 0 -51 14t-13 52z" />
<glyph unicode="&#x3c;" horiz-adv-x="646" d="M36 341q-10 15 -17.5 30t-7.5 33v6q0 2 1 5l488 487h68l-458 -512q19 -17 62 -44l98 -58l112 -66q59 -36 107 -69.5t79 -63.5t31 -52q0 -11 -6 -24t-20 -13q-2 0 -8 3t-14 6.5t-15.5 7.5t-11.5 7l-56 36l-86 56l-102 66l-101 66l-87 56z" />
<glyph unicode="=" horiz-adv-x="463" d="M386 329q0 -3 -1 -15t-4 -24.5t-9.5 -23t-17.5 -10.5h-324q0 3 1 15t4 25t9 23t17 10h325zM61 476q5 7 14.5 15t20 15.5t21 12.5t18.5 5h268q14 0 20.5 -13.5t6.5 -24.5q0 -12 -8 -18.5t-19.5 -10t-25 -4.5t-23.5 -2q-4 0 -24 -1t-46 -2l-50 -1h-40h-28l-34 1 q-17 1 -30.5 2t-15.5 1z" />
<glyph unicode="&#x3e;" horiz-adv-x="659" d="M512 463v25q-15 11 -46 36l-69 56l-81 66l-81 66l-68 56l-45 37q-6 5 -20 19l-30 29l-29 29q-14 14 -19 20q8 15 16 20.5t21 5.5q2 0 6.5 -0.5t5.5 -0.5l57 -42l87 -64l101 -76l101 -76l86 -65l56 -43q5 -4 16 -14l22 -22l22 -22q10 -11 13 -15q1 -1 1.5 -5.5t0.5 -6.5 t-0.5 -6.5t-1.5 -6.5q-6 -7 -23 -25l-37 -36l-37 -37l-25 -24l-71 -61l-87 -73l-91 -75l-82 -66l-59 -48q-24 -18 -25 -18h-49v49z" />
<glyph unicode="?" horiz-adv-x="610" d="M218 122q0 27 3 54t13 48t28 34.5t47 13.5q65 0 98.5 -24t33.5 -88q0 -22 -4 -50t-15 -52.5t-30 -41.5t-48 -17q-26 0 -48.5 10t-40 27t-27.5 39t-10 47zM373 177q-38 0 -51 -25t-13 -61q39 0 51.5 25t12.5 61zM491 905q0 36 -20.5 67t-51.5 54t-68 36.5t-70 13.5 q-57 0 -94.5 -28t-59 -71.5t-28.5 -96t-2 -100.5q-2 -1 -12 -2t-12 -1q-22 0 -32.5 13t-14.5 31t-4 38v34q0 53 18.5 99.5t51.5 81t78 54.5t98 20q52 0 108.5 -18t103 -52t76.5 -81.5t30 -107.5q0 -1 -0.5 -2.5t-0.5 -3.5v-5l-220 -366q4 -21 3.5 -45t-8 -44t-24 -33.5 t-44.5 -13.5v136q0 1 8 16l21 39l28 52l33 59l31 56l26 46q18 32 28 44.5t15.5 20.5t7 19.5t1.5 40.5z" />
<glyph unicode="@" horiz-adv-x="744" d="M36 341q0 54 14.5 109.5t41 107.5t62.5 97t78 77q7 0 24 0.5t36.5 1t36.5 0.5h25q85 0 149 -26.5t107.5 -74.5t65.5 -116t22 -151q0 -82 -24.5 -149.5t-71 -116t-113.5 -75.5t-152 -27q-63 0 -117.5 31t-95.5 80t-64.5 110.5t-23.5 121.5zM109 327q0 -52 24 -98.5 t62.5 -81t87 -55t98.5 -20.5q23 0 47.5 8.5t47 22t41.5 31.5t32 37q-8 14 -15.5 19.5t-20.5 5.5q-14 0 -28 -8t-29 -18t-31.5 -18t-35.5 -8q-77 0 -118 40t-41 112q0 45 27.5 74t67.5 45.5t84.5 23t79.5 6.5q0 17 -9 37.5t-23.5 38.5t-32 30t-33.5 12q-22 0 -33.5 -9.5 t-18.5 -23.5t-10 -30t-8 -30t-13.5 -23.5t-24.5 -9.5q-18 0 -35 8t-17 31q0 31 19.5 63t48.5 58.5t63.5 43.5t64.5 18h-170q-17 0 -35 -20t-34 -51t-30.5 -69.5t-25.5 -75.5t-17 -68t-6 -48zM302 267q0 -26 19 -37.5t45 -11.5q31 0 49.5 13t28.5 33t13 44.5t3 48.5 q-21 0 -48.5 -2.5t-51.5 -12t-41 -27.5t-17 -48zM500 610q24 -37 35 -87.5t18.5 -100t16.5 -92t28 -62.5q22 23 24 46t2 51q0 15 -3 39t-9 51t-15.5 55t-21.5 50.5t-27.5 36.5t-34.5 14q-2 0 -6.5 -0.5t-6.5 -0.5zM476 634q1 6 -3 8.5t-9 2.5t-9.5 -2.5t-2.5 -8.5 q2 -11 11.5 -11t12.5 11z" />
<glyph unicode="A" horiz-adv-x="939" d="M37 24q0 11 -0.5 39t-0.5 59t-0.5 59t-0.5 39q0 51 3 117.5t11 141.5t22.5 154t37 153.5t54.5 140.5t75.5 115.5t99 78.5t126.5 29q4 0 12.5 -0.5t18.5 -1t18.5 -1t11.5 -1.5q106 -94 180.5 -213t121.5 -252.5t68.5 -275.5t21.5 -282q0 -7 1 -27t-1.5 -41.5t-10.5 -38.5 t-26 -17q-15 0 -24 27t-15.5 69.5t-11 94t-9.5 100.5t-11 89t-16 60q-19 -1 -59 -1t-90.5 -0.5t-106.5 -0.5t-106.5 0.5t-90.5 0.5t-59 1q-8 0 -29 3t-44 7l-44 8q-21 4 -29 6q-3 -3 -7 -13l-8 -22q-4 -12 -7 -23t-3 -15q-2 -15 -4 -45l-5 -69l-5 -80q-3 -43 -5 -82l-4 -68 q-1 -31 -1 -46q-1 0 -5.5 -0.5t-6.5 -0.5q-13 0 -21 5.5t-16 19.5zM132 582q0 -18 18 -30.5t46 -20t62 -12t67 -6t60 -2t42 -0.5q44 0 87 5t86.5 11t86.5 11t87 5q0 39 -9 94t-27 114.5t-45 117.5t-63 104.5t-80 75t-97 28.5t-97.5 -26.5t-80 -69t-62.5 -96t-45 -108.5 t-27 -106.5t-9 -88.5z" />
<glyph unicode="B" horiz-adv-x="878" d="M37 1024q0 2 -0.5 6.5t-0.5 7.5q0 24 22.5 45t57 39t76.5 32t81.5 24t71 15.5t46.5 5.5q7 0 27 -1l40 -1q21 0 40 -1t27 -1q48 -14 77 -46.5t45 -74.5t21.5 -88.5t5.5 -87.5q0 -27 -8.5 -49.5t-18 -43.5t-18 -42t-8.5 -45l17 -22q16 -21 41 -57l53 -83q29 -46 53.5 -96 t41 -100t16.5 -93q0 -38 -17.5 -72.5t-46 -64.5t-66 -54t-77 -41t-78.5 -26.5t-71 -9.5q-23 0 -55.5 3t-64 9.5t-56 16t-30.5 21.5l-24 49zM330 146q13 -25 34 -40t46 -22.5t52 -9.5t52 -2q43 0 85 19.5t75 51t53 71.5t20 81q0 60 -9.5 105.5t-30.5 84t-54 74t-79 75.5 q-4 0 -18 0.5t-19 0.5q-70 0 -136.5 -9.5t-137.5 -9.5q0 32 25 49.5t62.5 29.5t81 24t81 32t62.5 53.5t25 89.5q0 36 -3.5 68t-14 60t-30 53t-52.5 47q-6 0 -21 1t-33 1l-33 2h-22q-29 0 -62 -1t-65 -8t-60 -23t-45 -45v-17q0 -12 -0.5 -25.5t-0.5 -26.5v-17 q0 -103 16.5 -208t42 -208.5t55.5 -204.5z" />
<glyph unicode="C" horiz-adv-x="866" d="M35 541q0 67 11.5 136.5t35 134t59 121.5t84 99.5t109.5 67t136 24.5h50q22 0 41.5 -4.5t39.5 -15t46 -31.5q17 -13 41 -34l49 -46q25 -24 47 -49.5t35 -47t14 -37.5t-16 -22q-36 0 -65 17.5t-54.5 43.5t-50.5 57t-53.5 57t-62.5 43.5t-79 17.5q-99 -28 -169 -94.5 t-109.5 -155t-49.5 -190t12.5 -198t76.5 -179t141 -134.5q60 -16 122 -25.5t120.5 -2.5t109 35.5t87.5 90.5q20 -7 23 -19.5t3 -28.5q0 -39 -18 -67t-47.5 -47t-66.5 -30.5t-75.5 -18t-74.5 -8.5t-63 -2q-66 0 -124.5 23.5t-107 64t-87 94.5t-65.5 114t-41 123.5t-14 122.5z " />
<glyph unicode="D" horiz-adv-x="951" d="M61 73q22 82 19.5 181t-14.5 203l-23 207q-11 103 -7 193q0 27 28 48.5t71 37.5t95.5 27.5t101.5 18.5t88 10t56 3q56 2 110 -16t101.5 -50t88 -76t70.5 -95t48 -106t22 -109q0 -77 -18.5 -151.5t-53 -143t-84.5 -127.5t-113 -104q-49 -6 -90.5 -10.5t-81 -7.5t-79 -5 t-82.5 -2q-138 0 -253 74zM159 122q15 -23 36.5 -34t45.5 -15t49 -3t49 1q120 0 214 28t158.5 86.5t98.5 149t34 216.5q1 77 -30.5 149.5t-87 126.5t-129.5 84t-158 21q-49 0 -89 -1t-78 -8.5t-77 -23.5t-85 -45v-25v-24q2 -26 5.5 -79.5t8.5 -121.5l11 -141l10 -142 q5 -67 8.5 -120.5t5.5 -78.5z" />
<glyph unicode="E" horiz-adv-x="768" d="M139 27q5 58 2 130t-12 150.5t-22 161.5l-25 163l-25 156q-12 75 -20 139q4 6 45.5 14.5t102.5 17.5t133.5 17.5t139.5 15.5t119.5 11.5t74.5 4.5q0 -20 -10.5 -37t-26 -30.5t-34 -23t-34.5 -13.5q-15 -4 -47 -6.5t-72.5 -4.5t-86 -3.5t-86 -3t-73 -4t-46.5 -5.5l23 -292 h512q14 0 20.5 -13t6.5 -24q7 -13 1 -23t-19 -16.5t-29.5 -8.5t-28.5 0h-436q-3 -15 -1.5 -45t4.5 -68t8 -79l9 -80l9 -70l6 -49q47 -25 97.5 -32t101 -4.5t98 10t88 11.5t70.5 1t46 -21q0 -28 -17 -43.5t-42 -22.5t-53 -8t-50 -1q-6 0 -19.5 0.5t-15.5 0.5q-26 4 -63 5.5 t-78 2.5l-80 1q-41 0 -75.5 1.5t-58.5 5t-31 11.5z" />
<glyph unicode="F" horiz-adv-x="695" d="M23 832q0 21 6 29.5t16.5 11t23.5 2t28 3.5l43 11l62 17l72 21l70 20l59 17q25 8 36 12q14 4 40 17.5t57 27t63 24.5t59 11v-32q0 -1 -13 -8.5t-34 -18.5l-47 -25l-54 -26l-52 -25l-44 -19q-5 -2 -22 -8l-38 -13l-48 -16l-49 -16l-40 -13q-17 -5 -22 -7q-20 -7 -41 -18.5 t-32 -30.5q0 -5 -0.5 -16.5t-0.5 -25t-0.5 -26t-0.5 -17.5q0 -30 1.5 -60.5t6.5 -60t15 -58t27 -53.5q6 0 19.5 -0.5t29.5 -1t29.5 -1t19.5 -0.5q54 0 104 13t99.5 28.5t99 28.5t102.5 13q0 -39 -14 -54.5t-50 -25.5l-45 -11l-68 -18l-81 -20l-81 -20l-69 -18 q-31 -7 -46 -10l-24 -25v-351q-11 0 -19.5 6t-14.5 15t-10 19.5t-5 18.5l-122 756q0 2 -0.5 12t-0.5 15z" />
<glyph unicode="G" horiz-adv-x="1061" d="M35 412q0 75 12 160.5t38 170t66.5 162.5t97 137.5t129.5 95t165 35.5q28 0 68 -6t84 -18t88 -30.5t78.5 -43t56 -55.5t21.5 -69q0 -5 -9.5 -14.5t-14.5 -9.5q-25 39 -70.5 78t-100 68t-112.5 43.5t-107 5.5q-86 -15 -150 -59t-110 -107t-76 -139.5t-47.5 -156.5 t-24.5 -159.5t-7 -148.5q0 -68 29.5 -120t77 -88t106 -54.5t115.5 -18.5q64 0 119 12.5t104 37t93.5 61.5t87.5 86q14 -7 19.5 -15t5.5 -21q0 -2 -0.5 -6.5t-0.5 -5.5q-59 -66 -104.5 -109t-94 -68t-107 -35t-143.5 -10q-89 0 -159.5 33t-120 89.5t-76 132t-26.5 159.5z M758 440q-46 0 -90.5 -8.5t-89.5 -19t-90 -19t-91 -8.5q0 18 6.5 32t23.5 22l39 9l60 13l71 15l71 15l61 13q27 5 40 8q2 0 12 0.5t15 0.5q33 0 63 -25t55 -65.5t44.5 -90t33 -98.5t21 -92t7.5 -69h-56q-2 21 -9.5 56t-20 75.5t-30.5 82.5t-40 76t-49 55.5t-57 21.5z" />
<glyph unicode="H" horiz-adv-x="853" d="M758 41q-5 77 -14.5 156.5t-24 158.5t-35 156.5t-48.5 150.5l-73 -6l-282 -7q-43 0 -71 -25.5t-28 -63.5q0 -54 12.5 -121.5t27.5 -137.5t27.5 -138t12.5 -123q0 -14 -16.5 -22.5t-60.5 4.5l-148 1011v32q78 0 98 -80l6 -31l9 -47l11 -56q5 -30 10 -57l8 -47q3 -21 4 -31 l398 7q0 48 -4 94t-8.5 91.5t-8 92t-3.5 94.5q17 0 32 -6.5t23 -23.5l66 -228q35 -115 64.5 -232.5t49 -237t19.5 -239.5q2 -21 2.5 -50t-4 -48.5t-16.5 -21t-35 31.5z" />
<glyph unicode="I" horiz-adv-x="573" d="M170 24q-1 3 -3 12.5t-2 12.5q0 22 12.5 29t30 11t34.5 9.5t26 23.5v26q0 19 0.5 40.5t0.5 40.5v27q0 28 -1 71t-2.5 93.5t-4 106t-5.5 109t-7 102t-8.5 85t-10 58t-11.5 21.5h-195v49q52 7 97 12.5t87.5 8.5t85.5 4.5t91 1.5h21q13 0 25.5 -0.5t21.5 -1t10 -0.5l24 -25 l-170 -73v-10v-14q0 -12 2 -48l4 -83l6 -101l5 -102l5 -83q2 -35 2 -47v-25v-43q0 -25 -0.5 -53.5t-0.5 -53.5v-44q0 -19 1 -25q0 -5 3 -13t7 -15.5t8 -13.5t6 -6l171 -49v-51h-15h-22l-22 2h-14q-11 1 -34 2.5l-52 3.5l-61 6l-60 4l-52 5z" />
<glyph unicode="J" horiz-adv-x="890" d="M500 -171l99 77q42 35 72 68.5t49.5 68t30.5 76.5t15.5 94.5t4.5 121.5q0 175 -38.5 339.5t-110.5 325.5q-3 11 -9.5 16.5t-15 7.5t-17.5 1.5t-17 -0.5q-71 0 -140 -12t-138.5 -27t-139 -27t-139.5 -12q0 16 7.5 28.5t19 22t25.5 15.5t27 11l54 9l82 13l96 16l96 15 l82 13q36 5 54 7h7q6 0 13.5 0.5t15.5 0.5h12h10q7 0 15 -0.5t15 -0.5h9q55 -89 93 -184.5t61.5 -194.5t33.5 -200.5t10 -204.5q0 -43 -7 -99t-22.5 -115.5t-40.5 -116.5t-60.5 -102.5t-83 -73t-107.5 -27.5q-16 0 -28.5 2.5t-19.5 22.5z" />
<glyph unicode="K" horiz-adv-x="680" d="M24 965q0 15 11 26t27 11q18 0 25.5 -14.5t9.5 -36.5q47 -238 73.5 -476t26.5 -481q-5 0 -13.5 2t-16.5 5.5t-14 9t-7 13.5l-122 927v14zM171 486q12 10 40 38l59 58l59 59q27 28 37 40q20 24 35.5 54.5t33.5 58t41.5 46.5t60.5 19v-32q0 -2 -9 -16.5t-24 -35.5l-33 -48 l-38 -53l-36 -51l-31 -40q-3 -4 -17 -18l-31 -30l-31 -31q-15 -14 -18 -18q-1 -3 -1 -5q-1 -3 -1 -6q0 -39 29 -82.5t73 -88t95 -86.5l94 -78q44 -36 73 -63.5t29 -41.5q0 -16 -11 -27t-27 -11q-2 0 -6.5 0.5t-5.5 0.5q-69 48 -134.5 99.5t-123 110.5t-104 127.5 t-77.5 150.5z" />
<glyph unicode="L" horiz-adv-x="756" d="M37 959q8 0 19 -1t22 -4t19.5 -9.5t12.5 -17.5l12 -80l16 -121l20 -141l20 -142l18 -121l12 -78q8 -53 28.5 -86.5t52 -52.5t73 -26.5t92.5 -7.5q39 0 68.5 2t58.5 7.5t61.5 15.5t77.5 26q14 -8 20.5 -16t6.5 -22q0 -17 -17 -30t-44 -22.5t-60.5 -16t-65.5 -10.5 t-60.5 -5.5t-44.5 -1.5q-12 0 -38.5 0.5t-58.5 3t-66 7t-63 13t-48.5 21t-21.5 30.5l-122 854v32z" />
<glyph unicode="M" horiz-adv-x="1159" d="M36 685q0 33 11.5 53.5t46.5 20.5q34 0 69.5 -15t70 -39.5t67 -54.5t60.5 -60l52 -57l39 -45q28 19 50.5 51.5t43.5 70.5l43 77q21 39 47 71t58 52t75 20q2 0 11.5 -0.5t12.5 -0.5l26 -25l39 -38l46 -46l46 -45l38 -39l25 -26q32 -35 51.5 -91t30.5 -119t14.5 -126.5 t3.5 -114.5q0 -11 0.5 -26t-2.5 -28.5t-11 -23t-26 -9.5q-15 0 -24.5 31.5t-17.5 80.5t-15 108.5t-17.5 116.5t-24.5 104.5t-36 71.5l-33 35l-51 52l-51 51l-35 33q-11 -9 -35 -32l-52 -51l-51 -53l-33 -35q-5 -6 -12 -24l-16 -43l-19 -52q-11 -27 -22 -50t-21.5 -38 t-19.5 -15q-2 0 -6.5 1t-5.5 2l-317 293h-43q0 -78 11 -157.5t23.5 -158.5t23.5 -156t11 -152q0 -15 -12 -25.5t-27 -10.5q-14 0 -25.5 22.5t-19 50t-11.5 50.5t-4 24l-4 44q-4 33 -8 81l-10 103l-11 110l-9 100q-5 46 -7 75q0 2 -0.5 11.5t-0.5 14.5z" />
<glyph unicode="N" horiz-adv-x="963" d="M159 24q-55 91 -86.5 196.5t-47 215.5t-19.5 219.5t-4 210.5q95 0 173.5 -31.5t146 -83t126.5 -117t115 -135.5l112 -136q56 -66 118 -119q31 78 44 163t16 172t0 173.5t-3 168.5q1 0 11 -2t21 -5t20.5 -6t11.5 -4q2 -2 2.5 -9t0.5 -15l-1 -15q-1 -8 -1 -11q0 -10 1 -36 t2 -55l1 -55v-37q0 -20 -3 -70.5t-8.5 -114.5t-15 -133t-22 -126.5t-29 -94.5t-36.5 -37q-2 0 -6.5 0.5t-5.5 2.5q-56 70 -105 138l-99 134q-49 65 -99.5 124.5t-107.5 112t-124 96.5t-148 77q0 -11 -1 -40.5t-2 -62.5t-1.5 -62.5t-0.5 -41.5q-13 -159 20.5 -300t117.5 -280 h-21q-12 0 -25 3t-23.5 9.5t-14.5 18.5z" />
<glyph unicode="O" horiz-adv-x="902" d="M33 389q0 66 13 137.5t38.5 139.5t64 129t89 107t113 73t137.5 27q103 0 175.5 -41.5t117.5 -109.5t65.5 -156.5t20.5 -182.5v-10q0 -6 -0.5 -14t-0.5 -15v-10q-34 -87 -76 -171t-99.5 -149t-134 -105t-179.5 -40q-74 0 -136.5 35t-109 91.5t-72.5 126t-26 138.5z M109 389q0 -55 18 -111.5t52 -102.5t82.5 -75t109.5 -29q28 0 69.5 4.5t82.5 15.5t75.5 30.5t48.5 49.5l146 317v6q1 7 1.5 15t1 17t0.5 14q0 43 -7 90t-22 93t-38.5 87t-56.5 72.5t-75.5 50t-96.5 18.5q-31 0 -54 -9t-41.5 -23t-33.5 -31.5t-31.5 -33.5t-36.5 -29.5 t-46 -19.5l-58 -104q-27 -49 -47 -98.5t-31.5 -101.5t-11.5 -112z" />
<glyph unicode="P" horiz-adv-x="805" d="M36 951q0 3 0.5 12.5t0.5 12.5l84 52q37 22 69 38.5t62 27.5t63 17.5t71.5 9.5t89.5 3h29q21 0 44 -1l44 -1h29q45 -16 74.5 -48.5t46 -73t23 -86t6.5 -87.5q0 -74 -25.5 -127.5t-66.5 -91t-94 -61.5t-108.5 -39t-108.5 -23.5t-94 -16t-66.5 -16t-25.5 -23.5 q0 -44 4 -87.5t9 -87.5t9 -87.5t4 -87.5q0 -11 0.5 -25t-2.5 -26t-11 -20.5t-25 -8.5q-2 0 -6.5 0.5t-5.5 0.5q-2 6 -6 19.5t-8 29.5t-7 29.5t-3 19.5q-1 10 -3 37l-6 66l-8 84l-8 93l-8 94q-4 46 -7 84t-5.5 65.5t-3.5 37.5q-1 7 -4.5 27.5t-9 48t-11 58.5t-11 58.5t-9 48 t-4.5 27.5q0 1 -0.5 10t-0.5 14zM133 845q0 -77 13.5 -156t36.5 -152q67 8 138.5 14.5t139.5 22t128.5 46t106.5 87.5q0 6 0.5 19.5t1 29.5t0.5 30v19q0 18 -2.5 54t-12.5 73t-30 64.5t-55 27.5h-317q-31 0 -58 -18.5t-47 -45.5t-31.5 -58.5t-11.5 -56.5z" />
<glyph unicode="Q" horiz-adv-x="976" d="M685 148q-3 0 -8 -1t-6 -1q-5 -2 -19 -9l-30 -15l-29 -14q-14 -7 -19 -10h-293q-28 0 -57 16.5t-56.5 43.5t-51.5 62t-42 71t-28.5 71t-10.5 62q0 69 15.5 145.5t45.5 152t73.5 144t100 120.5t124.5 83t147 31q57 0 109 -20.5t96.5 -55.5t80.5 -81t61.5 -98.5 t39.5 -107.5t14 -107q0 -58 -14 -112.5t-38 -105.5t-55.5 -99t-65.5 -93v-25l146 -146q0 -3 1 -5q0 -2 0.5 -3.5t0.5 -2.5q0 -3 -1.5 -11.5t-4.5 -16t-8 -11.5t-12 1l-195 146q-3 0 -5 1q-2 0 -3.5 0.5t-2.5 0.5zM132 461q0 -149 85 -233t246 -84q26 0 48 3.5t41 12t36 23 t34 37.5l-195 195v48h25q10 -10 37 -34l59 -52l59 -51q28 -24 40 -33q4 -3 11.5 -7.5t14.5 -7.5l14 -7q7 -3 9 -3q3 0 10.5 3t15 6.5t14 8t8.5 7.5q7 8 17 27l23 42l26 50q14 26 25.5 50.5t19.5 44.5t11 30q0 1 0.5 11t0.5 24l1 28q1 14 1 23q0 74 -21 142.5t-62 121 t-101.5 84t-140.5 31.5q-70 0 -127.5 -22.5t-103.5 -62t-80 -92.5t-56.5 -113t-33.5 -124.5t-11 -126.5z" />
<glyph unicode="R" horiz-adv-x="854" d="M35 767q0 68 37.5 113.5t93.5 73t120 39t118 11.5q35 0 69.5 -4t66 -15t59 -31t48.5 -52q0 -5 0.5 -17t1 -25.5t1 -25.5t0.5 -17q0 -75 -24 -140.5t-64.5 -121.5t-94 -103.5t-113.5 -85.5l463 -244q2 0 3 -8t1 -13t-0.5 -13.5t-3.5 -17t-8.5 -15t-15.5 -6.5q-1 0 -7 3 l-14 6l-15 8q-8 4 -13 7q-3 2 -13.5 9.5l-22.5 15.5l-23 15l-14 9l-47 22l-73 35l-86 41l-86 41l-73 34l-49 22q0 -3 -0.5 -9.5t-0.5 -14.5t-0.5 -15t-0.5 -10q0 -34 3 -61.5t9 -55t16 -57.5l22 -70q-7 -14 -15.5 -19.5t-22.5 -5.5q-19 0 -23 14l-12 36l-195 683 q0 2 -1 15.5t-1 19.5zM132 744q0 -21 1 -51.5t4.5 -65t10 -68.5t19 -61t30.5 -44t44 -17q70 0 131 33.5t106.5 87t71.5 120t26 133.5q0 27 -12.5 52.5t-33.5 45t-48 31t-55 11.5q-36 0 -78 -6.5t-82.5 -21.5t-75 -38t-56.5 -56q-1 -5 -1.5 -17t-1 -25.5t-0.5 -25.5v-17z" />
<glyph unicode="S" horiz-adv-x="756" d="M0 -183q0 3 -0.5 12.5t-0.5 12.5q0 15 2.5 28.5t22.5 19.5q45 -25 77 -40t60 -22.5t57 -10t69 -2.5q67 0 130 14.5t112 46.5t78.5 83.5t29.5 125.5q0 79 -26.5 126.5t-69.5 75.5t-98 40.5t-113 20.5l-113 15q-55 7 -98 25.5t-69.5 52.5t-26.5 94q0 47 13 95.5t36 93.5 t55.5 85t72 69.5t85 46.5t94.5 17t101.5 -27t95 -70t70 -95.5t27.5 -103.5h-63q-16 33 -38 72t-50.5 72t-64 55t-78.5 22q-56 0 -107.5 -24t-90.5 -64.5t-62.5 -92.5t-23.5 -109q0 -56 26.5 -87.5t69.5 -48t98.5 -23.5t113 -15.5t113 -23.5t98.5 -47t69.5 -86t26.5 -141 q0 -94 -33 -162.5t-90 -113t-134 -66t-166 -21.5q-43 0 -74 2.5t-61.5 11t-65.5 23t-86 38.5z" />
<glyph unicode="T" horiz-adv-x="805" d="M36 805q-14 0 -19.5 13t-5.5 23q0 2 0.5 6.5t0.5 6.5q43 16 89.5 22.5t93 10t93 6t90.5 9.5q8 1 32.5 6.5l57.5 13.5l69 16l69 17q32 8 56.5 13.5t32.5 7.5q4 1 15 2l22 2l22 2q10 1 14 1v-32q0 -2 -11 -8.5t-26 -14.5l-32 -14q-17 -8 -28 -12l-30 -9l-47 -13l-56 -16 l-56 -15l-48 -13q-22 -5 -32 -7l-24 -24l10 -182l7.5 -168.5t5.5 -164t2 -168.5v-20q0 -13 -0.5 -29t-0.5 -29v-20q-8 -14 -15.5 -19.5t-20.5 -5.5q-2 0 -6.5 0.5t-6.5 0.5l-73 805h-244z" />
<glyph unicode="U" horiz-adv-x="915" d="M22 639v55q0 39 3 87t9.5 100t19 95t32 70.5t48.5 27.5q13 0 21 -5.5t15 -19.5q-31 -48 -47 -89t-23 -81.5t-7.5 -84t-0.5 -94.5q0 -73 2.5 -131t11 -114.5t23.5 -118.5t41 -141q56 -70 124.5 -96.5t157.5 -26.5q79 0 142.5 34t109.5 89.5t71.5 125.5t28.5 142 q1 19 1.5 59.5t0.5 91.5v106v106q0 50 -0.5 90.5t-1.5 59.5l25 24l24 -24q0 -1 1 -25l4 -61q3 -38 5.5 -85.5t5.5 -96t5 -94t4 -77.5v-26q0 -61 -12 -122.5t-35 -118.5t-58 -107t-81 -86.5t-103 -57.5t-124 -21q-98 0 -168.5 23.5t-120 65.5t-79.5 101t-47 130t-22.5 152.5 t-5.5 168.5z" />
<glyph unicode="V" horiz-adv-x="732" d="M24 707q0 2 -0.5 6.5t-0.5 6.5q0 15 11 26t27 11q13 0 20.5 -5.5t15.5 -19.5l22 -65l34 -99l41 -116l41 -117l34 -99q15 -44 23 -65q1 -3 5 -10l7 -15l8 -14q3 -7 5 -10q61 52 107 115t82.5 132.5t67.5 142.5l60 147q8 14 20.5 22t28.5 8v-79l-196 -415l-195 -195 q-18 12 -29.5 33t-18.5 40l-26 73l-40 112l-45 132l-45 132l-39 112z" />
<glyph unicode="W" horiz-adv-x="1232" d="M135 195l-12 79l-18 121l-20 142l-21 141l-17 121q-7 53 -10 79q0 2 -0.5 12t-0.5 15q0 16 2.5 28t22.5 18l25 -24l122 -707l24 -49q34 22 64.5 65.5t58.5 95.5l56 106q27 54 52.5 98t50 72.5t49.5 28.5l6 -2q2 -1 5 -1l414 -463q2 3 5 9l8 15l7 15q4 7 5 10l20 67l26 84 l26 90l24 82l18 62q7 25 8 29q2 14 5 42.5t6 64.5t6 76l5 76q3 36 4.5 64.5t1.5 42.5h47q0 -16 -2 -48l-3 -73q-2 -41 -5 -86l-6 -86q-3 -41 -6 -73.5t-5 -48.5q-5 -34 -14 -83.5t-21 -105t-26 -111.5l-25 -102q-12 -45 -21.5 -75.5t-14.5 -34.5l-48 -49q-47 39 -82 79 t-68 82l-66 87q-34 45 -77 94q-14 16 -38 41l-47 48q-23 24 -41 40.5t-20 16.5h-25q-1 0 -14 -18l-32 -48l-43 -66l-47 -75l-46 -74l-37 -60q-3 -5 -14 -27l-23 -46l-23 -46l-13 -28q-8 -14 -16 -19.5t-22 -5.5q-10 0 -15 3.5t-8.5 10.5t-6 16t-6.5 20q-3 8 -10 29l-15 44 l-14 44q-7 21 -9 29z" />
<glyph unicode="X" horiz-adv-x="756" d="M341 439q-1 1 -5.5 1.5t-6.5 0.5q-31 0 -54.5 -22t-43.5 -55t-38 -71t-37.5 -71t-42.5 -55t-52 -22q-16 0 -27 11t-11 27q0 3 0.5 7t0.5 5l257 334l-244 569h60l220 -464l24 -24q27 21 57.5 60.5t62.5 86.5l63 96q32 49 63.5 89t61.5 65.5t58 25.5v-57l-293 -415 q-1 -1 -2 -13.5t-1 -19.5q0 -47 20 -89.5t50.5 -82.5t66 -78t66 -76.5t50.5 -79t20 -85.5q0 -14 -5 -21.5t-21 -15.5q-3 2 -10 9l-15 15q-8 7 -15 14.5t-9 10.5l-31 45l-48 68l-56 80l-56 82l-46 69z" />
<glyph unicode="Y" horiz-adv-x="1000" d="M365 -134q0 1 -0.5 5.5t-0.5 6.5q0 16 10.5 27t26.5 11q15 0 28.5 -4t27 -9.5t27 -9.5t28.5 -4q73 0 128.5 26t96.5 70.5t69 102t44.5 121t23.5 128.5t7 123v41l-1 51q-1 26 -1.5 46.5t-0.5 23.5q-3 33 -10 83t-15 96.5t-14.5 80t-9.5 33.5h-25q-13 -78 -46 -149 t-85 -125t-122.5 -86t-159.5 -32q-71 0 -126 22t-96 60t-69 89t-45.5 108.5t-25 119t-7.5 121.5q0 16 2 45t6.5 64t12.5 71t20.5 65.5t29.5 48t41 18.5q13 0 21 -5.5t15 -20.5q-22 -45 -33 -85.5t-15 -81.5t-4 -84v-90q0 -10 0.5 -34t1 -51.5t1 -51.5t1.5 -34q9 -33 27 -64 t41.5 -59t49.5 -52.5t52 -44.5q4 0 18 -0.5t19 -0.5q127 0 213 50.5t136.5 133t68.5 188t9 215.5l24 24q4 -2 13 -11t11 -13q45 -91 74 -175.5t45.5 -170t23 -175.5t6.5 -190q0 -75 -8 -153t-28 -151t-53.5 -137.5t-84 -112t-120 -75.5t-161.5 -28q-20 0 -35.5 2t-30.5 7.5 t-30.5 15.5t-36.5 26z" />
<glyph unicode="Z" horiz-adv-x="720" d="M67 85q0 5 2 19t4 18q15 17 44 55l66 85l77 101l75 102l63 87l41 58q9 14 21 38l26 52l27 57q14 29 24.5 54t17 43t6.5 24v61h-513l-24 37l24 24q73 -4 144 -0.5t140 9.5l140 12q70 5 142 5h22q13 0 23.5 -3.5t17.5 -11t7 -22.5q0 -3 -0.5 -7.5t-0.5 -5.5q-1 -5 -5 -15 l-7 -23l-8 -22q-3 -10 -5 -14l-23 -51l-30 -65l-31 -68l-29 -63l-22 -48q-9 -19 -11 -22t-19 -26l-43 -57l-57 -77l-64 -85l-61 -80l-49 -65q-7 -9 -15.5 -16t-16 -15t-12.5 -17.5t-5 -24.5q0 -4 9.5 -13t15.5 -11q5 -2 24.5 -5.5t43 -7t45.5 -7.5t33 -5q12 -1 37 -3.5 t56 -5t65.5 -5t66 -4.5t56 -4t36.5 -2v-56q-12 0 -36.5 0.5t-56 1t-66 1.5t-65.5 1.5t-56 1t-37 1.5q-9 0 -36 3t-58 7l-59 8q-29 4 -42 6l-39 6q-15 3 -24 8.5t-12.5 16t-3.5 30.5z" />
<glyph unicode="[" horiz-adv-x="354" d="M37 49q0 13 -0.5 45.5t-1 69.5t-0.5 70v46v59q0 38 0.5 75t1 65.5t0.5 32.5q1 19 5 59l8 91l9 106l10 106q5 51 9.5 91t7.5 59q12 13 29 19t35.5 8t36.5 1t33 -1h17q12 0 25.5 -0.5t25.5 -1t17 -0.5q14 -8 20.5 -16t6.5 -22q0 -15 -11 -23t-28.5 -13t-38.5 -7.5t-40 -6.5 t-34 -12t-21 -22q-13 -66 -19 -140.5t-8 -152.5t-0.5 -156t3.5 -152l5 -143q3 -68 3 -124q22 0 37.5 6.5t28.5 8t24 -8t24 -41.5q-3 -15 -18.5 -21t-33.5 -7t-33.5 0.5t-17.5 1.5q-15 0 -33.5 -0.5t-35 3t-29.5 14.5t-19 34z" />
<glyph unicode="\" horiz-adv-x="549" d="M12 739q11 0 22.5 -6.5t21 -15.5t17.5 -18.5t12 -15.5l25 -40l44 -70l53 -85l53 -86l44 -70q18 -30 25 -39l22 -29l33 -44l41 -50l41 -51l35 -43q15 -19 23 -27q0 -1 0.5 -5.5t0.5 -6.5q0 -16 -11 -27t-26 -11t-20.5 5.5t-16.5 19.5l-35 47l-45 59l-48 64l-43 58l-33 44 q-13 18 -15 21l-39 64l-47 80l-49 85l-43 76q-19 35 -30.5 58t-11.5 27v32z" />
<glyph unicode="]" horiz-adv-x="293" d="M122 98q1 0 2 26l4 69q3 42 5 95l5 107q3 54 5 104t3 86v25q0 21 0.5 48t0.5 55v43v34q0 24 -0.5 51.5t-0.5 51.5v34q-2 -4 -8 -8.5t-14 -8.5t-15.5 -6.5t-11.5 -1.5q-14 4 -25.5 15t-19 25t-11.5 29.5t-4 28.5h210q0 -10 -0.5 -34t-1 -51.5t-1 -51.5t-0.5 -34 q-2 -30 -5.5 -93t-8.5 -142l-10 -168l-10 -166l-9 -143l-6 -93q-8 -17 -15.5 -21t-20.5 -4q-2 0 -7 0.5t-6 0.5q-14 2 -34 6l-40 8l-34 7l-14 3v25z" />
<glyph unicode="_" horiz-adv-x="573" d="M512 73v-80q-15 0 -53 1t-81 2t-81 2t-53 2q-5 0 -21.5 -0.5t-39 0.5t-47 4.5t-45.5 11.5t-34.5 21.5t-13.5 35.5h469z" />
<glyph unicode="`" horiz-adv-x="524" d="M34 807l20 -6l52 -16l71 -24l81 -27l78 -27l64 -22q12 -4 26 -10.5t26 -15.5t20 -20.5t8 -26.5h-55q-1 0 -20 7l-49 17l-67 23l-75 27l-72 26l-59 22q-20 8 -40 19t-33 30z" />
<glyph unicode="a" horiz-adv-x="780" d="M105 199q0 55 19 91.5t50 59.5t71.5 34.5t84 16.5t86.5 5h80q0 40 -10.5 88.5t-33 90.5t-58.5 70.5t-87 28.5q-54 0 -86.5 -15t-51.5 -37.5t-30.5 -48.5t-24.5 -48.5t-32.5 -37.5t-54.5 -15q0 73 21.5 125.5t61 86.5t95 49.5t123.5 15.5q48 0 83 -16t61 -42.5t44 -61.5 t32 -73t25.5 -77t24.5 -74q16 -45 42 -85l52 -80q25 -41 43.5 -84t18.5 -93h-58l-74 122q-9 -39 -37 -75t-66 -63t-80.5 -43t-81.5 -16q-46 0 -91 13t-81 38.5t-58 63t-22 86.5zM181 210q0 -40 16 -66.5t42.5 -43t60.5 -23.5t70 -7t65 14.5t49 38.5t31 56t11 67 q0 27 -15.5 45.5t-38.5 30t-49 17t-47 5.5q-28 0 -62 -8.5t-63.5 -25.5t-49.5 -42t-20 -58z" />
<glyph unicode="b" horiz-adv-x="756" d="M64 140l-11 183q-5 82 -8 158t-4.5 151t-1.5 162q0 18 -0.5 54t1 80t6 90.5t14 84.5t25.5 62.5t40 24.5q16 0 27 -10.5t11 -25.5q0 -56 -8 -112.5t-17.5 -113.5t-17.5 -114t-8 -114q0 -33 1.5 -60t4.5 -54t8 -58l12 -71q30 39 57.5 60t57 30.5t62.5 11t73 1.5 q69 0 131 -27.5t108 -74.5t73 -110.5t27 -135.5q0 -62 -23 -123t-64 -109.5t-97 -79t-121 -30.5q-71 0 -125.5 19.5t-97.5 55t-76 85.5t-59 110zM136 228q0 -42 11.5 -78t31.5 -67.5t47 -59.5t58 -53q6 -1 21.5 -1.5t32.5 -0.5l34 -1q16 -1 22 -1q125 0 191.5 66.5 t66.5 200.5q0 56 -20.5 103t-56.5 80.5t-84.5 52t-104.5 18.5q-47 0 -92 -22.5t-80 -59t-56.5 -83t-21.5 -94.5z" />
<glyph unicode="c" horiz-adv-x="561" d="M38 319q0 41 11.5 86.5t33 89.5t51 83.5t65.5 70t77.5 48t86.5 17.5h11q7 0 14 -0.5t12 -0.5l6 -1q9 -5 27 -21l37 -36l36 -38q17 -18 22 -27q0 -2 0.5 -6.5t0.5 -6.5q0 -15 -11 -26t-27 -11q-12 0 -21.5 8.5t-17.5 20.5t-13.5 24.5t-8.5 20.5q-3 0 -11.5 0.5t-18.5 0.5 t-18.5 0.5t-12.5 0.5q-59 0 -103 -26t-73 -68t-44 -94t-15 -104q0 -81 42 -129.5t127 -48.5q33 0 61 9.5t54.5 21t53.5 21t59 9.5q0 -51 -28.5 -82t-70.5 -47t-89.5 -21t-84.5 -5q-44 0 -83.5 27t-70 67t-48.5 87t-18 86z" />
<glyph unicode="d" horiz-adv-x="537" d="M16 136q0 110 60 171.5t176 61.5q19 0 33.5 -1.5t27.5 -6.5t27 -15t32 -27v487q0 1 4 4.5t10 7.5t12 7.5t10 5.5q1 0 5.5 0.5t6.5 0.5q14 0 21.5 -5t15.5 -21q-4 -106 -0.5 -203t9.5 -191l12 -189q5 -95 5 -197q0 -3 -0.5 -10t-0.5 -14.5t-0.5 -14.5t-0.5 -10 q-33 -26 -56.5 -40.5t-45.5 -22.5t-45.5 -10t-54.5 -2q-58 0 -106.5 14t-83 43t-54 73t-19.5 104zM90 124q2 -18 5.5 -40t13.5 -43t28.5 -38t50.5 -24.5t80 -3t116 26.5v195q-20 19 -39.5 33.5t-40 24t-43 14.5t-49.5 5q-32 0 -55 -13t-38 -34t-22 -48t-7 -55z" />
<glyph unicode="e" horiz-adv-x="519" d="M314 696q36 0 66.5 -15t52 -40.5t34 -59.5t12.5 -71t-21.5 -65.5t-55.5 -50.5t-75.5 -37.5t-82.5 -26.5t-76 -17.5t-56 -9.5q0 -4 -0.5 -18t-0.5 -19q0 -35 19 -58t50 -37t70.5 -20.5t79.5 -9.5t77 -4.5t64 -4.5q0 -1 0.5 -5.5t0.5 -6.5q0 -13 -12 -22.5t-30 -16.5 t-40.5 -12t-43 -7.5t-37 -3.5t-23.5 -1q-56 -3 -102.5 20.5t-80 65t-53 96.5t-23 113.5t11 116t49 105t90.5 80.5t136 42zM298 622q-41 0 -76 -21t-60.5 -54.5t-40 -74.5t-14.5 -80q23 0 52.5 2.5t60 8.5t60.5 16t53 26t37 38t14 52q0 40 -23 63.5t-63 23.5z" />
<glyph unicode="f" horiz-adv-x="649" d="M48 408q-1 0 -4 4t-7 10l-8 12l-5 11q0 1 -0.5 5.5t-0.5 6.5q0 11 5 24t20 13l113 -6v390q0 48 22 89t57 70.5t78.5 46t86.5 16.5q33 0 71.5 -11.5t71 -33t54.5 -54t22 -74.5q0 -15 -13 -20.5t-23 -5.5q-23 0 -38 19l-32 44q-17 24 -44 43.5t-74 19.5q-29 0 -56.5 -13 t-49.5 -34t-38 -47.5t-22 -54.5q0 -8 -1 -29l-1 -44v-44v-29q0 -17 -2 -52.5t0.5 -73.5t14 -71.5t38.5 -46.5q12 1 43 1h66h66q32 0 44 -1q23 -2 37.5 -9.5t14.5 -26.5q0 -15 -15.5 -25t-40 -16t-54 -9t-57 -4.5t-49.5 -3t-31 -4.5q0 -2 -0.5 -11.5t-0.5 -12.5 q0 -44 16 -83.5t34.5 -77.5t34.5 -76t16 -80q0 -16 -3.5 -29t-23.5 -20q-24 13 -44.5 41t-38.5 64.5t-32.5 78t-25.5 82t-18.5 76t-10.5 60.5z" />
<glyph unicode="g" d="M127 -273q0 5 20 16.5t50 32.5t65.5 50.5t65.5 70t50 91.5t20 114q0 19 -1 46.5t-5.5 53.5t-13.5 44.5t-25 18.5q-79 -72 -138.5 -94.5t-100.5 -9.5t-63.5 54.5t-28.5 98.5t4.5 122.5t36.5 125.5t67 108t96 70q57 0 97 -34t67.5 -88.5t43.5 -121.5t24.5 -133t11 -124 t2.5 -93q3 -38 -9 -83.5t-33.5 -92.5t-51 -92t-61.5 -83t-63.5 -65.5t-57.5 -39t-44.5 -4t-24.5 40.5zM92 384q-14 -59 -5 -93t32 -47t55 -8.5t64 22t59 45.5t40 61q-8 107 -22 170.5t-32 94t-38 32t-40.5 -16t-39.5 -49.5t-34.5 -69.5t-25.5 -75t-13 -66.5z" />
<glyph unicode="h" horiz-adv-x="574" d="M-36 906q0 10 0.5 21t4.5 20t11.5 14.5t21.5 5.5q13 0 20.5 -5.5t15.5 -20.5q16 -81 27 -132t18 -87t12 -65t9.5 -65.5t9.5 -88.5l13 -132q52 70 106 93.5t104 8t93.5 -65.5t73.5 -126.5t43.5 -175t5.5 -211.5q-8 -15 -15 -20t-21 -5q-2 0 -6.5 0.5t-6.5 0.5 q-4 2 -10 5.5t-12 7.5t-10 7t-4 4q0 118 -7.5 200t-20 137t-29.5 86t-35 46.5t-37 19t-36 3.5q-23 0 -44 -0.5t-39 -7.5t-32.5 -22.5t-24.5 -46.5q0 -6 -0.5 -19.5t-1 -29.5t-1 -29.5t-0.5 -19.5q0 -46 9 -89.5t20.5 -86t20.5 -85t9 -87.5q-25 0 -48 17t-33 39l-124 730 q-9 20 -17.5 51t-16 66.5t-12 72t-4.5 67.5z" />
<glyph unicode="i" horiz-adv-x="244" d="M146 97q-3 51 -12 104l-16 105q-9 53 -15.5 106t-6.5 104v22q0 13 3 23.5t11 17.5t24 7q2 0 6.5 -0.5t5.5 -0.5q3 -15 8 -47l14 -74l14 -86l16 -86l12 -74l9 -47v-13q0 -12 -0.5 -27t-3.5 -28.5t-10.5 -22.5t-20.5 -9q-26 0 -38 26zM23 768q0 18 9.5 26.5t23 11t28 2 t25.5 -0.5q6 0 19 1t27.5 -0.5t26 -7.5t13.5 -20q-23 -44 -47 -60.5t-63 -16.5q-62 0 -62 65z" />
<glyph unicode="j" horiz-adv-x="378" d="M24 49q37 6 79.5 20t79 37.5t61 57t24.5 80.5v390l24 25q19 -12 31 -33t18 -41q0 -9 1 -33.5l2 -51.5l1 -52v-33q0 -94 -11.5 -171t-45.5 -132.5t-97.5 -86t-166.5 -30.5v54zM145 805q0 19 5.5 29t15.5 15t23.5 6t29.5 1h24q13 0 24 -3.5t19 -11.5t8 -24q0 -18 -8 -30 t-20.5 -19.5t-27.5 -10.5t-29 -3q-30 0 -47 9t-17 42z" />
<glyph unicode="k" horiz-adv-x="537" d="M178 -99q0 -1 -4 -4.5t-10 -7.5t-12 -7l-11 -6q-1 0 -5.5 -0.5t-6.5 -0.5t-6.5 0.5t-5.5 0.5q-22 133 -40.5 274.5t-31.5 285t-20 286t-7 279.5q0 18 8.5 32.5t29.5 14.5q2 0 6.5 -0.5t5.5 -0.5q18 -52 30.5 -114t21 -128t13 -134t6.5 -132t2 -121v-103h24l147 122h69 l-177 -206l303 -330v-49h-49l-280 244v-195z" />
<glyph unicode="l" horiz-adv-x="171" d="M37 1098q4 11 12.5 17t19.5 9t22 4t19 1v-1105l-24 -24l-25 24l-1 26q-1 27 -2.5 72.5t-3 105.5t-3.5 128l-4 140l-4 141q-2 69 -3.5 131t-2.5 110v110v110z" />
<glyph unicode="m" horiz-adv-x="854" d="M33 510q0 2 -0.5 6.5t-0.5 6.5q0 15 11 26t27 11q12 0 21.5 -8.5t17.5 -20.5t13.5 -24.5t8.5 -20.5q15 27 29 49.5t31 39t39.5 26t53.5 9.5q29 0 53 -12t45 -26l40 -26q19 -12 38 -12q22 0 45 16l49 34q25 19 52.5 35t59.5 16q44 0 72.5 -31.5t45 -76t23 -93t6.5 -82.5 v-12q-2 -22 -6 -55l-8 -64l-7 -54l-3 -22l-24 -25l-25 25q0 12 -2 36l-3 56q-2 32 -5 66l-6 66q-2 31 -4.5 56t-3.5 37q-1 8 -5 24.5t-11.5 33t-18.5 28.5t-26 12q-24 0 -48.5 -14t-43.5 -35.5t-31 -47t-12 -48.5q0 -36 4 -71.5t8.5 -71t8.5 -71t4 -71.5q0 -9 -1 -14.5 t-6 -9t-15 -6t-27 -4.5q-18 23 -28 64.5t-19 90.5t-19.5 100t-29 92t-48.5 67.5t-78 26.5q-24 0 -38.5 -24t-21.5 -56.5t-9 -66t-2 -52.5q0 -40 8.5 -78t18.5 -75.5t18.5 -75t8.5 -77.5q-20 0 -32.5 3.5t-20.5 11t-13.5 19.5t-11.5 30l-17 48l-26 73l-31 86l-30 86l-25 73 q-12 32 -17 48z" />
<glyph unicode="n" horiz-adv-x="622" d="M42 410q0 10 1 21t5 20t12 14.5t22 5.5q2 0 6 -0.5t4 -1.5l49 -171l28 84q15 44 37.5 80.5t55.5 60t82 23.5q55 0 94 -14.5t65 -40t42 -60t24 -74.5t10.5 -83t2.5 -86v-31q0 -23 -0.5 -48.5t-1 -47.5t-0.5 -31q1 -34 -13 -42.5t-34 -8.5q-17 0 -30.5 3.5t-20.5 23.5 q9 36 14 64t8 54.5t3.5 54t0.5 61.5q0 38 -3.5 75.5t-17.5 67t-41 47.5t-74 18q-20 0 -43.5 -6t-43.5 -18.5t-33.5 -31.5t-13.5 -45v-415q0 -14 -13 -19.5t-23 -5.5q-2 0 -6.5 0.5t-6.5 0.5q-34 51 -61 113t-46 128t-29.5 132.5t-10.5 128.5z" />
<glyph unicode="o" d="M21 120q0 60 12.5 120t42 108t76.5 78t116 30q50 0 87 -19.5t61 -52t36 -74t12 -86.5q0 -54 -12.5 -112.5t-40 -108t-71.5 -81.5t-108 -32q-56 0 -95.5 16.5t-65.5 46.5t-38 72.5t-12 94.5zM95 149q0 -24 7 -55.5t22 -59.5t38.5 -47.5t55.5 -19.5q48 0 81 26.5t53.5 65.5 t29.5 84t9 81q0 30 -6 58.5t-20 51t-37 36.5t-57 14q-50 0 -83.5 -20t-54 -53t-29.5 -75.5t-9 -86.5z" />
<glyph unicode="p" horiz-adv-x="488" d="M32 475q0 43 23 73.5t57 50t74 28.5t73 9q46 0 81.5 -24t59.5 -61.5t36.5 -83.5t12.5 -89q0 -57 -18.5 -100.5t-51 -75t-77.5 -51.5t-98 -29q0 -3 -0.5 -12.5t-0.5 -12.5q0 -44 11.5 -86.5t26 -84.5t26 -84.5t11.5 -86.5q0 -19 -9 -34.5t-31 -15.5q-2 0 -6 0.5t-4 1.5 l-195 756q0 1 -0.5 5.5t-0.5 6.5zM129 451q0 -39 3.5 -80.5t16 -75.5t37.5 -56t69 -22q36 0 59 14.5t36.5 39t18.5 55.5t5 64q0 24 -11 54.5t-29 56.5t-41.5 44t-49.5 18q-55 0 -84.5 -28t-29.5 -84z" />
<glyph unicode="q" horiz-adv-x="537" d="M377 27q-1 0 -5.5 1t-6.5 1q-22 0 -46 -16t-50 -35.5t-54.5 -35.5t-60.5 -16q-33 0 -60 12t-45.5 33t-29 49t-10.5 59q0 52 11 112.5t37 112t68.5 85.5t105.5 34q58 0 101 -36t73.5 -96.5t49.5 -139.5t30 -164t15.5 -170.5t5.5 -159t0 -129.5t-1 -83q-23 0 -37 7 t-22.5 20t-12.5 30t-7 37q-3 18 -7 57l-9 86l-10 101q-6 53 -10 101l-8 86q-4 39 -5 57zM83 99q0 -40 20 -69t67 -29q36 0 69 25.5t58.5 62t41 76.5t15.5 69q0 66 -27.5 89t-83.5 23q-45 0 -75.5 -24t-49.5 -60.5t-27 -80t-8 -82.5z" />
<glyph unicode="r" horiz-adv-x="610" d="M36 599q0 9 1.5 19.5t6 20t11 16t17.5 6.5q12 0 23 -6.5t15 -20.5q2 -9 6 -33l8 -52q4 -27 7 -51.5t4 -34.5q23 39 49 67.5t57.5 46.5t69.5 26.5t86 8.5q52 -14 88.5 -36t59 -46t33 -47.5t11.5 -41t-7 -26t-21 -2.5q-38 23 -63 47l-46 43q-22 19 -44 29t-54 6 q-48 0 -77.5 -22.5t-45 -57t-21 -75t-5.5 -76.5q0 -40 5 -79t11 -77.5t11 -77.5t5 -79q-28 -19 -46.5 -9t-30 36t-17 60.5t-8.5 64.5q-4 14 -11 47l-18 75l-20 90l-20 92l-17 80l-12 55q0 2 -0.5 6.5t-0.5 7.5z" />
<glyph unicode="s" horiz-adv-x="500" d="M34 215q24 0 42 -8.5t33 -21t28 -27.5t27 -27.5t31.5 -21t41.5 -8.5q25 0 52 6t49.5 18.5t37.5 33t15 50.5q0 9 -1 27.5t-4 37t-8.5 33t-13.5 16.5l-219 48l-25 25q0 2 -0.5 12t-0.5 22l-1 25q-1 13 -1 20q0 40 7.5 86.5t27 86t54 66t87.5 26.5q27 0 57.5 -24.5 t56.5 -59.5t43 -73t17 -65h-54l-14 30q-10 24 -26.5 49.5t-37.5 46t-44 20.5q-32 0 -55 -20.5t-38 -49.5t-22.5 -61t-7.5 -54v-6q0 -2 1 -4l244 -73q20 -6 30.5 -27t15 -47.5t5 -52t0.5 -40.5q0 -104 -61 -152.5t-165 -48.5q-33 0 -69 16t-66 42t-49.5 59.5t-19.5 69.5z" />
<glyph unicode="t" horiz-adv-x="646" d="M277 405q-11 0 -38.5 3t-59 7t-59 8t-38.5 6q-22 5 -36 11t-14 25q0 11 5.5 24.5t19.5 13.5h171q17 0 24.5 12.5t10 32t3 41.5t4.5 41.5t13.5 32t29.5 12.5q11 0 23 -6t14 -20q1 -8 -0.5 -28.5t-3.5 -44t-4.5 -44t-2.5 -28.5q28 0 56 3.5t55 8t54.5 8.5t56.5 4 q10 0 20.5 -1t19.5 -5t14.5 -12t5.5 -22q0 -2 -0.5 -6t-2.5 -4l-244 -73l-9 -523l-24 -24q-12 6 -20.5 18.5t-14.5 27t-9.5 29t-4.5 23.5q-1 8 -2.5 42t-3 81t-3 101t-3 101t-2.5 81.5t-1 42.5z" />
<glyph unicode="u" horiz-adv-x="695" d="M31 205v62q0 37 3.5 77t12 80t25.5 72t44 51.5t68 19.5q0 -42 -9 -80.5t-19.5 -77t-19.5 -79t-9 -86.5v-29q0 -21 0.5 -44.5t1 -44.5t1.5 -29q5 -32 29 -53t56 -21q66 0 112.5 36.5t79 91t53.5 118t36.5 118t28.5 91t30 36.5q14 0 22 -6t16 -20q-4 -59 -1.5 -105.5t9 -86 t14.5 -74.5l16 -70q7 -36 12.5 -74.5t5.5 -85.5q-26 0 -46.5 17.5t-37 42t-28 51t-17.5 43.5h-25q-29 -57 -57 -95t-63.5 -60.5t-80.5 -31.5t-108 -9q-42 0 -71 27.5t-48 67.5t-27.5 83.5t-8.5 76.5z" />
<glyph unicode="v" horiz-adv-x="500" d="M34 621q11 0 23.5 -5t24 -12.5t20 -18t11.5 -20.5l70 -394l25 -25q16 12 36.5 51.5t42.5 91.5l46 110l44 105q21 48 37.5 79.5t27.5 31.5q16 0 27 -11t11 -27q0 -2 -0.5 -6.5t-0.5 -5.5l-222 -541q-8 -14 -16 -19.5t-21 -5.5q-26 0 -50 42.5t-44.5 108t-37.5 142.5 t-29 146.5t-18.5 120t-6.5 62.5z" />
<glyph unicode="w" horiz-adv-x="720" d="M352 46q-6 0 -12.5 -16t-20 -35t-37.5 -35t-64 -16t-68.5 30t-47.5 76.5t-30 103t-16.5 110.5t-7 99t-1.5 67q0 16 11 27t27 11t26 -29t17 -74t13.5 -99t15.5 -104t23.5 -89.5t37.5 -54.5q29 17 41.5 48.5t21.5 65t20.5 63t38.5 42.5q34 -21 52.5 -56t33.5 -73.5 t32.5 -76t51.5 -62.5q28 21 47.5 57.5t33 82t21 96t11.5 98.5t5.5 90t3.5 72h72q0 -9 -1 -36t-3 -62.5t-4.5 -76t-5 -76t-5 -62.5t-4.5 -36q-2 -12 -10 -33t-20 -46t-28.5 -50.5t-34.5 -46.5t-38 -34.5t-40 -13.5q-22 0 -38 11.5t-28.5 28.5t-22.5 37t-20.5 37t-22 28.5 t-26.5 11.5z" />
<glyph unicode="x" horiz-adv-x="415" d="M31 99q-16 10 -21.5 19t-5.5 26q0 36 19.5 66.5t43 59.5t43 60t19.5 68q0 39 -12.5 75t-28 72t-28 73.5t-12.5 79.5q25 0 40 -9.5t25 -25.5t16 -35.5t13.5 -39t17.5 -37.5t27 -30l29 69q17 39 39.5 73.5t51.5 58.5t65 24q0 -46 -17.5 -86t-38.5 -79t-38.5 -79.5 t-17.5 -86.5q0 -42 17 -79t37.5 -72t37.5 -71t17 -78q0 -20 -12 -33.5t-29 -13.5q-26 0 -42.5 26.5t-31.5 61.5l-30 72q-15 35 -37 53z" />
<glyph unicode="y" horiz-adv-x="451" d="M21 -119q5 17 26.5 11t51.5 -20l64 -32q34 -18 65.5 -24t56.5 5t35 53v293q-45 -50 -86 -58t-76.5 14.5t-63.5 67.5t-46.5 100.5t-26.5 114.5t-3 109t24.5 83.5t55.5 38.5q0 -12 0.5 -50t3.5 -88t10 -105t20.5 -100t34 -73t51.5 -24q37 -1 56.5 25.5t27 68.5t7.5 93.5 t-1 99.5t1 86.5t14 55.5q6 0 15 1.5t17 2.5t15.5 -1.5t10.5 -9.5q11 -53 14.5 -127.5t3 -153t-2.5 -153.5t-2 -128v-37q0 -26 -0.5 -55t-0.5 -55v-36q-8 -31 -19.5 -55t-30 -40.5t-45.5 -25t-66 -8.5q-6 0 -25.5 5.5t-44.5 15t-52.5 22t-48.5 28t-33 32t-7 33.5z" />
<glyph unicode="z" horiz-adv-x="551" d="M47 55q0 2 -0.5 8.5t-0.5 8.5t0.5 8.5t0.5 7.5q1 5 6 15l11 21q5 10 10.5 19t7.5 12l29 35l47 59l58 71l57 74l48 65q21 30 29 48q-41 4 -84.5 2.5t-78.5 2t-57.5 19.5t-22.5 57h371v-100l-339 -379q24 -2 62.5 -1.5t82.5 -1.5t89 -8t81 -20t58.5 -38t22.5 -61 q-127 0 -246.5 22t-241.5 54z" />
<glyph unicode="{" horiz-adv-x="439" d="M10 378q0 2 0.5 6.5t1.5 6.5q51 29 81 74.5t47.5 100.5t26.5 115l18 119q8 58 20 111.5t35 94.5t61.5 65.5t100.5 26.5q-45 -28 -71.5 -65.5t-40.5 -81t-18.5 -90.5t-6 -94.5t-2.5 -93.5t-7 -87q-3 -20 -19 -44t-34 -48.5t-32 -48t-14 -42.5q0 -2 0.5 -6.5t0.5 -5.5l5 -9 l8 -15l8 -16q4 -7 4 -9l12 -42l18 -65l20 -76l20 -76l17 -64q7 -29 10 -43l98 -73q0 -3 1 -5q0 -2 0.5 -3.5t0.5 -2.5q0 -22 -15.5 -30.5t-34.5 -8.5q-40 0 -68 22.5t-48 57.5t-33 77.5t-21.5 83.5t-14.5 74.5t-11 51.5q-8 25 -28.5 44.5t-41.5 37.5t-37.5 36t-16.5 40z" />
<glyph unicode="|" horiz-adv-x="244" d="M23 966q0 30 11 46t44 16q5 0 12 -1t7 -3l122 -926q0 -3 0.5 -18t0.5 -21q0 -10 -1 -20.5t-4.5 -19.5t-11.5 -14.5t-22 -5.5q-18 0 -25 14t-10 36l-122 878v6q0 5 -0.5 11t-0.5 12v10z" />
<glyph unicode="}" d="M318 390q0 2 -0.5 3.5t-0.5 3.5v5l-9 13l-16 23l-16 24q-7 11 -8 14q-18 45 -24 100.5t-10.5 112.5t-13 111t-30 96t-62.5 67.5t-111 25.5q0 4 3 12.5t7.5 16t10 13.5t10.5 6h196q1 0 7 -25l14 -60l15 -73l12 -62q4 -23 6 -53t4.5 -62.5t7 -66t14 -63.5t25.5 -55t41 -41 q20 -14 38.5 -19t32.5 -10t22.5 -14t8.5 -29q0 -10 -24 -36l-55 -61q-31 -34 -59 -73.5t-37 -75.5q-11 -42 -19.5 -85t-19.5 -83t-26.5 -74.5t-41 -60t-62.5 -40t-91 -14.5q0 34 12 51.5t29 29t37 23t35 34.5q19 28 24 46t6 37t3.5 44.5t15.5 67.5q2 6 9 24.5t18 43.5l22 54 l21 54l18 43.5t10 24.5q0 1 0.5 5.5t0.5 6.5z" />
<glyph unicode="~" horiz-adv-x="3756" d="M3678 202q0 -27 -9.5 -63.5t-28 -68.5t-45 -54.5t-59.5 -22.5q0 26 10 62t28.5 68.5t44.5 55.5t59 23zM3507 227q0 -26 -9.5 -62t-27 -69t-42.5 -56t-57 -23q0 26 9.5 62t27 69t42.5 56t57 23zM1353 171q0 1 -0.5 5.5t-0.5 6.5q0 17 8 25t20 11t25.5 2.5t24.5 -0.5h17 q11 0 22 -0.5t20 -0.5h11q16 -1 50.5 -2.5l77.5 -3.5l91 -6l91 -4l78 -5.5t51 -3.5q1 -3 3.5 -12.5t2.5 -11.5q0 -29 -22 -41t-57 -8zM2180 474q0 97 39 179.5t104.5 143.5t152 95.5t182.5 34.5q32 0 69 -11.5t74.5 -31.5t72.5 -46.5t64 -56.5t48.5 -61.5t25.5 -60.5 q0 -8 1 -27t1.5 -40.5t1 -40.5t0.5 -27q0 -98 -30.5 -173.5t-86 -126.5t-132.5 -77.5t-171 -26.5q-46 0 -95 11.5t-95.5 33.5t-87.5 53t-71.5 70.5t-48.5 86t-18 99.5zM229 232q0 21 4.5 52t15 60.5t27 50.5t41.5 21q10 0 23 -5.5t13 -20.5q0 -2 -3 -11t-6.5 -21t-7.5 -23.5 t-7 -17.5l-14 -29l-21 -44l-23 -44l-15 -29q-12 3 -17.5 9.5t-7.5 15.5t-2 18v18zM10 241q0 27 5 60t17 64.5t31 57.5t47 40q15 -8 20 -15t5 -20q0 -3 -0.5 -7.5t-0.5 -5.5l-14 -44l-22 -66l-22 -67l-15 -43q-35 -2 -43 11.5t-8 34.5zM594 613q0 74 26 136.5t72 108 t107.5 71t133.5 25.5q67 0 130.5 -22.5t112 -64t78 -100.5t29.5 -132q0 -75 -27 -138.5t-75 -109.5t-113 -72t-140 -26q-169 0 -251.5 76.5t-82.5 247.5zM3157 1159q0 22 7.5 45.5t22 43.5t35 33t46.5 13q25 0 42 -12t31 -28l28 -32q14 -17 33 -27q17 -8 36 -12t38 -7t37 -7 t32 -13t22 -25t8 -43q0 -53 -31 -93t-77 -66.5t-100 -39.5t-99 -13h-8q-5 0 -11 0.5t-11 1t-6 0.5q-27 70 -51 138.5t-24 142.5zM3378 1537l24 48h244q7 0 19 -12t24 -28.5t21 -32.5t9 -24q0 -7 -5 -17.5t-12.5 -21.5t-15.5 -20.5t-15 -13.5l-61 -35l-72 -42l-60 -32 q-26 -14 -27 -13l-24 24z" />
<glyph unicode="&#xa1;" horiz-adv-x="268" d="M39 812q0 -24 1 -43t9 -33t25.5 -21t51.5 -7q41 0 70 9.5t46.5 26.5t25.5 42t8 55q0 4 -1 14l-2 21q-1 11 -2 20.5t-1 14.5q-4 11 -16.5 15.5t-28 5.5t-30 0.5t-19.5 -0.5q-69 0 -103 -33.5t-34 -86.5zM142 871h61q0 -7 0.5 -23.5t-2.5 -33.5t-13.5 -30t-32.5 -13 q-2 0 -7 0.5t-6 0.5v99zM91 594q-2 -9 -5 -28l-5 -42q-3 -23 -6 -49t-5 -49l-3 -42q-2 -18 -2 -27q0 -11 2 -33l3 -49q2 -27 5 -57.5t6 -57.5l5 -48q3 -22 5 -32q4 -10 11 -21t16.5 -20.5t21.5 -16t27 -6.5v578q0 12 -13.5 16.5t-24.5 4.5q-14 0 -21.5 -4.5t-16.5 -16.5z " />
<glyph unicode="&#xa2;" horiz-adv-x="634" d="M23 561q0 56 22 100t54 81t67.5 71.5t63 72.5t40 83t-1.5 104h49q3 -65 24 -105t51 -65t64 -40.5t62.5 -32t47.5 -38.5t19 -60q0 -15 -13 -20.5t-24 -5.5q-19 0 -36 15l-40 31q-22 17 -51.5 31.5t-72.5 14.5q0 -8 -1 -28l-3 -42q-2 -22 -3 -41.5t0 -27.5q1 -13 5 -40 l8 -60l10 -71l10 -71l9 -60q4 -27 7 -40q3 0 12.5 -0.5t11.5 -0.5q23 0 44 9.5t39.5 23.5t34.5 32l29 34q18 -13 34 -26t16 -35q0 -13 -6 -21t-20 -16l-38 -20l-59 -29l-59 -29l-39 -19v-196q0 -14 -14 -20t-24 -6q-12 0 -18.5 8t-9.5 19t-4 24t-3 24q-2 6 -4.5 27.5 t-6.5 46.5l-8 47q-3 21 -6 26q-15 25 -41 41.5t-56 32t-60.5 34t-55.5 48t-40.5 74t-15.5 111.5zM96 548q0 -44 15 -81t41.5 -66t62 -50t77.5 -34q0 6 0.5 19.5t0.5 29.5t0.5 29.5t0.5 19.5q0 93 -11 184.5t-39 180.5q-2 2 -6.5 2.5t-6.5 0.5q-40 0 -66 -26t-41.5 -63 t-21.5 -77.5t-6 -68.5z" />
<glyph unicode="&#xa3;" horiz-adv-x="805" d="M231 74q-20 0 -27.5 -5t-12.5 -12l-9 -16q-5 -9 -20 -16.5t-43.5 -12.5t-79.5 -5q0 62 11.5 92t29.5 43t38 16t38 11.5t29.5 30t11.5 70.5q0 29 -13 45t-32 25t-42 12.5t-42 8.5t-32 13.5t-13 26.5q0 11 5.5 24.5t19.5 13.5h171l32 95q16 47 35 90.5t43 82t56.5 66.5 t75 44t98.5 16h20l25 -1q12 -1 21 -2l9 -1q9 -4 28 -20t38.5 -35.5t35.5 -38t20 -28.5q1 -1 1.5 -5.5t0.5 -6.5q0 -11 -6.5 -18t-16.5 -11.5t-21 -6.5t-20 -2q-15 0 -29 16l-29 36q-16 19 -37.5 35.5t-52.5 16.5q-48 0 -89.5 -30t-72.5 -75t-49 -97t-18 -96q0 -5 9.5 -14.5 t14.5 -9.5h349q0 -3 -1.5 -16.5t-5 -28.5t-9.5 -27.5t-16 -12.5h-341q-11 0 -17 -19.5t-8 -43t-2 -43.5v-22q0 -45 18 -74.5t48 -47t67.5 -24.5t76.5 -7q31 0 60.5 8.5t59 18.5t59 18.5t60.5 8.5q0 -46 -25 -72.5t-61.5 -39.5t-79 -16.5t-77.5 -3.5q-40 0 -73 12.5t-64 27 t-61.5 27t-66.5 12.5z" />
<glyph unicode="&#xa4;" horiz-adv-x="780" d="M525 73q-10 0 -34 0.5t-51.5 1t-51.5 1t-34 0.5q-39 0 -73 -4.5t-66 -9.5t-64 -9.5t-66 -4.5q-19 0 -34.5 8t-15.5 31q0 3 1 6q0 2 1 5l98 73q1 1 2 14t2 30l2 36q1 18 1 29q0 52 -10.5 94t-22.5 81.5t-22.5 79.5t-10.5 88q28 0 45.5 -14t31.5 -30.5t28.5 -30t37.5 -13.5 q19 0 37 4t36 9.5t36 9.5t38 4q27 0 51.5 -8t48.5 -17.5t47.5 -17.5t47.5 -8q19 0 35 8t31.5 18t32 18t36.5 8q18 0 34 -8.5t16 -31.5q0 -1 -0.5 -2.5t-0.5 -3.5q-1 -3 -1 -5l-45 -59q-20 -26 -33.5 -50t-22.5 -47.5t-13.5 -52.5t-6.5 -65t-2 -84q0 -19 8 -33t17.5 -27 t17.5 -26.5t8 -30.5q0 -11 -5.5 -24t-19.5 -13q-1 0 -7 3t-14 6.5t-16 7.5t-12 7l-14 10l-22 15l-22.5 14.5t-14.5 9.5zM205 309q0 -89 43.5 -127t129.5 -38q85 0 129.5 39t44.5 132q0 13 -4 38t-13 49.5t-23.5 42.5t-35.5 18h-195q-20 0 -34.5 -18.5t-23.5 -44t-13.5 -51 t-4.5 -40.5z" />
<glyph unicode="&#xa5;" horiz-adv-x="1000" />
<glyph unicode="&#xa7;" horiz-adv-x="659" d="M86 -176q42 0 78 -17t71 -37.5t71.5 -37.5t79.5 -17q40 0 67.5 7.5t44 24.5t23.5 44.5t7 67.5q0 45 -21 80.5t-55.5 64t-78.5 52.5l-91 46l-90 46q-45 24 -79.5 51.5t-55.5 61.5t-21 78q0 27 15.5 50.5t34 46t34 43.5t15.5 43q0 4 -8 18l-16 31l-17 30q-7 15 -8 19 q0 1 -1 10.5t-2 21.5l-1 25v19q0 47 24 87t61.5 69.5t84 46t90.5 16.5t80 -15.5t61.5 -43t39.5 -65.5t14 -84q-21 0 -37 10t-29.5 25t-27 32.5t-30 32.5t-37.5 25t-49 10q-33 0 -63.5 -12.5t-54 -34.5t-37.5 -51.5t-14 -62.5q0 -66 34.5 -103t86.5 -59.5t112.5 -39.5 t112.5 -42.5t86.5 -68.5t34.5 -118q0 -28 -11 -49t-28.5 -38t-40 -30.5t-45.5 -25.5l43 -56q22 -30 40 -63t30 -67t12 -67q0 -112 -57.5 -163t-160.5 -51h-21l-24 2q-13 0 -22 1t-10 1q-18 5 -44 16l-52 22q-27 12 -54 26l-47 24q-21 12 -34 21t-13 13v58zM131 350 q0 -31 17.5 -55.5t45.5 -43.5t63.5 -32.5t71.5 -22.5t69 -13t56 -4q17 0 34.5 7t31.5 18.5t23 27.5t9 34q0 42 -33 72.5t-79 50.5t-93.5 29.5t-77.5 9.5q-5 0 -17 -1l-26 -1q-14 0 -26 -0.5t-17 -1.5q-29 -14 -40.5 -31t-11.5 -43z" />
<glyph unicode="&#xa8;" horiz-adv-x="610" d="M24 768q-4 25 5.5 47.5t26 39.5t38 27.5t42.5 10.5q23 0 43 -8.5t35 -23.5t23.5 -35t8.5 -43q0 -25 -9.5 -42t-25.5 -27.5t-37 -15.5t-44 -5q-17 0 -34 2.5t-32 10.5t-25.5 22.5t-14.5 39.5zM341 768q0 23 8.5 45.5t23.5 40.5t35 29t43 11t43.5 -11.5t35.5 -29.5 t23.5 -40.5t8.5 -45.5q0 -21 -11 -35t-27.5 -22.5t-36 -12t-36.5 -3.5t-36 3.5t-35.5 12t-27.5 22.5t-11 36z" />
<glyph unicode="&#xa9;" horiz-adv-x="744" d="M36 321q0 63 28 120.5t74 101t104 69t118 25.5q66 0 126.5 -19.5t107.5 -57t75 -92.5t28 -127q0 -73 -27 -136t-73.5 -109t-109 -72t-132.5 -26q-74 0 -133 22.5t-100.5 64t-63.5 101.5t-22 135zM109 332q0 -62 19 -107t53 -74t81.5 -42.5t103.5 -13.5h22q16 0 33.5 0.5 t33 1t21.5 1.5q66 49 108 113t42 148q0 36 -13.5 69t-37 58.5t-55 41t-68.5 15.5q-3 0 -10 -0.5t-15 -1.5t-14.5 -2t-9.5 -2q4 -4 15 -14l23 -22l21 -22q10 -11 14 -16q1 -1 -0.5 -6t-3.5 -11t-3.5 -11.5t-1.5 -6.5q-40 0 -74 4.5t-59 -0.5t-39.5 -27.5t-14.5 -76.5 q0 -25 9.5 -38t25 -17.5t34.5 -3.5t37 4.5t33.5 7.5t24.5 4q0 -31 1 -49.5t-5 -28t-23 -12t-53 -2.5q-33 0 -62 4t-51 16t-34.5 34.5t-12.5 59.5q0 40 5.5 69t18 54t31.5 50t46 57q-2 1 -11.5 2t-12.5 1q-17 0 -36.5 -10.5t-38.5 -28t-36.5 -39.5t-31 -45.5t-21.5 -45.5 t-8 -39z" />
<glyph unicode="&#xaa;" horiz-adv-x="780" d="M105 199q0 55 19 91.5t50 59.5t71.5 34.5t84 16.5t86.5 5h80q0 40 -10.5 88.5t-33 90.5t-58.5 70.5t-87 28.5q-54 0 -86.5 -15t-51.5 -37.5t-30.5 -48.5t-24.5 -48.5t-32.5 -37.5t-54.5 -15q0 73 21.5 125.5t61 86.5t95 49.5t123.5 15.5q48 0 83 -16t61 -42.5t44 -61.5 t32 -73t25.5 -77t24.5 -74q16 -45 42 -85l52 -80q25 -41 43.5 -84t18.5 -93h-58l-74 122q-9 -39 -37 -75t-66 -63t-80.5 -43t-81.5 -16q-46 0 -91 13t-81 38.5t-58 63t-22 86.5zM181 210q0 -40 16 -66.5t42.5 -43t60.5 -23.5t70 -7t65 14.5t49 38.5t31 56t11 67 q0 27 -15.5 45.5t-38.5 30t-49 17t-47 5.5q-28 0 -62 -8.5t-63.5 -25.5t-49.5 -42t-20 -58z" />
<glyph unicode="&#xad;" horiz-adv-x="439" d="M37 426q4 7 13.5 15.5t20.5 16t21.5 12.5t17.5 5h276q0 -3 -1 -15t-4 -24.5t-9.5 -23t-17.5 -10.5h-293z" />
<glyph unicode="&#xae;" horiz-adv-x="634" d="M36 337q0 2 1 4q-1 72 24.5 122.5t68 81t96 42t109 5.5t107.5 -28t90 -59t57.5 -87.5t10.5 -112.5q0 -75 -13.5 -132t-46 -95.5t-87.5 -58.5t-137 -20q-59 0 -110 30.5t-89 78.5t-59.5 106.5t-21.5 115.5v7zM377 230q0 -5 19 -18.5t42 -27.5l42 -25q20 -12 20 -13 q15 13 21 35t7.5 45t0 44.5t-1.5 34.5v22q0 16 -0.5 33.5t-1 33t-0.5 21.5q-16 24 -38 42.5t-47.5 31t-53.5 19.5t-56 7q-45 0 -81.5 -13.5t-62.5 -39t-40 -61.5t-14 -81q0 -18 1 -40t6 -43t15 -39t29 -27v244q0 18 18 28t41.5 15t45.5 6.5t31 1.5q57 0 84 -27t27 -88 q0 -19 -8.5 -33.5t-18 -28t-18 -27.5t-8.5 -32zM304 393q-16 0 -26 -8.5t-15.5 -21t-7.5 -27t-2 -27.5h26q18 0 34.5 4t29 13.5t12.5 27.5q0 23 -16.5 31t-34.5 8zM269 245q0 -18 -1.5 -25.5t-3.5 -15t-4.5 -20t-4.5 -40.5q9 0 33 -6t49 -9.5t44.5 0t19.5 21.5 q0 11 -20.5 29t-45.5 34.5t-45.5 26.5t-20.5 5z" />
<glyph unicode="&#xaf;" horiz-adv-x="833" />
<glyph unicode="&#xb0;" horiz-adv-x="341" d="M36 707q0 66 25.5 96t90.5 30q25 0 49 -6.5t42 -20t29 -34t11 -49.5q0 -69 -42 -104.5t-108 -35.5q-56 0 -76.5 34.5t-20.5 89.5zM135 658h57q0 10 -0.5 27t-4.5 33t-13 27.5t-27 11.5q-2 0 -6.5 -0.5t-5.5 -0.5v-98z" />
<glyph unicode="&#xb1;" horiz-adv-x="610" d="M219 98v170h-171q-14 0 -19.5 13.5t-5.5 24.5q0 19 14 23t36 12l29 11l44 15l44 14q21 7 29 9q-2 7 -3 27.5t1.5 42t11 38.5t25.5 17q21 0 33.5 -19t18.5 -43.5t8 -46.5t3 -28h227q-1 -13 -2 -24q-1 -10 -2.5 -20t-3.5 -17q-1 -4 -4 -10.5t-7 -12.5t-7.5 -10t-5.5 -4 h-186q-4 -32 -7 -61q-2 -26 -3 -52.5t1 -44.5q0 -4 3 -10.5t7 -12.5t8 -10t6 -4h244l-24 -61q0 -1 -15 -2l-38 -4q-23 -3 -52 -6l-59 -4q-30 -3 -57.5 -5t-47.5 -3q-12 0 -44 -1l-66 -2q-34 -1 -65.5 -1.5t-43.5 -0.5v54z" />
<glyph unicode="&#xb2;" horiz-adv-x="418" d="M36 480q0 23 14.5 35t36.5 18.5t48 10t48.5 9t37 15.5t14.5 31q0 13 -4.5 25t-14 21.5t-24 15t-33.5 5.5q-16 0 -28.5 -4t-23.5 -9t-23 -9t-28 -4q0 16 6.5 28.5t18 21.5t28.5 14.5t38 5.5q31 0 55.5 -8.5t42.5 -22.5t27.5 -33t9.5 -41q0 -27 -17 -44.5t-44 -28.5 t-59.5 -17.5l-64.5 -12.5v-65l31 -11q56 6 113.5 9t115.5 3v-23q0 -1 -11 -2.5t-28 -3.5t-38 -4l-44 -4l-42 -5q-21 -2 -36 -3h-6h-11.5h-12.5h-9q-25 0 -41 7.5t-25.5 20t-13 28t-3.5 31.5z" />
<glyph unicode="&#xb3;" horiz-adv-x="230" d="M37 456q0 6 5.5 8.5t10.5 2.5q9 0 17 -5t17 -11.5t19.5 -11.5t22.5 -5h6h8.5t8 0.5t5.5 0.5q4 5 6.5 9.5t4 10t1.5 10.5v12q0 25 -11 41.5t-28.5 26.5t-40 13.5t-45.5 3.5q0 5 5 12t10 9l17 5l26 6q14 4 26.5 6.5l17.5 3.5v5v8q1 4 1 8v5q0 12 -1 19.5t-4.5 12t-10.5 6 t-19 1.5t-19.5 -4.5t-14 -9.5t-14 -9t-19.5 -4q0 33 17.5 51.5t51.5 18.5q21 0 35.5 -7t23.5 -20t13 -29.5t4 -35.5v-2v-1q-1 -1 -1 -2q0 -2 -4 -8l-7 -13q-4 -7 -7 -13.5t-3 -8.5q0 -8 5 -17l12 -21q6 -11 11 -24.5t5 -29.5v-17q0 -12 -2 -25.5t-6.5 -24t-14.5 -10.5h-98 q-1 0 -8.5 6.5t-15 15t-13.5 17t-6 14.5z" />
<glyph unicode="&#xb4;" horiz-adv-x="549" d="M439 771q7 0 18 0.5t22 -1.5t20.5 -7.5t12.5 -18.5q-52 -32 -113 -55.5t-125 -39.5t-128 -24t-122 -8v54q0 1 19.5 7.5t50.5 15.5l72 20l80 20l78 19q38 9 66 15q1 1 7 1.5t13.5 1t15.5 0.5h13z" />
<glyph unicode="&#xb6;" horiz-adv-x="544" d="M268 439q-54 6 -99.5 20t-78 40t-50.5 66t-18 100q0 48 22.5 80t57 51.5t75.5 27.5t79 8q5 0 17 -0.5t25.5 -1t25.5 -1t17 -0.5q12 -3 17 -9t6.5 -13.5t1 -16t-0.5 -16.5q0 -94 -5 -188l-10 -187q-5 -94 -8.5 -187.5t-0.5 -187.5q-14 -10 -33.5 -19t-39.5 -9v443z M399 153q0 172 15.5 342.5t34.5 344.5h51q0 -107 -6 -214l-11 -213q-6 -106 -10 -213t0 -214l-24 -24q-23 11 -33.5 35t-14.5 52.5t-3 56.5t1 47z" />
<glyph unicode="&#xb8;" horiz-adv-x="622" d="M158 -340q16 0 45.5 -2.5t63.5 -4.5t69 -2t63.5 4.5t46.5 15t18 30.5q0 19 -9.5 28.5t-26.5 13.5l-219 48l-25 25q0 2 -0.5 12t-1.5 23v25q-1 12 -1 19q-7 63 6.5 111t34 76.5t42 35t29.5 -14t-4 -70.5t-57 -134v-6q0 -2 1 -4l244 -73q20 -6 32 -16t18 -22.5t8 -27 t2 -29.5q0 -35 -18.5 -58.5t-49 -38t-69.5 -22.5t-81 -11t-83.5 -3.5t-76.5 -0.5z" />
<glyph unicode="&#xb9;" horiz-adv-x="286" d="M134 455l-3 41l-3 50l-2 51l-3 46q-1 20 -2 33l-1 12l-14 26q-3 -2 -10 -5l-17 -8l-16 -8q-8 -4 -12 -5h-2.5h-4.5q-7 0 -11.5 2.5t-8.5 10.5l96 104h28l41 -376q1 -11 10 -12.5t19 -1.5t18.5 -2.5t8.5 -15.5q0 -6 -3.5 -13t-11.5 -7h-165q0 15 5 23.5t12.5 13t16.5 6.5 t17 5t13 7.5t5 14.5v8z" />
<glyph unicode="&#xba;" d="M21 120q0 60 12.5 120t42 108t76.5 78t116 30q50 0 87 -19.5t61 -52t36 -74t12 -86.5q0 -54 -12.5 -112.5t-40 -108t-71.5 -81.5t-108 -32q-56 0 -95.5 16.5t-65.5 46.5t-38 72.5t-12 94.5zM95 149q0 -24 7 -55.5t22 -59.5t38.5 -47.5t55.5 -19.5q48 0 81 26.5t53.5 65.5 t29.5 84t9 81q0 30 -6 58.5t-20 51t-37 36.5t-57 14q-50 0 -83.5 -20t-54 -53t-29.5 -75.5t-9 -86.5z" />
<glyph unicode="&#xbc;" horiz-adv-x="1622" d="M111 530l-2 33l-2 39l-2 40l-2 36q-1 16 -2 25l-1 10l-11 21q-2 -2 -8 -5l-13 -6l-13 -6q-7 -3 -9 -4h-3h-3q-6 0 -9.5 2t-6.5 9l76 81h22l33 -295q1 -9 8 -10t15 -1t14.5 -2t6.5 -13q0 -4 -2.5 -9.5t-8.5 -5.5h-132q0 12 4 18.5t10.5 10t13.5 5t13 4t10 6t4 11.5v6z M442 780l16 32q9 17 20 29.5t26 20.5t36 8v-65l-390 -805h-72zM530 158q0 9 -14 14t-35 8t-45.5 5.5t-45.5 7.5t-35 14.5t-14 25.5v4.5v2.5l126 232q10 18 20 23.5t26 5.5q4 0 9.5 -0.5t10.5 -1.5t8.5 -4.5t4.5 -8.5l31 -246q2 -14 14.5 -20t30.5 -8t39 -1.5t39.5 -1 t32 -6.5t17.5 -17l-16 -21h-165v-171l-23 -13l-16 13v164zM405 240q14 -5 25.5 -7.5t22 -4t21.5 -2t25 -0.5h6q4 0 9 0.5t10 0.5h6l-4.5 48t-6 53t-8.5 54t-12 50z" />
<glyph unicode="&#xbd;" horiz-adv-x="806" d="M126 451l-2 41l-3 51l-2 52l-3 46q-1 20 -1 33l-1 13l-13 26q-3 -2 -10 -5l-15 -8l-16 -8q-7 -4 -11 -5l-2.5 -0.5t-3.5 -0.5q-7 0 -11 3t-8 11l90 105h26l38 -380q1 -12 9 -13.5t17.5 -1t17.5 -2.5t8 -16q0 -6 -3 -13t-11 -7h-154q0 16 5 24t12 12.5t15.5 6.5t15.5 5 t11.5 8t4.5 15v8zM478 780l16 32q9 17 20 29.5t26 20.5t36 8v-65l-390 -805h-72zM423 117q0 23 14.5 36t36.5 19.5t47.5 10.5t47 9.5t36 16.5t14.5 32q0 14 -4.5 27t-14 22.5t-23.5 15.5t-33 6q-16 0 -28 -4t-23 -9.5t-22.5 -9.5t-27.5 -4q0 16 6.5 29.5t18 23t28 15 t36.5 5.5q30 0 54.5 -9t42 -24t27 -35t9.5 -42q0 -29 -16.5 -47t-43 -29.5t-58.5 -19t-63 -13.5v-68l29 -12q56 7 112.5 10.5t112.5 3.5v-25q0 -1 -10.5 -2.5t-27 -3.5t-37.5 -4l-43 -5l-42 -4q-20 -3 -35 -4h-6h-11h-12h-9q-24 0 -40 8t-25.5 21t-13 29.5t-3.5 33.5z" />
<glyph unicode="&#xbe;" horiz-adv-x="755" d="M37 456q0 6 9 8.5t16 2.5q14 0 26.5 -5t26.5 -11.5t30 -11.5t35 -5h9h13t13 0.5t8 0.5q7 5 11 9.5t6 10t2 10.5v12q0 25 -17 41.5t-44.5 26.5t-62 13.5t-70.5 3.5q0 5 7.5 12t15.5 9l26 5l41 6q22 4 41 6.5l27 3.5v5l1 8q1 4 1 8v5q0 12 -1.5 19.5t-7 12t-16.5 6 t-29.5 1.5t-30 -4.5t-21.5 -9.5t-21.5 -9t-31.5 -4q0 33 27 51.5t81 18.5q32 0 55 -7t36.5 -20t20 -29.5t6.5 -35.5q0 -1 -0.5 -2l-0.5 -1q-1 -1 -1 -2q0 -2 -5 -8l-12 -13q-6 -7 -11 -13.5t-5 -8.5q0 -8 8 -17l18 -21q10 -11 18 -24.5t8 -29.5v-17q0 -12 -3 -25.5 t-10.5 -24t-21.5 -10.5h-152q-3 0 -14 6.5t-23 15t-21.5 17t-9.5 14.5zM466 735l16 33q9 16 20 28.5t26 20.5t36 8v-65l-390 -805h-72zM548 137q0 8 -11 12.5t-26.5 7t-34.5 4.5t-34.5 7t-26.5 13.5t-11 23.5q0 1 0.5 3.5l0.5 2.5l95 212q7 16 14.5 21t20.5 5h7t8 -1.5 t6.5 -4.5t2.5 -8l24 -224q2 -13 11.5 -18.5t23 -7t29 -1t30 -1t24.5 -6t13 -15.5l-12 -19h-124v-156l-19 -12l-11 12v150zM453 211q11 -4 19.5 -6.5t16.5 -4t16.5 -2t18.5 -0.5h4q4 0 7.5 0.5t7.5 0.5h5q-2 20 -4 43.5t-4.5 48.5t-6.5 49.5t-9 45.5z" />
<glyph unicode="&#xbf;" horiz-adv-x="610" d="M214 973q0 -26 3 -52t13 -46t28 -32.5t47 -12.5q65 0 98.5 22.5t33.5 83.5q0 21 -4 48t-15 50.5t-30 39.5t-48 16q-26 0 -48.5 -9.5t-40 -26t-27.5 -37.5t-10 -44zM369 920q-38 0 -51 24t-13 58q39 0 51.5 -23.5t12.5 -58.5zM487 226q0 -35 -20.5 -64.5t-51.5 -51.5 t-68 -34.5t-70 -12.5q-57 0 -94.5 26.5t-59 68t-28.5 91.5t-2 96q-2 1 -12 2t-12 1q-22 0 -32.5 -12.5t-14.5 -29.5t-4 -36v-33q0 -50 18.5 -94.5t51.5 -77.5t78 -52t98 -19q52 0 108.5 17t103 49.5t76.5 78t30 102.5q0 1 -0.5 2.5t-0.5 3.5v5l-220 349q4 20 3.5 42.5t-8 42 t-24 32t-44.5 12.5v-129q0 -1 8 -16l20 -36l29 -50l33 -56l31 -54l26 -44q18 -30 28 -42t15.5 -20t7 -19t1.5 -38z" />
<glyph unicode="&#xc0;" horiz-adv-x="939" d="M37 24q0 11 -0.5 39t-0.5 59t-0.5 59t-0.5 39q0 51 3 117.5t11 141.5t22.5 154t37 153.5t54.5 140.5t75.5 115.5t99 78.5t126.5 29q4 0 12.5 -0.5t18.5 -1t18.5 -1t11.5 -1.5q106 -94 180.5 -213t121.5 -252.5t68.5 -275.5t21.5 -282q0 -7 1 -27t-1.5 -41.5t-10.5 -38.5 t-26 -17q-15 0 -24 27t-15.5 69.5t-11 94t-9.5 100.5t-11 89t-16 60q-19 -1 -59 -1t-90.5 -0.5t-106.5 -0.5t-106.5 0.5t-90.5 0.5t-59 1q-8 0 -29 3t-44 7l-44 8q-21 4 -29 6q-3 -3 -7 -13l-8 -22q-4 -12 -7 -23t-3 -15q-2 -15 -4 -45l-4 -69l-6 -80q-3 -43 -5 -82l-3 -68 q-2 -31 -2 -46q-1 0 -5.5 -0.5t-6.5 -0.5q-13 0 -21 5.5t-16 19.5zM132 582q0 -18 18 -30.5t46 -20t62 -12t67 -6t60 -2t42 -0.5q44 0 87 5t86.5 11t86.5 11t87 5q0 39 -9 94t-27 114.5t-45 117.5t-63 104.5t-80 75t-97 28.5t-97.5 -26.5t-80 -69t-62.5 -96t-45 -108.5 t-27 -106.5t-9 -88.5zM269 1387l20 -6q20 -6 51 -17l72 -24l80 -26l78 -27l65 -22q12 -4 26 -10.5t26 -15.5t20 -20.5t8 -26.5h-55q-1 0 -20 6l-49 18l-67 23l-74 27l-73 26l-59 22q-20 8 -40 19t-33 30z" />
<glyph unicode="&#xc1;" horiz-adv-x="939" d="M37 24q0 11 -0.5 39t-0.5 59t-0.5 59t-0.5 39q0 51 3 117.5t11 141.5t22.5 154t37 153.5t54.5 140.5t75.5 115.5t99 78.5t126.5 29q4 0 12.5 -0.5t18.5 -1t18.5 -1t11.5 -1.5q106 -94 180.5 -213t121.5 -252.5t68.5 -275.5t21.5 -282q0 -7 1 -27t-1.5 -41.5t-10.5 -38.5 t-26 -17q-15 0 -24 27t-15.5 69.5t-11 94t-9.5 100.5t-11 89t-16 60q-19 -1 -59 -1t-90.5 -0.5t-106.5 -0.5t-106.5 0.5t-90.5 0.5t-59 1q-8 0 -29 3t-44 7l-44 8q-21 4 -29 6q-3 -3 -7 -13l-8 -22q-4 -12 -7 -23t-3 -15q-2 -15 -4 -45l-4 -69l-6 -80q-3 -43 -5 -82l-3 -68 q-2 -31 -2 -46q-1 0 -5.5 -0.5t-6.5 -0.5q-13 0 -21 5.5t-16 19.5zM132 582q0 -18 18 -30.5t46 -20t62 -12t67 -6t60 -2t42 -0.5q44 0 87 5t86.5 11t86.5 11t87 5q0 39 -9 94t-27 114.5t-45 117.5t-63 104.5t-80 75t-97 28.5t-97.5 -26.5t-80 -69t-62.5 -96t-45 -108.5 t-27 -106.5t-9 -88.5zM578 1305q7 0 18 0.5t22 -1.5t20.5 -7.5t12.5 -18.5q-52 -32 -113 -55.5t-125 -39.5t-128 -24t-122 -8v54q0 1 19.5 7.5t51.5 15.5l71 20l81 20l78 19q37 9 65 15q1 1 7 1.5t13.5 1t15.5 0.5h13z" />
<glyph unicode="&#xc2;" horiz-adv-x="939" d="M37 24q0 11 -0.5 39t-0.5 59t-0.5 59t-0.5 39q0 51 3 117.5t11 141.5t22.5 154t37 153.5t54.5 140.5t75.5 115.5t99 78.5t126.5 29q4 0 12.5 -0.5t18.5 -1t18.5 -1t11.5 -1.5q106 -94 180.5 -213t121.5 -252.5t68.5 -275.5t21.5 -282q0 -7 1 -27t-1.5 -41.5t-10.5 -38.5 t-26 -17q-15 0 -24 27t-15.5 69.5t-11 94t-9.5 100.5t-11 89t-16 60q-19 -1 -59 -1t-90.5 -0.5t-106.5 -0.5t-106.5 0.5t-90.5 0.5t-59 1q-8 0 -29 3t-44 7l-44 8q-21 4 -29 6q-3 -3 -7 -13l-8 -22q-4 -12 -7 -23t-3 -15q-2 -15 -4 -45l-4 -69l-6 -80q-3 -43 -5 -82l-3 -68 q-2 -31 -2 -46q-1 0 -5.5 -0.5t-6.5 -0.5q-13 0 -21 5.5t-16 19.5zM132 582q0 -18 18 -30.5t46 -20t62 -12t67 -6t60 -2t42 -0.5q44 0 87 5t86.5 11t86.5 11t87 5q0 39 -9 94t-27 114.5t-45 117.5t-63 104.5t-80 75t-97 28.5t-97.5 -26.5t-80 -69t-62.5 -96t-45 -108.5 t-27 -106.5t-9 -88.5zM421 1391q2 0 6.5 -0.5t5.5 -1.5l219 -220v-39q-32 0 -64.5 22.5t-63.5 53.5l-60 62q-29 31 -56 48q-4 -2 -13 -11.5t-11 -13.5q-5 -8 -16 -29l-22 -43l-21 -44l-14 -30h-54q0 11 7 34t19 50.5t27.5 56t34 52t38 38.5t38.5 15z" />
<glyph unicode="&#xc3;" horiz-adv-x="939" d="M37 24q0 11 -0.5 39t-0.5 59t-0.5 59t-0.5 39q0 51 3 117.5t11 141.5t22.5 154t37 153.5t54.5 140.5t75.5 115.5t99 78.5t126.5 29q4 0 12.5 -0.5t18.5 -1t18.5 -1t11.5 -1.5q106 -94 180.5 -213t121.5 -252.5t68.5 -275.5t21.5 -282q0 -7 1 -27t-1.5 -41.5t-10.5 -38.5 t-26 -17q-15 0 -24 27t-15.5 69.5t-11 94t-9.5 100.5t-11 89t-16 60q-19 -1 -59 -1t-90.5 -0.5t-106.5 -0.5t-106.5 0.5t-90.5 0.5t-59 1q-8 0 -29 3t-44 7l-44 8q-21 4 -29 6q-3 -3 -7 -13l-8 -22q-4 -12 -7 -23t-3 -15q-2 -15 -4 -45l-4 -69l-6 -80q-3 -43 -5 -82l-3 -68 q-2 -31 -2 -46q-1 0 -5.5 -0.5t-6.5 -0.5q-13 0 -21 5.5t-16 19.5zM132 582q0 -18 18 -30.5t46 -20t62 -12t67 -6t60 -2t42 -0.5q44 0 87 5t86.5 11t86.5 11t87 5q0 39 -9 94t-27 114.5t-45 117.5t-63 104.5t-80 75t-97 28.5t-97.5 -26.5t-80 -69t-62.5 -96t-45 -108.5 t-27 -106.5t-9 -88.5zM299 1488q-54 0 -87.5 -17t-52 -48t-25.5 -73t-7 -92q-19 0 -30 6.5t-17 17.5t-7.5 25.5t-1.5 30.5q0 47 13.5 88.5t40 72.5t65.5 49t89 18q5 0 17 -1l26 -2q14 -1 26 -2.5t17 -2.5q29 -23 52.5 -53.5t44.5 -63.5l44 -65q21 -32 47 -57t58.5 -40.5 t75.5 -15.5q38 0 62 18.5t40.5 46t28 60t25.5 60t33 46t50 18.5q2 0 11.5 -1.5t12.5 -1.5q-6 -56 -27 -116.5t-56 -110.5t-85 -82.5t-114 -32.5q-50 0 -89 24t-71 59.5t-58 77.5l-51 76q-24 36 -48.5 60t-51.5 24z" />
<glyph unicode="&#xc4;" horiz-adv-x="939" d="M37 24q0 11 -0.5 39t-0.5 59t-0.5 59t-0.5 39q0 51 3 117.5t11 141.5t22.5 154t37 153.5t54.5 140.5t75.5 115.5t99 78.5t126.5 29q4 0 12.5 -0.5t18.5 -1t18.5 -1t11.5 -1.5q106 -94 180.5 -213t121.5 -252.5t68.5 -275.5t21.5 -282q0 -7 1 -27t-1.5 -41.5t-10.5 -38.5 t-26 -17q-15 0 -24 27t-15.5 69.5t-11 94t-9.5 100.5t-11 89t-16 60q-19 -1 -59 -1t-90.5 -0.5t-106.5 -0.5t-106.5 0.5t-90.5 0.5t-59 1q-8 0 -29 3t-44 7l-44 8q-21 4 -29 6q-3 -3 -7 -13l-8 -22q-4 -12 -7 -23t-3 -15q-2 -15 -4 -45l-4 -69l-6 -80q-3 -43 -5 -82l-3 -68 q-2 -31 -2 -46q-1 0 -5.5 -0.5t-6.5 -0.5q-13 0 -21 5.5t-16 19.5zM132 582q0 -18 18 -30.5t46 -20t62 -12t67 -6t60 -2t42 -0.5q44 0 87 5t86.5 11t86.5 11t87 5q0 39 -9 94t-27 114.5t-45 117.5t-63 104.5t-80 75t-97 28.5t-97.5 -26.5t-80 -69t-62.5 -96t-45 -108.5 t-27 -106.5t-9 -88.5zM195 1282q-4 25 5.5 47.5t26 39.5t38 27.5t42.5 10.5q23 0 43 -8.5t35 -23.5t23.5 -35t8.5 -43q0 -25 -9.5 -42t-25.5 -27.5t-37 -15.5t-44 -5q-17 0 -34 2.5t-32 10.5t-25.5 22.5t-14.5 39.5zM512 1282q0 23 8.5 45.5t23.5 40.5t35 29t43 11 t43.5 -11.5t35.5 -29.5t23.5 -40.5t8.5 -45.5q0 -21 -11 -35t-27.5 -22.5t-36 -12t-36.5 -3.5t-36 3.5t-35.5 12t-27.5 22.5t-11 36z" />
<glyph unicode="&#xc5;" horiz-adv-x="939" d="M37 24q0 11 -0.5 39t-0.5 59t-0.5 59t-0.5 39q0 51 3 117.5t11 141.5t22.5 154t37 153.5t54.5 140.5t75.5 115.5t99 78.5t126.5 29q4 0 12.5 -0.5t18.5 -1t18.5 -1t11.5 -1.5q106 -94 180.5 -213t121.5 -252.5t68.5 -275.5t21.5 -282q0 -7 1 -27t-1.5 -41.5t-10.5 -38.5 t-26 -17q-15 0 -24 27t-15.5 69.5t-11 94t-9.5 100.5t-11 89t-16 60q-19 -1 -59 -1t-90.5 -0.5t-106.5 -0.5t-106.5 0.5t-90.5 0.5t-59 1q-8 0 -29 3t-44 7l-44 8q-21 4 -29 6q-3 -3 -7 -13l-8 -22q-4 -12 -7 -23t-3 -15q-2 -15 -4 -45l-4 -69l-6 -80q-3 -43 -5 -82l-3 -68 q-2 -31 -2 -46q-1 0 -5.5 -0.5t-6.5 -0.5q-13 0 -21 5.5t-16 19.5zM132 582q0 -18 18 -30.5t46 -20t62 -12t67 -6t60 -2t42 -0.5q44 0 87 5t86.5 11t86.5 11t87 5q0 39 -9 94t-27 114.5t-45 117.5t-63 104.5t-80 75t-97 28.5t-97.5 -26.5t-80 -69t-62.5 -96t-45 -108.5 t-27 -106.5t-9 -88.5zM310 1261q0 66 25.5 96t90.5 30q25 0 49 -6.5t42 -20t29 -34t11 -49.5q0 -69 -42 -104.5t-108 -35.5q-56 0 -76.5 34.5t-20.5 89.5zM409 1212h57q0 10 -0.5 27t-4.5 33t-13 27.5t-27 11.5q-2 0 -6.5 -0.5t-5.5 -0.5v-98z" />
<glyph unicode="&#xc6;" horiz-adv-x="1479" d="M37 24q0 11 -0.5 39t-0.5 59t-0.5 59t-0.5 39q0 51 3 117.5t11 141.5t22.5 154t37 153.5t54.5 140.5t75.5 115.5t99 78.5t126.5 29q4 0 12.5 -0.5t18.5 -1t18.5 -1t11.5 -1.5q106 -94 180.5 -213t121.5 -252.5t68.5 -275.5t21.5 -282q0 -7 1 -27t-1.5 -41.5t-10.5 -38.5 t-26 -17q-15 0 -24 27t-15.5 69.5t-11 94t-9.5 100.5t-11 89t-16 60q-19 -1 -59 -1t-90.5 -0.5t-106.5 -0.5t-106.5 0.5t-90.5 0.5t-59 1q-8 0 -29 3t-44 7l-44 8q-21 4 -29 6q-3 -3 -7 -13l-8 -22q-4 -12 -7 -23t-3 -15q-2 -15 -4 -45l-4 -69l-6 -80q-3 -43 -5 -82l-3 -68 q-2 -31 -2 -46q-1 0 -5.5 -0.5t-6.5 -0.5q-13 0 -21 5.5t-16 19.5zM132 582q0 -18 18 -30.5t46 -20t62 -12t67 -6t60 -2t42 -0.5q44 0 87 5t86.5 11t86.5 11t87 5q0 39 -9 94t-27 114.5t-45 117.5t-63 104.5t-80 75t-97 28.5t-97.5 -26.5t-80 -69t-62.5 -96t-45 -108.5 t-27 -106.5t-9 -88.5zM884 23q5 58 2 130t-12 150.5t-22 160.5l-25 164l-25 156q-12 75 -20 139q4 6 45.5 14.5t102.5 17.5t133.5 17.5t139.5 15.5t119.5 11.5t74.5 4.5q0 -20 -10.5 -37t-26 -30.5t-34 -23t-34.5 -13.5q-15 -4 -47 -6.5t-72.5 -4.5t-86 -3.5t-86 -3t-73 -4 t-46.5 -5.5l23 -292h512q14 0 20.5 -13t6.5 -24q7 -13 1 -23t-19 -16.5t-29.5 -8.5t-28.5 0h-436q-3 -15 -1.5 -45t4.5 -68t8 -79l10 -80l8 -70l6 -49q47 -25 97.5 -32t101 -4.5t98 10t88 11.5t70.5 1t46 -21q0 -28 -17 -43.5t-42 -22.5t-53 -8t-50 -1q-6 0 -19.5 0.5 t-15.5 0.5q-26 4 -63 5.5t-77 2.5h-82q-40 1 -74.5 2.5t-58.5 5t-31 11.5z" />
<glyph unicode="&#xc7;" horiz-adv-x="866" d="M35 541q0 67 11.5 136.5t35 134t59 121.5t84 99.5t109.5 67t136 24.5h50q22 0 41.5 -4.5t39.5 -15t46 -31.5q17 -13 41 -35l49 -45q25 -24 47 -49.5t35 -47t14 -37.5t-16 -22q-36 0 -65 17.5t-54.5 43.5t-50.5 57t-53.5 57t-62.5 43.5t-79 17.5q-99 -28 -169 -94.5 t-109.5 -155t-49.5 -190t12.5 -198t76.5 -179t141 -134.5q60 -16 122 -25.5t120.5 -2.5t109 35.5t87.5 90.5q20 -7 23 -19.5t3 -28.5q0 -39 -18 -67t-47.5 -47t-66.5 -30.5t-75.5 -18t-74.5 -8.5t-63 -2q-66 0 -124.5 23.5t-107 64t-87 94.5t-65.5 114t-41 123.5t-14 122.5z M343 -395q16 0 45.5 -2.5t63.5 -4.5t69 -2t63.5 4.5t46.5 15t18 30.5q0 19 -9.5 28.5t-26.5 13.5l-219 48l-25 25q0 2 -0.5 12t-0.5 23l-2 24v20q-7 63 6.5 111t34 76.5t42 35t29.5 -14t-4 -70.5t-57 -134v-6q0 -2 1 -4l244 -73q20 -6 32 -16t18 -22.5t8 -27t2 -29.5 q0 -35 -18.5 -58.5t-49 -38t-69.5 -22.5t-81 -11t-83.5 -3.5t-76.5 -0.5z" />
<glyph unicode="&#xc8;" horiz-adv-x="768" d="M139 27q5 58 2 130t-12 150.5t-21 160.5l-26 164l-25 156q-12 75 -20 139q4 6 45.5 14.5t102.5 17.5t133.5 17.5t139.5 15.5t119.5 11.5t74.5 4.5q0 -20 -10.5 -37t-26 -30.5t-34 -23t-34.5 -13.5q-15 -4 -47 -6.5t-72.5 -4.5t-86 -3.5t-86 -3t-73 -4t-46.5 -5.5l23 -292 h512q14 0 20.5 -13t6.5 -24q7 -13 1 -23t-19 -16.5t-29.5 -8.5t-28.5 0h-436q-3 -15 -1.5 -45t4.5 -68t8 -79l9 -80l9 -70l6 -49q47 -25 97.5 -32t101 -4.5t98 10t88 11.5t70.5 1t46 -21q0 -28 -17 -43.5t-42 -22.5t-53 -8t-50 -1q-6 0 -19.5 0.5t-15.5 0.5q-26 4 -63 5.5 t-78 2.5h-80q-41 1 -75.5 2.5t-58.5 5t-31 11.5zM128 1254l20 -6l52 -16l71 -24l81 -28l78 -26l64 -22q12 -4 26 -10.5t26 -15.5t20 -20.5t8 -26.5h-55q-1 0 -20 7l-49 16l-67 24l-75 26l-72 27l-59 22q-20 8 -40 19t-33 30z" />
<glyph unicode="&#xc9;" horiz-adv-x="768" d="M139 27q5 58 2 130t-12 150.5t-21 160.5l-26 164l-25 156q-12 75 -20 139q4 6 45.5 14.5t102.5 17.5t133.5 17.5t139.5 15.5t119.5 11.5t74.5 4.5q0 -20 -10.5 -37t-26 -30.5t-34 -23t-34.5 -13.5q-15 -4 -47 -6.5t-72.5 -4.5t-86 -3.5t-86 -3t-73 -4t-46.5 -5.5l23 -292 h512q14 0 20.5 -13t6.5 -24q7 -13 1 -23t-19 -16.5t-29.5 -8.5t-28.5 0h-436q-3 -15 -1.5 -45t4.5 -68t8 -79l9 -80l9 -70l6 -49q47 -25 97.5 -32t101 -4.5t98 10t88 11.5t70.5 1t46 -21q0 -28 -17 -43.5t-42 -22.5t-53 -8t-50 -1q-6 0 -19.5 0.5t-15.5 0.5q-26 4 -63 5.5 t-78 2.5h-80q-41 1 -75.5 2.5t-58.5 5t-31 11.5zM529 1177q7 0 18 0.5t22 -1.5t20.5 -7.5t12.5 -18.5q-52 -32 -113 -55.5t-125 -39.5t-128 -24t-122 -8v54q0 1 19.5 7.5t50.5 15.5l72 20l80 20l78 19q38 9 66 15q1 1 7 1.5t13.5 1t15.5 0.5h13z" />
<glyph unicode="&#xca;" horiz-adv-x="768" d="M139 27q5 58 2 130t-12 150.5t-21 160.5l-26 164l-25 156q-12 75 -20 139q4 6 45.5 14.5t102.5 17.5t133.5 17.5t139.5 15.5t119.5 11.5t74.5 4.5q0 -20 -10.5 -37t-26 -30.5t-34 -23t-34.5 -13.5q-15 -4 -47 -6.5t-72.5 -4.5t-86 -3.5t-86 -3t-73 -4t-46.5 -5.5l23 -292 h512q14 0 20.5 -13t6.5 -24q7 -13 1 -23t-19 -16.5t-29.5 -8.5t-28.5 0h-436q-3 -15 -1.5 -45t4.5 -68t8 -79l9 -80l9 -70l6 -49q47 -25 97.5 -32t101 -4.5t98 10t88 11.5t70.5 1t46 -21q0 -28 -17 -43.5t-42 -22.5t-53 -8t-50 -1q-6 0 -19.5 0.5t-15.5 0.5q-26 4 -63 5.5 t-78 2.5h-80q-41 1 -75.5 2.5t-58.5 5t-31 11.5zM304 1330q2 0 6.5 -0.5t5.5 -1.5l219 -220v-39q-32 0 -64.5 22.5t-63.5 53.5l-60 62q-29 31 -56 48q-4 -2 -13 -11.5t-11 -13.5q-5 -8 -15 -28l-22 -44l-22 -44l-14 -30h-54q0 11 7 34t19 50.5t27.5 56t34 52t38 38.5 t38.5 15z" />
<glyph unicode="&#xcb;" horiz-adv-x="768" d="M139 27q5 58 2 130t-12 150.5t-21 160.5l-26 164l-25 156q-12 75 -20 139q4 6 45.5 14.5t102.5 17.5t133.5 17.5t139.5 15.5t119.5 11.5t74.5 4.5q0 -20 -10.5 -37t-26 -30.5t-34 -23t-34.5 -13.5q-15 -4 -47 -6.5t-72.5 -4.5t-86 -3.5t-86 -3t-73 -4t-46.5 -5.5l23 -292 h512q14 0 20.5 -13t6.5 -24q7 -13 1 -23t-19 -16.5t-29.5 -8.5t-28.5 0h-436q-3 -15 -1.5 -45t4.5 -68t8 -79l9 -80l9 -70l6 -49q47 -25 97.5 -32t101 -4.5t98 10t88 11.5t70.5 1t46 -21q0 -28 -17 -43.5t-42 -22.5t-53 -8t-50 -1q-6 0 -19.5 0.5t-15.5 0.5q-26 4 -63 5.5 t-78 2.5h-80q-41 1 -75.5 2.5t-58.5 5t-31 11.5zM104 1139q-4 25 5.5 47.5t26 39.5t38 27.5t42.5 10.5q23 0 43 -8.5t35 -23.5t23.5 -35t8.5 -43q0 -25 -9.5 -42t-25.5 -27.5t-37 -15.5t-44 -5q-17 0 -34 2.5t-32 10.5t-25.5 22.5t-14.5 39.5zM421 1139q0 23 8.5 45.5 t23.5 40.5t35 29t43 11t43.5 -11.5t35.5 -29.5t23.5 -40.5t8.5 -45.5q0 -21 -11 -35t-27.5 -22.5t-36 -12t-36.5 -3.5t-36 3.5t-35.5 12t-27.5 22.5t-11 36z" />
<glyph unicode="&#xcc;" horiz-adv-x="573" d="M170 24q-1 3 -3 12.5t-2 12.5q0 22 12.5 29t30 11t34.5 9.5t26 23.5v26q0 19 0.5 40.5t0.5 40.5v27q0 28 -1 71t-2.5 93.5t-4 106t-5.5 109t-7 102t-8.5 85t-10 58t-11.5 21.5h-195v49q52 7 97 12.5t87.5 8.5t85.5 4.5t91 1.5h21q13 0 25.5 -0.5t21.5 -1t10 -0.5l24 -25 l-170 -73v-10v-14q0 -12 2 -48l5 -82l5 -102l5 -102l5 -82q2 -36 2 -48v-24v-44q0 -25 -0.5 -53.5t-0.5 -53.5v-44q0 -19 1 -25q0 -5 3 -13t7 -15.5t8 -13.5t6 -6l171 -49v-51h-14h-22l-22 2h-15q-11 1 -34 2.5l-52 3.5l-61 6l-60 4l-52 5zM64 1270l20 -6l52 -16l71 -24 l81 -28l78 -26l64 -22q12 -4 26 -10.5t26 -15.5t20 -20.5t8 -26.5h-55q-1 0 -20 7l-49 16l-67 24l-75 26l-72 27l-59 22q-20 8 -40 19t-33 30z" />
<glyph unicode="&#xcd;" horiz-adv-x="573" d="M170 24q-1 3 -3 12.5t-2 12.5q0 22 12.5 29t30 11t34.5 9.5t26 23.5v26q0 19 0.5 40.5t0.5 40.5v27q0 28 -1 71t-2.5 93.5t-4 106t-5.5 109t-7 102t-8.5 85t-10 58t-11.5 21.5h-195v49q52 7 97 12.5t87.5 8.5t85.5 4.5t91 1.5h21q13 0 25.5 -0.5t21.5 -1t10 -0.5l24 -25 l-170 -73v-10v-14q0 -12 2 -48l5 -82l5 -102l5 -102l5 -82q2 -36 2 -48v-24v-44q0 -25 -0.5 -53.5t-0.5 -53.5v-44q0 -19 1 -25q0 -5 3 -13t7 -15.5t8 -13.5t6 -6l171 -49v-51h-14h-22l-22 2h-15q-11 1 -34 2.5l-52 3.5l-61 6l-60 4l-52 5zM428 1167q7 0 18 0.5t22 -1.5 t20.5 -7.5t12.5 -18.5q-52 -32 -113 -55.5t-125 -39.5t-128 -24t-122 -8v54q0 1 19.5 7.5t51.5 15.5l71 20l81 20l78 19q37 9 65 15q1 1 7 1.5t13.5 1t15.5 0.5h13z" />
<glyph unicode="&#xce;" horiz-adv-x="573" d="M170 24q-1 3 -3 12.5t-2 12.5q0 22 12.5 29t30 11t34.5 9.5t26 23.5v26q0 19 0.5 40.5t0.5 40.5v27q0 28 -1 71t-2.5 93.5t-4 106t-5.5 109t-7 102t-8.5 85t-10 58t-11.5 21.5h-195v49q52 7 97 12.5t87.5 8.5t85.5 4.5t91 1.5h21q13 0 25.5 -0.5t21.5 -1t10 -0.5l24 -25 l-170 -73v-10v-14q0 -12 2 -48l5 -82l5 -102l5 -102l5 -82q2 -36 2 -48v-24v-44q0 -25 -0.5 -53.5t-0.5 -53.5v-44q0 -19 1 -25q0 -5 3 -13t7 -15.5t8 -13.5t6 -6l171 -49v-51h-14h-22l-22 2h-15q-11 1 -34 2.5l-52 3.5l-61 6l-60 4l-52 5zM248 1264q2 0 6.5 -0.5t5.5 -1.5 l219 -220v-39q-32 0 -64.5 22.5t-63.5 53.5l-60 62q-29 31 -56 48q-4 -2 -13 -11.5t-11 -13.5q-5 -8 -15 -28l-22 -44l-22 -44l-14 -30h-54q0 11 7 34t19 50.5t27.5 56t34 52t38 38.5t38.5 15z" />
<glyph unicode="&#xcf;" horiz-adv-x="573" d="M170 24q-1 3 -3 12.5t-2 12.5q0 22 12.5 29t30 11t34.5 9.5t26 23.5v26q0 19 0.5 40.5t0.5 40.5v27q0 28 -1 71t-2.5 93.5t-4 106t-5.5 109t-7 102t-8.5 85t-10 58t-11.5 21.5h-195v49q52 7 97 12.5t87.5 8.5t85.5 4.5t91 1.5h21q13 0 25.5 -0.5t21.5 -1t10 -0.5l24 -25 l-170 -73v-10v-14q0 -12 2 -48l5 -82l5 -102l5 -102l5 -82q2 -36 2 -48v-24v-44q0 -25 -0.5 -53.5t-0.5 -53.5v-44q0 -19 1 -25q0 -5 3 -13t7 -15.5t8 -13.5t6 -6l171 -49v-51h-14h-22l-22 2h-15q-11 1 -34 2.5l-52 3.5l-61 6l-60 4l-52 5zM18 1113q-4 25 5.5 47.5t26 39.5 t38 27.5t42.5 10.5q23 0 43 -8.5t35 -23.5t23.5 -35t8.5 -43q0 -25 -9.5 -42t-25.5 -27.5t-37 -15.5t-44 -5q-17 0 -34 2.5t-32 10.5t-25.5 22.5t-14.5 39.5zM335 1113q0 23 8.5 45.5t23.5 40.5t35 29t43 11t43.5 -11.5t35.5 -29.5t23.5 -40.5t8.5 -45.5q0 -21 -11 -35 t-27.5 -22.5t-36 -12t-36.5 -3.5t-36 3.5t-35.5 12t-27.5 22.5t-11 36z" />
<glyph unicode="&#xd0;" horiz-adv-x="951" d="M61 73q22 82 19.5 181t-14.5 203l-23 207q-11 103 -7 193q0 27 28 48.5t71 37.5t95.5 27.5t101.5 18.5t88 10t56 3q56 2 110 -16t101.5 -50t88 -76t70.5 -95t48 -106t22 -109q0 -77 -18.5 -151.5t-53 -143t-84.5 -127.5t-113 -104q-49 -6 -90.5 -10.5t-81 -7.5t-79 -5 t-82.5 -2q-138 0 -253 74zM159 122q15 -23 36.5 -34t45.5 -15t49 -3t49 1q120 0 214 28t158.5 86.5t98.5 149t34 216.5q1 77 -30.5 149.5t-87 126.5t-129.5 84t-158 21q-49 0 -89 -1t-78 -8.5t-77 -23.5t-85 -45v-25v-24q2 -26 5.5 -79.5t8.5 -121.5l11 -141l10 -142 q5 -67 8.5 -120.5t5.5 -78.5zM-47 498q4 7 13.5 15.5t20.5 16t21.5 12.5t17.5 5h276q0 -3 -1 -15t-4 -24.5t-9.5 -23t-17.5 -10.5h-293z" />
<glyph unicode="&#xd1;" horiz-adv-x="963" d="M159 24q-55 91 -86.5 196.5t-47 215.5t-19.5 219.5t-4 210.5q95 0 173.5 -31.5t146 -83t126.5 -117t115 -134.5l112 -136q56 -67 118 -120q31 78 44 163t16 172t0 173.5t-3 168.5q1 0 11 -2t21 -5t20.5 -6t11.5 -4q2 -2 2.5 -9t-0.5 -15v-16q-1 -7 -1 -10q0 -10 1 -36 t2 -55v-55q1 -27 1 -37q0 -20 -3 -70.5t-8.5 -114.5t-15 -133t-22 -126.5t-29 -94.5t-36.5 -37q-2 0 -6.5 0.5t-5.5 2.5q-56 70 -105 138l-99 134q-49 65 -99.5 124.5t-107.5 112t-124 96.5t-148 77q0 -11 -1 -40l-2 -63t-1.5 -62.5t-0.5 -41.5q-13 -159 20.5 -300 t117.5 -280h-21q-12 0 -25 3t-23.5 9.5t-14.5 18.5zM235 1152q-54 0 -87.5 -17t-52 -48t-25.5 -73t-7 -92q-19 0 -30 6.5t-17 17.5t-7.5 25.5t-1.5 30.5q0 47 13.5 88.5t40 72.5t65.5 49t89 18q5 0 17 -1l26 -2q14 -1 26 -2.5t17 -2.5q29 -23 52.5 -53.5t44.5 -63.5l44 -65 q21 -32 47 -57t58.5 -40.5t75.5 -15.5q38 0 62 18.5t40.5 46t28 60t25.5 60t33 46t50 18.5q2 0 11.5 -1.5t12.5 -1.5q-6 -56 -27 -116.5t-56 -110.5t-85 -82.5t-114 -32.5q-50 0 -89 24t-71 59.5t-58 77.5l-51 76q-24 36 -48.5 60t-51.5 24z" />
<glyph unicode="&#xd2;" horiz-adv-x="902" d="M33 389q0 66 13 137.5t38.5 139.5t64 129t89 107t113 73t137.5 27q103 0 175.5 -41.5t117.5 -109.5t65.5 -156.5t20.5 -182.5v-10q0 -6 -0.5 -14t-0.5 -15v-10q-34 -87 -76 -171t-99.5 -149t-134 -105t-179.5 -40q-74 0 -136.5 35t-109 91.5t-72.5 126t-26 138.5z M109 389q0 -55 18 -111.5t52 -102.5t82.5 -75t109.5 -29q28 0 69.5 4.5t82.5 15.5t75.5 30.5t48.5 49.5l146 317l1 6q0 7 0.5 15t1 17t0.5 14q0 43 -7 90t-22 93t-38.5 87t-56.5 72.5t-75.5 50t-96.5 18.5q-31 0 -54 -9t-41.5 -23t-33.5 -31.5t-31.5 -33.5t-36.5 -29.5 t-46 -19.5l-58 -103q-27 -50 -47 -99.5t-31.5 -101.5t-11.5 -112zM271 1249l20 -6q20 -6 51 -17l72 -24l80 -26l78 -27l65 -22q12 -4 26 -10.5t26 -15.5t20 -20.5t8 -26.5h-55q-1 0 -20 6l-49 18l-67 23l-74 27l-73 26l-59 22q-20 8 -40 19t-33 30z" />
<glyph unicode="&#xd3;" horiz-adv-x="902" d="M33 389q0 66 13 137.5t38.5 139.5t64 129t89 107t113 73t137.5 27q103 0 175.5 -41.5t117.5 -109.5t65.5 -156.5t20.5 -182.5v-10q0 -6 -0.5 -14t-0.5 -15v-10q-34 -87 -76 -171t-99.5 -149t-134 -105t-179.5 -40q-74 0 -136.5 35t-109 91.5t-72.5 126t-26 138.5z M109 389q0 -55 18 -111.5t52 -102.5t82.5 -75t109.5 -29q28 0 69.5 4.5t82.5 15.5t75.5 30.5t48.5 49.5l146 317l1 6q0 7 0.5 15t1 17t0.5 14q0 43 -7 90t-22 93t-38.5 87t-56.5 72.5t-75.5 50t-96.5 18.5q-31 0 -54 -9t-41.5 -23t-33.5 -31.5t-31.5 -33.5t-36.5 -29.5 t-46 -19.5l-58 -103q-27 -50 -47 -99.5t-31.5 -101.5t-11.5 -112zM596 1177q7 0 18 0.5t22 -1.5t20.5 -7.5t12.5 -18.5q-52 -32 -113 -55.5t-125 -39.5t-128 -24t-122 -8v54q0 1 19.5 7.5t51.5 15.5l71 20l81 20l78 19q37 9 65 15q1 1 7 1.5t13.5 1t15.5 0.5h13z" />
<glyph unicode="&#xd4;" horiz-adv-x="902" d="M33 389q0 66 13 137.5t38.5 139.5t64 129t89 107t113 73t137.5 27q103 0 175.5 -41.5t117.5 -109.5t65.5 -156.5t20.5 -182.5v-10q0 -6 -0.5 -14t-0.5 -15v-10q-34 -87 -76 -171t-99.5 -149t-134 -105t-179.5 -40q-74 0 -136.5 35t-109 91.5t-72.5 126t-26 138.5z M109 389q0 -55 18 -111.5t52 -102.5t82.5 -75t109.5 -29q28 0 69.5 4.5t82.5 15.5t75.5 30.5t48.5 49.5l146 317l1 6q0 7 0.5 15t1 17t0.5 14q0 43 -7 90t-22 93t-38.5 87t-56.5 72.5t-75.5 50t-96.5 18.5q-31 0 -54 -9t-41.5 -23t-33.5 -31.5t-31.5 -33.5t-36.5 -29.5 t-46 -19.5l-58 -103q-27 -50 -47 -99.5t-31.5 -101.5t-11.5 -112zM427 1284q2 0 6.5 -0.5t5.5 -1.5l219 -220v-39q-32 0 -64.5 22.5t-63.5 53.5l-60 62q-29 31 -56 48q-4 -2 -13 -11.5t-11 -13.5q-5 -8 -16 -28l-22 -44l-21 -44l-14 -30h-54q0 11 7 34t19 50.5t27.5 56 t34 52t38 38.5t38.5 15z" />
<glyph unicode="&#xd5;" horiz-adv-x="902" d="M33 389q0 66 13 137.5t38.5 139.5t64 129t89 107t113 73t137.5 27q103 0 175.5 -41.5t117.5 -109.5t65.5 -156.5t20.5 -182.5v-10q0 -6 -0.5 -14t-0.5 -15v-10q-34 -87 -76 -171t-99.5 -149t-134 -105t-179.5 -40q-74 0 -136.5 35t-109 91.5t-72.5 126t-26 138.5z M109 389q0 -55 18 -111.5t52 -102.5t82.5 -75t109.5 -29q28 0 69.5 4.5t82.5 15.5t75.5 30.5t48.5 49.5l146 317l1 6q0 7 0.5 15t1 17t0.5 14q0 43 -7 90t-22 93t-38.5 87t-56.5 72.5t-75.5 50t-96.5 18.5q-31 0 -54 -9t-41.5 -23t-33.5 -31.5t-31.5 -33.5t-36.5 -29.5 t-46 -19.5l-58 -103q-27 -50 -47 -99.5t-31.5 -101.5t-11.5 -112zM286 1355q-54 0 -87.5 -17t-52 -48t-25.5 -73t-7 -92q-19 0 -30 6.5t-17 17.5t-7.5 25.5t-1.5 30.5q0 47 13.5 88.5t40 72.5t65.5 49t89 18q5 0 18 -1l26 -2q13 -1 25 -2.5t17 -2.5q29 -23 52.5 -53.5 t45.5 -63.5l42 -65q22 -32 48 -57t58.5 -40.5t75.5 -15.5q38 0 62 18.5t40.5 46t28 60t25.5 60t33 46t50 18.5q2 0 11.5 -1.5t12.5 -1.5q-6 -56 -27 -116.5t-56 -110.5t-85 -82.5t-114 -32.5q-50 0 -89 24t-71 59.5t-59 76.5l-50 78q-24 35 -48.5 59t-51.5 24z" />
<glyph unicode="&#xd6;" horiz-adv-x="902" d="M33 389q0 66 13 137.5t38.5 139.5t64 129t89 107t113 73t137.5 27q103 0 175.5 -41.5t117.5 -109.5t65.5 -156.5t20.5 -182.5v-10q0 -6 -0.5 -14t-0.5 -15v-10q-34 -87 -76 -171t-99.5 -149t-134 -105t-179.5 -40q-74 0 -136.5 35t-109 91.5t-72.5 126t-26 138.5z M109 389q0 -55 18 -111.5t52 -102.5t82.5 -75t109.5 -29q28 0 69.5 4.5t82.5 15.5t75.5 30.5t48.5 49.5l146 317l1 6q0 7 0.5 15t1 17t0.5 14q0 43 -7 90t-22 93t-38.5 87t-56.5 72.5t-75.5 50t-96.5 18.5q-31 0 -54 -9t-41.5 -23t-33.5 -31.5t-31.5 -33.5t-36.5 -29.5 t-46 -19.5l-58 -103q-27 -50 -47 -99.5t-31.5 -101.5t-11.5 -112zM182 1103q-4 25 5.5 47.5t26 39.5t38 27.5t42.5 10.5q23 0 43 -8.5t35 -23.5t23.5 -35t8.5 -43q0 -25 -9.5 -42t-25.5 -27.5t-37 -15.5t-44 -5q-17 0 -34 2.5t-32 10.5t-25.5 22.5t-14.5 39.5zM499 1103 q0 23 8.5 45.5t23.5 40.5t35 29t43 11t43.5 -11.5t35.5 -29.5t23.5 -40.5t8.5 -45.5q0 -21 -11 -35t-27.5 -22.5t-36 -12t-36.5 -3.5t-36 3.5t-35.5 12t-27.5 22.5t-11 36z" />
<glyph unicode="&#xd8;" horiz-adv-x="902" d="M33 389q0 66 13 137.5t38.5 139.5t64 129t89 107t113 73t137.5 27q103 0 175.5 -41.5t117.5 -109.5t65.5 -156.5t20.5 -182.5v-10q0 -6 -0.5 -14t-0.5 -15v-10q-34 -87 -76 -171t-99.5 -149t-134 -105t-179.5 -40q-74 0 -136.5 35t-109 91.5t-72.5 126t-26 138.5z M109 389q0 -55 18 -111.5t52 -102.5t82.5 -75t109.5 -29q28 0 69.5 4.5t82.5 15.5t75.5 30.5t48.5 49.5l146 317l1 6q0 7 0.5 15t1 17t0.5 14q0 43 -7 90t-22 93t-38.5 87t-56.5 72.5t-75.5 50t-96.5 18.5q-31 0 -54 -9t-41.5 -23t-33.5 -31.5t-31.5 -33.5t-36.5 -29.5 t-46 -19.5l-58 -103q-27 -50 -47 -99.5t-31.5 -101.5t-11.5 -112zM646 882l19 37q10 19 23 33t30.5 23t41.5 9v-74l-456 -910h-84z" />
<glyph unicode="&#xd9;" horiz-adv-x="915" d="M22 639v55q0 39 3 87t9.5 100t19 95t32 70.5t48.5 27.5q13 0 21 -5.5t15 -19.5q-31 -48 -47 -89t-23 -81.5t-7.5 -84t-0.5 -94.5q0 -73 2.5 -131t11 -114.5t23.5 -118.5t41 -141q56 -70 124.5 -96.5t157.5 -26.5q79 0 142.5 34t109.5 89.5t71.5 125.5t28.5 142 q1 19 1.5 59.5t0.5 91.5v106v106q0 50 -0.5 90.5t-1.5 59.5l25 24l24 -24q0 -1 1 -24l4 -62q3 -38 5.5 -85.5t5.5 -96t5 -94t4 -77.5v-26q0 -61 -12 -122.5t-35 -118.5t-58 -107t-81 -86.5t-103 -57.5t-124 -21q-98 0 -168.5 23.5t-120 65.5t-79.5 101t-47 130t-22.5 152.5 t-5.5 168.5zM246 1238l20 -6l52 -16l71 -24l81 -28l78 -26l64 -22q12 -4 26 -10.5t26 -15.5t20 -20.5t8 -26.5h-55q-1 0 -20 7l-49 16l-67 24l-75 26l-72 27l-59 22q-20 8 -40 19t-33 30z" />
<glyph unicode="&#xda;" horiz-adv-x="915" d="M22 639v55q0 39 3 87t9.5 100t19 95t32 70.5t48.5 27.5q13 0 21 -5.5t15 -19.5q-31 -48 -47 -89t-23 -81.5t-7.5 -84t-0.5 -94.5q0 -73 2.5 -131t11 -114.5t23.5 -118.5t41 -141q56 -70 124.5 -96.5t157.5 -26.5q79 0 142.5 34t109.5 89.5t71.5 125.5t28.5 142 q1 19 1.5 59.5t0.5 91.5v106v106q0 50 -0.5 90.5t-1.5 59.5l25 24l24 -24q0 -1 1 -24l4 -62q3 -38 5.5 -85.5t5.5 -96t5 -94t4 -77.5v-26q0 -61 -12 -122.5t-35 -118.5t-58 -107t-81 -86.5t-103 -57.5t-124 -21q-98 0 -168.5 23.5t-120 65.5t-79.5 101t-47 130t-22.5 152.5 t-5.5 168.5zM679 1274q7 0 18 0.5t22 -1.5t20.5 -7.5t12.5 -18.5q-52 -32 -113 -55.5t-125 -39.5t-128 -24t-122 -8v54q0 1 19.5 7.5t50.5 15.5l72 19l80 21l78 19q38 9 66 15q1 1 7 1.5t13.5 1t15.5 0.5h13z" />
<glyph unicode="&#xdb;" horiz-adv-x="915" d="M22 639v55q0 39 3 87t9.5 100t19 95t32 70.5t48.5 27.5q13 0 21 -5.5t15 -19.5q-31 -48 -47 -89t-23 -81.5t-7.5 -84t-0.5 -94.5q0 -73 2.5 -131t11 -114.5t23.5 -118.5t41 -141q56 -70 124.5 -96.5t157.5 -26.5q79 0 142.5 34t109.5 89.5t71.5 125.5t28.5 142 q1 19 1.5 59.5t0.5 91.5v106v106q0 50 -0.5 90.5t-1.5 59.5l25 24l24 -24q0 -1 1 -24l4 -62q3 -38 5.5 -85.5t5.5 -96t5 -94t4 -77.5v-26q0 -61 -12 -122.5t-35 -118.5t-58 -107t-81 -86.5t-103 -57.5t-124 -21q-98 0 -168.5 23.5t-120 65.5t-79.5 101t-47 130t-22.5 152.5 t-5.5 168.5zM475 1350q2 0 6.5 -0.5t5.5 -1.5l219 -220v-39q-32 0 -64.5 22.5t-63.5 53.5l-60 62q-29 31 -56 48q-4 -2 -13 -11.5t-11 -13.5q-5 -8 -16 -28l-22 -44l-21 -44l-14 -30h-54q0 11 7 34t19 50.5t27.5 56t34 52t38 38.5t38.5 15z" />
<glyph unicode="&#xdc;" horiz-adv-x="915" d="M22 639v55q0 39 3 87t9.5 100t19 95t32 70.5t48.5 27.5q13 0 21 -5.5t15 -19.5q-31 -48 -47 -89t-23 -81.5t-7.5 -84t-0.5 -94.5q0 -73 2.5 -131t11 -114.5t23.5 -118.5t41 -141q56 -70 124.5 -96.5t157.5 -26.5q79 0 142.5 34t109.5 89.5t71.5 125.5t28.5 142 q1 19 1.5 59.5t0.5 91.5v106v106q0 50 -0.5 90.5t-1.5 59.5l25 24l24 -24q0 -1 1 -24l4 -62q3 -38 5.5 -85.5t5.5 -96t5 -94t4 -77.5v-26q0 -61 -12 -122.5t-35 -118.5t-58 -107t-81 -86.5t-103 -57.5t-124 -21q-98 0 -168.5 23.5t-120 65.5t-79.5 101t-47 130t-22.5 152.5 t-5.5 168.5zM254 1184q-4 25 5.5 47.5t26 39.5t38 27.5t42.5 10.5q23 0 43 -8.5t35 -23.5t23.5 -35t8.5 -43q0 -25 -9.5 -42t-25.5 -27.5t-37 -15.5t-44 -5q-17 0 -34 2.5t-32 10.5t-25.5 22.5t-14.5 39.5zM571 1184q0 23 8.5 45.5t23.5 40.5t35 29t43 11t43.5 -11.5 t35.5 -29.5t23.5 -40.5t8.5 -45.5q0 -21 -11 -35t-27.5 -22.5t-36 -12t-36.5 -3.5t-36 3.5t-35.5 12t-27.5 22.5t-11 36z" />
<glyph unicode="&#xdd;" horiz-adv-x="1000" d="M365 -134q0 1 -0.5 5.5t-0.5 6.5q0 16 10.5 27t26.5 11q15 0 28.5 -4t27 -9.5t27 -9.5t28.5 -4q73 0 128.5 26t96.5 70.5t69 102t44.5 121t23.5 128.5t7 123q0 15 -1 41v51q-1 26 -2 46v24q-3 33 -10 83t-15 96.5t-14.5 80t-9.5 33.5h-25q-13 -78 -46 -149t-85 -125 t-122.5 -86t-159.5 -32q-71 0 -126 22t-96 60t-69 89t-45.5 108.5t-25 119t-7.5 121.5q0 16 2 45t6.5 64t12.5 71t20.5 65.5t29.5 48t41 18.5q13 0 21 -5.5t15 -20.5q-22 -45 -33 -85.5t-15 -81.5t-4 -84v-90v-34q1 -24 1.5 -51.5t0.5 -51.5q1 -24 2 -34q9 -33 27 -64 t41.5 -59t49.5 -52.5t52 -44.5q4 0 18 -0.5t19 -0.5q127 0 213 50.5t136.5 133t68.5 188t9 215.5l24 24q4 -2 13 -11t11 -13q45 -91 74 -175.5t45.5 -170t23 -175.5t6.5 -190q0 -75 -8 -153t-28 -151t-53.5 -137.5t-84 -112t-120 -75.5t-161.5 -28q-20 0 -35.5 2t-30.5 7.5 t-30.5 15.5t-36.5 26zM691 1544q7 0 18 0.5t22 -1.5t20.5 -7.5t12.5 -18.5q-52 -32 -113 -55.5t-125 -39.5t-128 -24t-122 -8v54q0 1 19.5 7.5t50.5 15.5l72 19l80 21l78 19q38 9 66 15q1 1 7 1.5t13.5 1t15.5 0.5h13z" />
<glyph unicode="&#xe0;" horiz-adv-x="780" d="M105 199q0 55 19 91.5t50 59.5t71.5 34.5t84 16.5t86.5 5h80q0 40 -10.5 88.5t-33 90.5t-58.5 70.5t-87 28.5q-54 0 -86.5 -15t-51.5 -37.5t-30.5 -48.5t-24.5 -48.5t-32.5 -37.5t-54.5 -15q0 73 21.5 125.5t61 86.5t95 49.5t123.5 15.5q48 0 83 -16t61 -42.5t44 -61.5 t32 -73t25.5 -77t24.5 -74q16 -45 42 -85l52 -80q25 -41 43.5 -84t18.5 -93h-58l-74 122q-9 -39 -37 -75t-66 -63t-80.5 -43t-81.5 -16q-46 0 -91 13t-81 38.5t-58 63t-22 86.5zM181 210q0 -40 16 -66.5t42.5 -43t60.5 -23.5t70 -7t65 14.5t49 38.5t31 56t11 67 q0 27 -15.5 45.5t-38.5 30t-49 17t-47 5.5q-28 0 -62 -8.5t-63.5 -25.5t-49.5 -42t-20 -58zM159 991l20 -6q20 -6 51 -17l72 -24l80 -26l78 -27l65 -22q12 -4 26 -10.5t26 -15.5t20 -20.5t8 -26.5h-55q-1 0 -20 6l-49 18l-67 23l-74 27l-73 26l-59 22q-20 8 -40 19t-33 30z " />
<glyph unicode="&#xe1;" horiz-adv-x="780" d="M105 199q0 55 19 91.5t50 59.5t71.5 34.5t84 16.5t86.5 5h80q0 40 -10.5 88.5t-33 90.5t-58.5 70.5t-87 28.5q-54 0 -86.5 -15t-51.5 -37.5t-30.5 -48.5t-24.5 -48.5t-32.5 -37.5t-54.5 -15q0 73 21.5 125.5t61 86.5t95 49.5t123.5 15.5q48 0 83 -16t61 -42.5t44 -61.5 t32 -73t25.5 -77t24.5 -74q16 -45 42 -85l52 -80q25 -41 43.5 -84t18.5 -93h-58l-74 122q-9 -39 -37 -75t-66 -63t-80.5 -43t-81.5 -16q-46 0 -91 13t-81 38.5t-58 63t-22 86.5zM181 210q0 -40 16 -66.5t42.5 -43t60.5 -23.5t70 -7t65 14.5t49 38.5t31 56t11 67 q0 27 -15.5 45.5t-38.5 30t-49 17t-47 5.5q-28 0 -62 -8.5t-63.5 -25.5t-49.5 -42t-20 -58zM479 996q7 0 18 0.5t22 -1.5t20.5 -7.5t12.5 -18.5q-52 -32 -113 -55.5t-125 -39.5t-128 -24t-122 -8v54q0 1 19.5 7.5t50.5 15.5l72 19l80 21l78 19q38 9 66 15q1 1 7 1.5t13.5 1 t15.5 0.5h13z" />
<glyph unicode="&#xe2;" horiz-adv-x="780" d="M105 199q0 55 19 91.5t50 59.5t71.5 34.5t84 16.5t86.5 5h80q0 40 -10.5 88.5t-33 90.5t-58.5 70.5t-87 28.5q-54 0 -86.5 -15t-51.5 -37.5t-30.5 -48.5t-24.5 -48.5t-32.5 -37.5t-54.5 -15q0 73 21.5 125.5t61 86.5t95 49.5t123.5 15.5q48 0 83 -16t61 -42.5t44 -61.5 t32 -73t25.5 -77t24.5 -74q16 -45 42 -85l52 -80q25 -41 43.5 -84t18.5 -93h-58l-74 122q-9 -39 -37 -75t-66 -63t-80.5 -43t-81.5 -16q-46 0 -91 13t-81 38.5t-58 63t-22 86.5zM181 210q0 -40 16 -66.5t42.5 -43t60.5 -23.5t70 -7t65 14.5t49 38.5t31 56t11 67 q0 27 -15.5 45.5t-38.5 30t-49 17t-47 5.5q-28 0 -62 -8.5t-63.5 -25.5t-49.5 -42t-20 -58zM264 1052q2 0 6.5 -0.5t5.5 -1.5l219 -220v-39q-32 0 -64.5 22.5t-63.5 53.5l-60 62q-29 31 -56 48q-4 -2 -13 -11.5t-11 -13.5q-5 -8 -15 -28l-22 -44l-22 -44l-14 -30h-54 q0 11 7 34t19 50.5t27.5 56t34 52t38 38.5t38.5 15z" />
<glyph unicode="&#xe3;" horiz-adv-x="780" d="M105 199q0 55 19 91.5t50 59.5t71.5 34.5t84 16.5t86.5 5h80q0 40 -10.5 88.5t-33 90.5t-58.5 70.5t-87 28.5q-54 0 -86.5 -15t-51.5 -37.5t-30.5 -48.5t-24.5 -48.5t-32.5 -37.5t-54.5 -15q0 73 21.5 125.5t61 86.5t95 49.5t123.5 15.5q48 0 83 -16t61 -42.5t44 -61.5 t32 -73t25.5 -77t24.5 -74q16 -45 42 -85l52 -80q25 -41 43.5 -84t18.5 -93h-58l-74 122q-9 -39 -37 -75t-66 -63t-80.5 -43t-81.5 -16q-46 0 -91 13t-81 38.5t-58 63t-22 86.5zM181 210q0 -40 16 -66.5t42.5 -43t60.5 -23.5t70 -7t65 14.5t49 38.5t31 56t11 67 q0 27 -15.5 45.5t-38.5 30t-49 17t-47 5.5q-28 0 -62 -8.5t-63.5 -25.5t-49.5 -42t-20 -58zM209 1112q-39 0 -63.5 -15.5t-37.5 -44t-18.5 -67.5t-5.5 -85q-13 0 -21 6t-12.5 16t-5.5 23.5t-1 28.5q0 43 10 81.5t29 67t47 45.5t64 17q4 0 13 -1l19 -2q9 -1 18 -2.5t12 -2.5 q21 -21 38 -49.5t33 -58.5l31 -60q15 -30 34 -53t42.5 -37.5t54.5 -14.5q27 0 44.5 17.5t29.5 42.5t20.5 55.5t18.5 55.5t23.5 42.5t36.5 17.5q1 0 8 -1.5t9 -1.5q-4 -52 -19.5 -108t-40.5 -102t-61 -76t-83 -30q-36 0 -64 22t-51 55t-43 71l-36 71q-17 33 -35 55t-37 22z " />
<glyph unicode="&#xe4;" horiz-adv-x="780" d="M105 199q0 55 19 91.5t50 59.5t71.5 34.5t84 16.5t86.5 5h80q0 40 -10.5 88.5t-33 90.5t-58.5 70.5t-87 28.5q-54 0 -86.5 -15t-51.5 -37.5t-30.5 -48.5t-24.5 -48.5t-32.5 -37.5t-54.5 -15q0 73 21.5 125.5t61 86.5t95 49.5t123.5 15.5q48 0 83 -16t61 -42.5t44 -61.5 t32 -73t25.5 -77t24.5 -74q16 -45 42 -85l52 -80q25 -41 43.5 -84t18.5 -93h-58l-74 122q-9 -39 -37 -75t-66 -63t-80.5 -43t-81.5 -16q-46 0 -91 13t-81 38.5t-58 63t-22 86.5zM181 210q0 -40 16 -66.5t42.5 -43t60.5 -23.5t70 -7t65 14.5t49 38.5t31 56t11 67 q0 27 -15.5 45.5t-38.5 30t-49 17t-47 5.5q-28 0 -62 -8.5t-63.5 -25.5t-49.5 -42t-20 -58zM34 865q-4 25 5.5 47.5t26 39.5t38 27.5t42.5 10.5q23 0 43 -8.5t35 -23.5t23.5 -35t8.5 -43q0 -25 -9.5 -42t-25.5 -27.5t-37 -15.5t-44 -5q-17 0 -34 2.5t-32 10.5t-25.5 22.5 t-14.5 39.5zM351 865q0 23 8.5 45.5t23.5 40.5t35 29t43 11t43.5 -11.5t35.5 -29.5t23.5 -40.5t8.5 -45.5q0 -21 -11 -35t-27.5 -22.5t-36 -12t-36.5 -3.5t-36 3.5t-35.5 12t-27.5 22.5t-11 36z" />
<glyph unicode="&#xe5;" horiz-adv-x="780" d="M105 199q0 55 19 91.5t50 59.5t71.5 34.5t84 16.5t86.5 5h80q0 40 -10.5 88.5t-33 90.5t-58.5 70.5t-87 28.5q-54 0 -86.5 -15t-51.5 -37.5t-30.5 -48.5t-24.5 -48.5t-32.5 -37.5t-54.5 -15q0 73 21.5 125.5t61 86.5t95 49.5t123.5 15.5q48 0 83 -16t61 -42.5t44 -61.5 t32 -73t25.5 -77t24.5 -74q16 -45 42 -85l52 -80q25 -41 43.5 -84t18.5 -93h-58l-74 122q-9 -39 -37 -75t-66 -63t-80.5 -43t-81.5 -16q-46 0 -91 13t-81 38.5t-58 63t-22 86.5zM181 210q0 -40 16 -66.5t42.5 -43t60.5 -23.5t70 -7t65 14.5t49 38.5t31 56t11 67 q0 27 -15.5 45.5t-38.5 30t-49 17t-47 5.5q-28 0 -62 -8.5t-63.5 -25.5t-49.5 -42t-20 -58zM199 870q0 66 25.5 96t90.5 30q25 0 49 -6.5t42 -20t29 -34t11 -49.5q0 -69 -42 -104.5t-108 -35.5q-56 0 -76.5 34.5t-20.5 89.5zM298 821h57q0 10 -0.5 27t-4.5 33t-13 27.5 t-27 11.5q-2 0 -6.5 -0.5t-5.5 -0.5v-98z" />
<glyph unicode="&#xe6;" horiz-adv-x="1137" d="M105 199q0 55 19 91.5t50 59.5t71.5 34.5t84 16.5t86.5 5h80q0 40 -10.5 88.5t-33 90.5t-58.5 70.5t-87 28.5q-54 0 -86.5 -15t-51.5 -37.5t-30.5 -48.5t-24.5 -48.5t-32.5 -37.5t-54.5 -15q0 73 21.5 125.5t61 86.5t95 49.5t123.5 15.5q48 0 83 -16t61 -42.5t44 -61.5 t32 -73t25.5 -77t24.5 -74q16 -45 42 -85l52 -80q25 -41 43.5 -84t18.5 -93h-58l-74 122q-9 -39 -37 -75t-66 -63t-80.5 -43t-81.5 -16q-46 0 -91 13t-81 38.5t-58 63t-22 86.5zM181 210q0 -40 16 -66.5t42.5 -43t60.5 -23.5t70 -7t65 14.5t49 38.5t31 56t11 67 q0 27 -15.5 45.5t-38.5 30t-49 17t-47 5.5q-28 0 -62 -8.5t-63.5 -25.5t-49.5 -42t-20 -58zM911 702q36 0 66.5 -15t52 -40.5t34 -59.5t12.5 -71t-21.5 -65.5t-55.5 -50.5t-75.5 -37.5t-82.5 -26.5t-76 -17.5t-56 -9.5q0 -4 -0.5 -18t-0.5 -19q0 -35 19 -58t50 -37 t70.5 -20.5t79.5 -9.5t77 -4.5t64 -4.5q0 -1 0.5 -5.5t0.5 -6.5q0 -13 -12 -22.5t-30 -16.5t-40.5 -12t-43 -7.5t-37 -3.5t-23.5 -1q-56 -3 -102.5 20.5t-80 65t-53 96.5t-23 113.5t11 116t49 105t90.5 80.5t136 42zM895 628q-41 0 -76 -21t-60.5 -54.5t-40 -74.5t-14.5 -80 q23 0 52.5 2.5t60 8.5t60.5 16t53 26t37 38t14 52q0 40 -23 63.5t-63 23.5z" />
<glyph unicode="&#xe7;" horiz-adv-x="561" d="M38 319q0 41 11.5 86.5t33 89.5t51 83.5t65.5 70t77.5 48t86.5 17.5h11q7 0 14 -0.5t12 -1.5h6q9 -5 27 -22l37 -36l36 -37q17 -18 22 -27q0 -2 0.5 -6.5t0.5 -6.5q0 -15 -11 -26t-27 -11q-12 0 -21.5 8.5t-17.5 20.5t-13.5 24.5t-8.5 20.5q-3 0 -11.5 0.5t-18.5 0.5 t-18.5 0.5t-12.5 0.5q-59 0 -103 -26t-73 -68t-44 -94t-15 -104q0 -81 42 -129.5t127 -48.5q33 0 61 9.5t54.5 21t53.5 21t59 9.5q0 -51 -28.5 -82t-70.5 -47t-89.5 -21t-84.5 -5q-44 0 -83.5 27t-70 67t-48.5 87t-18 86zM95 -340q16 0 45.5 -2.5t63.5 -4.5t69 -2t63.5 4.5 t46.5 15t18 30.5q0 19 -9.5 28.5t-26.5 13.5l-219 48l-25 25q0 2 -0.5 12t-0.5 22l-2 26v19q-7 63 6.5 111t34 76.5t42 35t29.5 -14t-4 -70.5t-57 -134v-6q0 -2 1 -4l244 -73q20 -6 32 -16t18 -22.5t8 -27t2 -29.5q0 -35 -18.5 -58.5t-49 -38t-69.5 -22.5t-81 -11 t-83.5 -3.5t-76.5 -0.5z" />
<glyph unicode="&#xe8;" horiz-adv-x="519" d="M304 626q36 0 66.5 -15t52 -40.5t34 -59.5t12.5 -71t-21.5 -65.5t-55.5 -50.5t-75.5 -37.5t-82.5 -26.5t-76 -17.5t-56 -9.5q0 -4 -0.5 -18t-0.5 -19q0 -35 19 -58t50 -37t70.5 -20.5t79.5 -9.5t77 -4.5t64 -4.5q0 -1 0.5 -5.5t0.5 -6.5q0 -13 -12 -22.5t-30 -16.5 t-40.5 -12t-43 -7.5t-37 -3.5t-23.5 -1q-56 -3 -102.5 20.5t-80 65t-53 96.5t-23 113.5t11 116t49 105t90.5 80.5t136 42zM288 552q-41 0 -76 -21t-60.5 -54.5t-40 -74.5t-14.5 -80q23 0 52.5 2.5t60 8.5t60.5 16t53 26t37 38t14 52q0 40 -23 63.5t-63 23.5zM48 837l20 -6 q20 -6 52 -17l71 -24l81 -26l78 -27l64 -22q12 -4 26 -10.5t26 -15.5t20 -20.5t8 -26.5h-55q-1 0 -20 6l-49 18l-67 23l-75 27l-72 26l-59 22q-20 8 -40 19t-33 30z" />
<glyph unicode="&#xe9;" horiz-adv-x="519" d="M314 696q36 0 66.5 -15t52 -40.5t34 -59.5t12.5 -71t-21.5 -65.5t-55.5 -50.5t-75.5 -37.5t-82.5 -26.5t-76 -17.5t-56 -9.5q0 -4 -0.5 -18t-0.5 -19q0 -35 19 -58t50 -37t70.5 -20.5t79.5 -9.5t77 -4.5t64 -4.5q0 -1 0.5 -5.5t0.5 -6.5q0 -13 -12 -22.5t-30 -16.5 t-40.5 -12t-43 -7.5t-37 -3.5t-23.5 -1q-56 -3 -102.5 20.5t-80 65t-53 96.5t-23 113.5t11 116t49 105t90.5 80.5t136 42zM298 622q-41 0 -76 -21t-60.5 -54.5t-40 -74.5t-14.5 -80q23 0 52.5 2.5t60 8.5t60.5 16t53 26t37 38t14 52q0 40 -23 63.5t-63 23.5zM442 873 q7 0 18 0.5t22 -1.5t20.5 -7.5t12.5 -18.5q-52 -32 -113 -55.5t-125 -39.5t-128 -24t-122 -8v54q0 1 19.5 7.5t51.5 15.5l71 20l81 20l78 19q37 9 65 15q1 1 7 1.5t13.5 1t15.5 0.5h13z" />
<glyph unicode="&#xea;" horiz-adv-x="519" d="M314 696q36 0 66.5 -15t52 -40.5t34 -59.5t12.5 -71t-21.5 -65.5t-55.5 -50.5t-75.5 -37.5t-82.5 -26.5t-76 -17.5t-56 -9.5q0 -4 -0.5 -18t-0.5 -19q0 -35 19 -58t50 -37t70.5 -20.5t79.5 -9.5t77 -4.5t64 -4.5q0 -1 0.5 -5.5t0.5 -6.5q0 -13 -12 -22.5t-30 -16.5 t-40.5 -12t-43 -7.5t-37 -3.5t-23.5 -1q-56 -3 -102.5 20.5t-80 65t-53 96.5t-23 113.5t11 116t49 105t90.5 80.5t136 42zM298 622q-41 0 -76 -21t-60.5 -54.5t-40 -74.5t-14.5 -80q23 0 52.5 2.5t60 8.5t60.5 16t53 26t37 38t14 52q0 40 -23 63.5t-63 23.5zM257 960 q2 0 6.5 -0.5t5.5 -1.5l219 -220v-39q-32 0 -64.5 22.5t-63.5 53.5l-60 62q-29 31 -56 48q-4 -2 -13 -11.5t-11 -13.5q-5 -8 -16 -28l-22 -44l-21 -44l-14 -30h-54q0 11 7 34t19 50.5t27.5 56t34 52t38 38.5t38.5 15z" />
<glyph unicode="&#xeb;" horiz-adv-x="519" d="M314 641q36 0 66.5 -15t52 -40.5t34 -59.5t12.5 -71t-21.5 -65.5t-55.5 -50.5t-75.5 -37.5t-82.5 -26.5t-76 -17.5t-56 -9.5q0 -4 -0.5 -18t-0.5 -19q0 -35 19 -58t50 -37t70.5 -20.5t79.5 -9.5t77 -4.5t64 -4.5q0 -1 0.5 -5.5t0.5 -6.5q0 -13 -12 -22.5t-30 -16.5 t-40.5 -12t-43 -7.5t-37 -3.5t-23.5 -1q-56 -3 -102.5 20.5t-80 65t-53 96.5t-23 113.5t11 116t49 105t90.5 80.5t136 42zM298 567q-41 0 -76 -21t-60.5 -54.5t-40 -74.5t-14.5 -80q23 0 52.5 2.5t60 8.5t60.5 16t53 26t37 38t14 52q0 40 -23 63.5t-63 23.5zM-3 768 q-4 25 5.5 47.5t26 39.5t38 27.5t42.5 10.5q23 0 43 -8.5t35 -23.5t23.5 -35t8.5 -43q0 -25 -9.5 -42t-25.5 -27.5t-37 -15.5t-44 -5q-17 0 -34 2.5t-32 10.5t-25.5 22.5t-14.5 39.5zM314 768q0 23 8.5 45.5t23.5 40.5t35 29t43 11t43.5 -11.5t35.5 -29.5t23.5 -40.5 t8.5 -45.5q0 -21 -11 -35t-27.5 -22.5t-36 -12t-36.5 -3.5t-36 3.5t-35.5 12t-27.5 22.5t-11 36z" />
<glyph unicode="&#xec;" horiz-adv-x="244" d="M146 97q-3 51 -12 104l-16 105q-9 53 -15.5 106t-6.5 104v22q0 13 3 23.5t11 17.5t24 7q2 0 6.5 -0.5t5.5 -0.5q3 -15 8 -47l14 -74l14 -86l16 -86l12 -74l9 -47v-13q0 -12 -0.5 -27t-3.5 -28.5t-10.5 -22.5t-20.5 -9q-26 0 -38 26zM-89 807q1 0 21 -6l50 -16l72 -24 l80 -27l78 -27l65 -22q12 -4 26 -10.5t26 -15.5t20 -20.5t8 -26.5h-55q-1 0 -20 7l-49 17l-67 23l-75 27l-72 26l-59 22q-20 8 -40 19t-33 30z" />
<glyph unicode="&#xed;" horiz-adv-x="244" d="M146 97q-3 51 -12 104l-16 105q-9 53 -15.5 106t-6.5 104v22q0 13 3 23.5t11 17.5t24 7q2 0 6.5 -0.5t5.5 -0.5q3 -15 8 -47l14 -74l14 -86l16 -86l12 -74l9 -47v-13q0 -12 -0.5 -27t-3.5 -28.5t-10.5 -22.5t-20.5 -9q-26 0 -38 26zM293 771q7 0 18 0.5t22 -1.5 t20.5 -7.5t12.5 -18.5q-52 -32 -113 -55.5t-125 -39.5t-128 -24t-122 -8v54q0 1 19.5 7.5t50.5 15.5l72 20l80 20l78 19q38 9 66 15q1 1 7 1.5t13.5 1t15.5 0.5h13z" />
<glyph unicode="&#xee;" horiz-adv-x="244" d="M146 97q-3 51 -12 104l-16 105q-9 53 -15.5 106t-6.5 104v22q0 13 3 23.5t11 17.5t24 7q2 0 6.5 -0.5t5.5 -0.5q3 -15 8 -47l14 -74l14 -86l16 -86l12 -74l9 -47v-13q0 -12 -0.5 -27t-3.5 -28.5t-10.5 -22.5t-20.5 -9q-26 0 -38 26zM94 827q2 0 6.5 -0.5t5.5 -1.5 l219 -220v-39q-32 0 -64.5 22.5t-63.5 53.5l-60 62q-29 31 -56 48q-4 -2 -13 -11.5t-11 -13.5q-5 -8 -15 -28l-22 -44l-22 -44l-14 -30h-54q0 11 7 34t19 50.5t27.5 56t34 52t38 38.5t38.5 15z" />
<glyph unicode="&#xef;" horiz-adv-x="244" d="M146 97q-3 51 -12 104l-16 105q-9 53 -15.5 106t-6.5 104v22q0 13 3 23.5t11 17.5t24 7q2 0 6.5 -0.5t5.5 -0.5q3 -15 8 -47l14 -74l14 -86l16 -86l12 -74l9 -47v-13q0 -12 -0.5 -27t-3.5 -28.5t-10.5 -22.5t-20.5 -9q-26 0 -38 26zM-30 726q-2 20 3 38t15 32t22.5 22 t24.5 8q27 0 45.5 -25.5t18.5 -62.5q0 -39 -20.5 -55t-46.5 -16q-20 0 -38.5 10t-23.5 49zM155 726q0 18 5 36.5t13.5 32.5t20 23t25.5 9q13 0 25 -9t20.5 -23.5t13.5 -32.5t5 -36q0 -17 -6.5 -28t-16 -18t-20.5 -10t-21 -3t-21 2.5t-20.5 9.5t-16 18.5t-6.5 28.5z" />
<glyph unicode="&#xf1;" horiz-adv-x="622" d="M42 410q0 10 1 21t5 20t12 14.5t22 5.5q2 0 6 -0.5t4 -1.5l49 -171l28 84q15 44 37.5 80.5t55.5 60t82 23.5q55 0 94 -14.5t65 -40t42 -60t24 -74.5t10.5 -83t2.5 -86v-32v-48q-1 -25 -2 -47v-31q1 -34 -13 -42.5t-34 -8.5q-17 0 -30.5 3.5t-20.5 23.5q9 36 14 64t8 54.5 t3.5 54t0.5 61.5q0 38 -3.5 75.5t-17.5 67t-41 47.5t-74 18q-20 0 -43.5 -6t-43.5 -18.5t-33.5 -31.5t-13.5 -45v-415q0 -14 -13 -19.5t-23 -5.5q-2 0 -6.5 0.5t-6.5 0.5q-34 51 -61 113t-46 128t-29.5 132.5t-10.5 128.5zM234 849q-38 0 -61 -14t-36 -40t-17.5 -61 t-4.5 -77q-14 0 -21.5 5.5t-11.5 14.5t-5 21.5t-1 25.5q0 39 9.5 74t27.5 61t45 41t62 15q3 0 12 -1l18 -2l17.5 -2t11.5 -2q20 -19 36.5 -44.5t31.5 -53.5l29 -54q15 -27 33 -48t40.5 -34t52.5 -13q26 0 42.5 15.5t28 38.5t19.5 50.5t18 50.5t23 38.5t34 15.5q2 0 8.5 -1.5 t8.5 -1.5q-4 -47 -18.5 -97.5t-39 -92.5t-59 -69t-78.5 -27q-35 0 -62 20t-49 49.5t-40 64.5l-35 65q-17 29 -34 49t-35 20z" />
<glyph unicode="&#xf2;" d="M21 120q0 60 12.5 120t42 108t76.5 78t116 30q50 0 87 -19.5t61 -52t36 -74t12 -86.5q0 -54 -12.5 -112.5t-40 -108t-71.5 -81.5t-108 -32q-56 0 -95.5 16.5t-65.5 46.5t-38 72.5t-12 94.5zM95 149q0 -24 7 -55.5t22 -59.5t38.5 -47.5t55.5 -19.5q48 0 81 26.5t53.5 65.5 t29.5 84t9 81q0 30 -6 58.5t-20 51t-37 36.5t-57 14q-50 0 -83.5 -20t-54 -53t-29.5 -75.5t-9 -86.5zM45 655l20 -6q20 -6 51 -17l72 -24l80 -26l78 -27l65 -22q12 -4 26 -10.5t26 -15.5t20 -20.5t8 -26.5h-55q-1 0 -20 6l-49 18l-67 23l-74 27l-73 26l-59 22q-20 8 -40 19 t-33 30z" />
<glyph unicode="&#xf3;" d="M21 120q0 60 12.5 120t42 108t76.5 78t116 30q50 0 87 -19.5t61 -52t36 -74t12 -86.5q0 -54 -12.5 -112.5t-40 -108t-71.5 -81.5t-108 -32q-56 0 -95.5 16.5t-65.5 46.5t-38 72.5t-12 94.5zM95 149q0 -24 7 -55.5t22 -59.5t38.5 -47.5t55.5 -19.5q48 0 81 26.5t53.5 65.5 t29.5 84t9 81q0 30 -6 58.5t-20 51t-37 36.5t-57 14q-50 0 -83.5 -20t-54 -53t-29.5 -75.5t-9 -86.5zM428 660q7 0 18 0.5t22 -1.5t20.5 -7.5t12.5 -18.5q-52 -32 -113 -55.5t-125 -39.5t-128 -24t-122 -8v54q0 1 19.5 7.5t51.5 15.5l71 19l81 21l78 19q37 9 65 15 q1 1 7 1.5t13.5 1t15.5 0.5h13z" />
<glyph unicode="&#xf4;" d="M21 120q0 60 12.5 120t42 108t76.5 78t116 30q50 0 87 -19.5t61 -52t36 -74t12 -86.5q0 -54 -12.5 -112.5t-40 -108t-71.5 -81.5t-108 -32q-56 0 -95.5 16.5t-65.5 46.5t-38 72.5t-12 94.5zM95 149q0 -24 7 -55.5t22 -59.5t38.5 -47.5t55.5 -19.5q48 0 81 26.5t53.5 65.5 t29.5 84t9 81q0 30 -6 58.5t-20 51t-37 36.5t-57 14q-50 0 -83.5 -20t-54 -53t-29.5 -75.5t-9 -86.5zM212 777q2 0 6.5 -0.5t5.5 -1.5l219 -220v-39q-32 0 -64.5 22.5t-63.5 53.5l-60 62q-29 31 -56 48q-4 -2 -13 -11.5t-11 -13.5q-5 -8 -15 -29l-22 -43l-22 -44l-14 -30 h-54q0 11 7 34t19 50.5t27.5 56t34 52t38 38.5t38.5 15z" />
<glyph unicode="&#xf5;" d="M21 120q0 60 12.5 120t42 108t76.5 78t116 30q50 0 87 -19.5t61 -52t36 -74t12 -86.5q0 -54 -12.5 -112.5t-40 -108t-71.5 -81.5t-108 -32q-56 0 -95.5 16.5t-65.5 46.5t-38 72.5t-12 94.5zM95 149q0 -24 7 -55.5t22 -59.5t38.5 -47.5t55.5 -19.5q48 0 81 26.5t53.5 65.5 t29.5 84t9 81q0 30 -6 58.5t-20 51t-37 36.5t-57 14q-50 0 -83.5 -20t-54 -53t-29.5 -75.5t-9 -86.5zM152 720q-37 0 -60 -11.5t-35.5 -32t-17.5 -49t-5 -61.5q-13 0 -20.5 4.5t-11.5 11.5t-5 17t-1 20q0 32 9 59.5t27.5 48.5t45 33t61.5 12q3 0 12 -1l18 -1q9 -1 17 -2 t12 -1q20 -16 36 -36.5t31 -42.5l29 -43q15 -22 33 -38.5t40 -27t52 -10.5q26 0 42.5 12.5t28 31t19.5 40t17.5 40t22.5 31t34 12.5q2 0 8.5 -1t8.5 -1q-4 -38 -18.5 -78.5t-38.5 -74t-58.5 -55t-78.5 -21.5q-34 0 -61 16t-49 40t-40 51l-35 52q-16 24 -33 40t-36 16z" />
<glyph unicode="&#xf6;" d="M21 120q0 60 12.5 120t42 108t76.5 78t116 30q50 0 87 -19.5t61 -52t36 -74t12 -86.5q0 -54 -12.5 -112.5t-40 -108t-71.5 -81.5t-108 -32q-56 0 -95.5 16.5t-65.5 46.5t-38 72.5t-12 94.5zM95 149q0 -24 7 -55.5t22 -59.5t38.5 -47.5t55.5 -19.5q48 0 81 26.5t53.5 65.5 t29.5 84t9 81q0 30 -6 58.5t-20 51t-37 36.5t-57 14q-50 0 -83.5 -20t-54 -53t-29.5 -75.5t-9 -86.5zM64 535.5q-3 18.5 4 35t19 29t27.5 20.5t31.5 8q17 0 31.5 -6.5t25.5 -17.5t17 -26t6 -32q0 -18 -6.5 -30.5t-18.5 -20.5t-27.5 -11.5t-32.5 -3.5q-12 0 -24.5 1.5 t-23.5 7.5t-18.5 17t-10.5 29.5zM296 535q0 17 6.5 34t17.5 30t25.5 21.5t31.5 8.5t32 -8.5t26 -22t17 -30t6 -33.5q0 -16 -8 -26.5t-20 -16.5t-26.5 -9t-27 -3t-26.5 3t-26 9t-20 16.5t-8 26.5z" />
<glyph unicode="&#xf8;" d="M21 120q0 60 12.5 120t42 108t76.5 78t116 30q50 0 87 -19.5t61 -52t36 -74t12 -86.5q0 -54 -12.5 -112.5t-40 -108t-71.5 -81.5t-108 -32q-56 0 -95.5 16.5t-65.5 46.5t-38 72.5t-12 94.5zM95 149q0 -24 7 -55.5t22 -59.5t38.5 -47.5t55.5 -19.5q48 0 81 26.5t53.5 65.5 t29.5 84t9 81q0 30 -6 58.5t-20 51t-37 36.5t-57 14q-50 0 -83.5 -20t-54 -53t-29.5 -75.5t-9 -86.5zM363 546l17 32q8 17 19 29.5t26 20.5t36 8v-65l-390 -805h-72z" />
<glyph unicode="&#xf9;" horiz-adv-x="695" d="M31 205v62q0 37 3.5 77t12 80t25.5 72t44 51.5t68 19.5q0 -42 -9 -80.5t-19.5 -77t-19.5 -79t-9 -86.5v-29q0 -21 1 -45v-44q1 -21 2 -29q5 -32 29 -53t56 -21q66 0 112.5 36.5t79 91t53.5 118t36.5 118t28.5 91t30 36.5q14 0 22 -6t16 -20q-4 -59 -1.5 -105.5t9 -86 t14.5 -74.5l15 -70q8 -36 13.5 -74.5t5.5 -85.5q-26 0 -46.5 17.5t-37 42t-28 51t-17.5 43.5h-25q-29 -57 -57 -95t-63.5 -60.5t-80.5 -31.5t-108 -9q-42 0 -71 27.5t-48 67.5t-27.5 83.5t-8.5 76.5zM136 807l20 -6q20 -6 52 -17l71 -24l81 -26l78 -27l64 -22 q12 -4 26 -10.5t26 -15.5t20 -20.5t8 -26.5h-55q-1 0 -20 6l-49 18l-67 23l-75 27l-72 26l-59 22q-20 8 -40 19t-33 30z" />
<glyph unicode="&#xfa;" horiz-adv-x="695" d="M31 205v62q0 37 3.5 77t12 80t25.5 72t44 51.5t68 19.5q0 -42 -9 -80.5t-19.5 -77t-19.5 -79t-9 -86.5v-29q0 -21 1 -45v-44q1 -21 2 -29q5 -32 29 -53t56 -21q66 0 112.5 36.5t79 91t53.5 118t36.5 118t28.5 91t30 36.5q14 0 22 -6t16 -20q-4 -59 -1.5 -105.5t9 -86 t14.5 -74.5l15 -70q8 -36 13.5 -74.5t5.5 -85.5q-26 0 -46.5 17.5t-37 42t-28 51t-17.5 43.5h-25q-29 -57 -57 -95t-63.5 -60.5t-80.5 -31.5t-108 -9q-42 0 -71 27.5t-48 67.5t-27.5 83.5t-8.5 76.5zM518 771q7 0 18 0.5t22 -1.5t20.5 -7.5t12.5 -18.5q-52 -32 -113 -55.5 t-125 -39.5t-128 -24t-122 -8v54q0 1 19.5 7.5t51.5 15.5l71 20l81 20l78 19q37 9 65 15q1 1 7 1.5t13.5 1t15.5 0.5h13z" />
<glyph unicode="&#xfb;" horiz-adv-x="695" d="M31 205v62q0 37 3.5 77t12 80t25.5 72t44 51.5t68 19.5q0 -42 -9 -80.5t-19.5 -77t-19.5 -79t-9 -86.5v-29q0 -21 1 -45v-44q1 -21 2 -29q5 -32 29 -53t56 -21q66 0 112.5 36.5t79 91t53.5 118t36.5 118t28.5 91t30 36.5q14 0 22 -6t16 -20q-4 -59 -1.5 -105.5t9 -86 t14.5 -74.5l15 -70q8 -36 13.5 -74.5t5.5 -85.5q-26 0 -46.5 17.5t-37 42t-28 51t-17.5 43.5h-25q-29 -57 -57 -95t-63.5 -60.5t-80.5 -31.5t-108 -9q-42 0 -71 27.5t-48 67.5t-27.5 83.5t-8.5 76.5zM319 869q2 0 6.5 -0.5t5.5 -1.5l219 -220v-39q-32 0 -64.5 22.5 t-63.5 53.5l-60 62q-29 31 -56 48q-4 -2 -13 -11.5t-11 -13.5q-5 -8 -16 -29l-22 -43l-21 -44l-14 -30h-54q0 11 7 34t19 50.5t27.5 56t34 52t38 38.5t38.5 15z" />
<glyph unicode="&#xfc;" horiz-adv-x="695" d="M31 205v62q0 37 3.5 77t12 80t25.5 72t44 51.5t68 19.5q0 -42 -9 -80.5t-19.5 -77t-19.5 -79t-9 -86.5v-29q0 -21 1 -45v-44q1 -21 2 -29q5 -32 29 -53t56 -21q66 0 112.5 36.5t79 91t53.5 118t36.5 118t28.5 91t30 36.5q14 0 22 -6t16 -20q-4 -59 -1.5 -105.5t9 -86 t14.5 -74.5l15 -70q8 -36 13.5 -74.5t5.5 -85.5q-26 0 -46.5 17.5t-37 42t-28 51t-17.5 43.5h-25q-29 -57 -57 -95t-63.5 -60.5t-80.5 -31.5t-108 -9q-42 0 -71 27.5t-48 67.5t-27.5 83.5t-8.5 76.5zM202 684.5q-3 22.5 4 42.5t19.5 35.5t28.5 25t31 9.5q17 0 32 -8t26 -21 t17.5 -31t6.5 -39q0 -22 -7 -37.5t-19 -24.5t-27.5 -13.5t-32.5 -4.5q-13 0 -25.5 2t-24 9t-19 20t-10.5 35.5zM438 685q0 20 6.5 40.5t17.5 36.5t26 26t32 10t32 -10.5t26.5 -26.5t17.5 -36.5t6 -40.5q0 -19 -8 -31.5t-20.5 -20t-27 -11t-27 -3.5t-26.5 3.5t-26.5 11 t-20.5 20t-8 32.5z" />
<glyph unicode="&#xfd;" horiz-adv-x="451" d="M21 -119q5 17 26.5 11t51.5 -20l64 -32q34 -18 65.5 -24t56.5 5t35 53v293q-45 -50 -86 -58t-76.5 14.5t-63.5 67.5t-46.5 100.5t-26.5 114.5t-3 109t24.5 83.5t55.5 38.5q0 -12 0.5 -50t3.5 -88t10 -105t20.5 -100t34 -73t51.5 -24q37 -1 56.5 25.5t27 68.5t7.5 93.5 t-1 99.5t1 86.5t14 55.5q6 0 15 1.5t17 2.5t15.5 -1.5t10.5 -9.5q11 -53 14.5 -127.5t3 -153t-2.5 -153.5t-2 -128v-37q0 -26 -0.5 -55t-0.5 -55v-36q-8 -31 -19.5 -55t-30 -40.5t-45.5 -25t-66 -8.5q-6 0 -25.5 5.5t-44.5 15t-52.5 22t-48.5 28t-33 32t-7 33.5zM408 827 q7 0 18 0.5t22 -1.5t20.5 -7.5t12.5 -18.5q-52 -32 -113 -55.5t-125 -39.5t-128 -24t-122 -8v54q0 1 19.5 7.5t51.5 15.5l71 20l81 20l78 19q37 9 65 15q1 1 7 1.5t13.5 1t15.5 0.5h13z" />
<glyph unicode="&#xff;" horiz-adv-x="451" d="M21 -119q5 17 26.5 11t51.5 -20l64 -32q34 -18 65.5 -24t56.5 5t35 53v293q-45 -50 -86 -58t-76.5 14.5t-63.5 67.5t-46.5 100.5t-26.5 114.5t-3 109t24.5 83.5t55.5 38.5q0 -12 0.5 -50t3.5 -88t10 -105t20.5 -100t34 -73t51.5 -24q37 -1 56.5 25.5t27 68.5t7.5 93.5 t-1 99.5t1 86.5t14 55.5q6 0 15 1.5t17 2.5t15.5 -1.5t10.5 -9.5q11 -53 14.5 -127.5t3 -153t-2.5 -153.5t-2 -128v-37q0 -26 -0.5 -55t-0.5 -55v-36q-8 -31 -19.5 -55t-30 -40.5t-45.5 -25t-66 -8.5q-6 0 -25.5 5.5t-44.5 15t-52.5 22t-48.5 28t-33 32t-7 33.5zM45.5 738.5 q-2.5 15.5 4 29.5t18 24.5t26.5 17t29 6.5q16 0 30 -5.5t24.5 -14.5t16.5 -21.5t6 -26.5q0 -15 -7 -25.5t-18 -17t-25.5 -9.5t-30.5 -3q-12 0 -23.5 1.5t-22 6t-18 13.5t-10 24.5zM265 739q0 14 6 28t16.5 25t24.5 18t30 7t30 -7.5t24.5 -18.5t16.5 -25t6 -28 q0 -13 -8 -21.5t-19 -14t-24.5 -7.5t-25.5 -2t-25 2t-24.5 7.5t-19.5 14t-8 22.5z" />
<glyph unicode="&#x152;" horiz-adv-x="1476" d="M33 389q0 66 13 137.5t38.5 139.5t64 129t89 107t113 73t137.5 27q30 0 58 -8t55 -18t53.5 -18t53.5 -8q81 0 163 24t164 53t163.5 53t161.5 24q0 -17 -7 -29.5t-18.5 -22t-25.5 -16.5t-28 -12l-48 -14l-73 -22l-86 -25l-87 -26l-73 -21q-33 -10 -48 -14v-292q0 -2 14 -6 t33.5 -8t40 -7t34.5 -4q16 0 48 -1t73 -2t86.5 -2t86.5 -2t73 -1.5t48 -0.5v-39q0 -2 -14 -5.5t-33.5 -7.5t-40.5 -7.5t-34 -4.5q-32 -2 -81.5 1t-104.5 4t-109 -4.5t-95 -24.5v-12q0 -16 3.5 -42.5t8.5 -57t11 -62.5l11 -62q6 -28 9.5 -50t4.5 -31q6 -12 18.5 -20.5t27 -14 t28.5 -9t24 -5.5l48 -10q35 -8 74 -16l73 -14q35 -7 49 -9q15 4 29.5 16.5t28 26t26.5 23.5t26 10t20.5 -9t11.5 -21.5t5.5 -26t1.5 -22.5q0 -23 -20.5 -33.5t-48 -13.5t-54.5 -2t-40 1h-103q-54 0 -108 6t-103 22t-87 48q0 11 -3 38.5t-7 58.5t-8 59t-6 39q0 3 -3 10t-7 15 l-8 14q-4 7 -7 9q-30 -71 -72.5 -133.5t-97 -109t-122 -73.5t-148.5 -27q-74 0 -136.5 35t-109 91.5t-72.5 126t-26 138.5zM108 385q0 -53 19.5 -108.5t55 -101.5t83.5 -75t105 -29q28 0 69.5 4.5t82.5 15.5t75.5 30.5t48.5 49.5l146 317q2 4 0.5 34.5t-5.5 69.5t-9 78 t-10 62q-9 42 -36 81t-64.5 70t-81.5 49.5t-87 18.5q-31 0 -54 -9t-41.5 -23t-33.5 -31.5t-31.5 -33.5t-36.5 -29.5t-46 -19.5l-59 -104q-27 -50 -47 -99.5t-31.5 -102.5t-11.5 -114zM744 939q-5 0 -7 -4t-2 -8.5t2 -8t7 -3.5t7.5 3.5t2.5 8t-2.5 8.5t-7.5 4z" />
<glyph unicode="&#x153;" horiz-adv-x="963" d="M35 226q0 60 12.5 120t42 108t76.5 78t116 30q31 0 56 -8t48 -21.5t44 -31.5l46 -38q31 19 48 43t29 49l23 49q12 24 32 42.5t53 30t87 11.5q38 0 69.5 -13.5t53.5 -37t34 -56t12 -69.5q0 -54 -27.5 -87t-68 -54t-88.5 -32l-89 -21q-40 -9 -67.5 -20t-27.5 -30 q0 -52 28.5 -83t69.5 -48.5t87.5 -25.5t82.5 -13q0 -2 1 -6.5t1 -6.5q0 -17 -9 -25.5t-22.5 -11.5t-28 -2.5t-24.5 0.5q-41 0 -84.5 9.5t-81 30t-63 53.5t-30.5 81q-18 -42 -37.5 -82.5t-45 -72t-61 -50.5t-86.5 -19q-56 0 -95.5 16.5t-65.5 46.5t-38 72.5t-12 94.5z M109 255q0 -24 7 -55.5t22 -59.5t38.5 -47.5t55.5 -19.5q48 0 81 26.5t53.5 65.5t29.5 84t9 81q0 30 -6 58.5t-20 51t-37 36.5t-57 14q-50 0 -83.5 -20t-54 -53t-29.5 -75.5t-9 -86.5zM759 612q-41 0 -76.5 -20.5t-61.5 -53t-40.5 -72.5t-14.5 -79q21 0 50 2.5t60 9t61 16.5 t54 25.5t38.5 37t14.5 49.5q0 39 -23 62t-62 23z" />
<glyph unicode="&#x178;" horiz-adv-x="1000" d="M365 -157q0 1 -0.5 5.5t-0.5 6.5q0 16 10.5 27t26.5 11q15 0 28.5 -4t27 -9.5t27 -9.5t28.5 -4q73 0 128.5 26t96.5 70.5t69 102t44.5 121t23.5 128.5t7 123q0 15 -1 41v52q-1 25 -2 46v23q-3 33 -10 83t-15 96.5t-14.5 80t-9.5 33.5h-25q-13 -78 -46 -149t-85 -125 t-122.5 -86t-159.5 -32q-71 0 -126 22t-96 60t-69 89t-45.5 108.5t-25 119t-7.5 121.5q0 16 2 45t6.5 64t12.5 71t20.5 65.5t29.5 48t41 18.5q13 0 21 -5.5t15 -20.5q-22 -45 -33 -85.5t-15 -81.5t-4 -83v-91v-34q1 -24 1.5 -51.5t0.5 -51.5q1 -24 2 -34q9 -33 27 -64 t41.5 -59t49.5 -52.5t52 -44.5q4 0 18 -0.5t19 -0.5q127 0 213 50.5t136.5 133t68.5 188t9 215.5l24 24q4 -2 13 -11t11 -13q45 -91 74 -175.5t45.5 -170t23 -175.5t6.5 -190q0 -75 -8 -153t-28 -151t-53.5 -137.5t-84 -112t-120 -75.5t-161.5 -28q-20 0 -35.5 2t-30.5 7.5 t-30.5 15.5t-36.5 26zM223 1315q-4 25 5.5 47.5t26 39.5t38 27.5t42.5 10.5q23 0 43 -8.5t35 -23.5t23.5 -35t8.5 -43q0 -25 -9.5 -42t-25.5 -27.5t-37 -15.5t-44 -5q-17 0 -34 2.5t-32 10.5t-25.5 22.5t-14.5 39.5zM540 1315q0 23 8.5 45.5t23.5 40.5t35 29t43 11 t43.5 -11.5t35.5 -29.5t23.5 -40.5t8.5 -45.5q0 -21 -11 -35t-27.5 -22.5t-36 -12t-36.5 -3.5t-36 3.5t-35.5 12t-27.5 22.5t-11 36z" />
<glyph unicode="&#x2c6;" horiz-adv-x="463" d="M196 1087q2 0 6.5 -0.5t5.5 -1.5l219 -220v-39q-32 0 -64.5 22.5t-63.5 53.5l-60 62q-29 31 -56 48q-4 -2 -13 -11.5t-11 -13.5q-5 -8 -15 -28l-22 -44l-22 -44l-14 -30h-54q0 11 7 34t19 50.5t27.5 56t34 52t38 38.5t38.5 15z" />
<glyph unicode="&#x2dc;" horiz-adv-x="939" d="M264 832q-54 0 -87.5 -17t-52 -48t-25.5 -73t-7 -92q-19 0 -30 6.5t-17 17.5t-7.5 25.5t-1.5 30.5q0 47 13.5 88.5t40 72.5t65.5 49t89 18q5 0 17 -1l26 -2q14 -1 26 -2.5t17 -2.5q29 -23 52.5 -53.5t44.5 -63.5l43 -65q22 -32 48 -57t58.5 -40.5t75.5 -15.5 q38 0 62 18.5t40.5 46t28 60t25.5 60t33 46t50 18.5q2 0 11.5 -1.5t12.5 -1.5q-6 -56 -27 -116.5t-56 -110.5t-85 -82.5t-114 -32.5q-50 0 -89 24t-71 59.5t-59 77.5l-50 76q-24 36 -48.5 60t-51.5 24z" />
<glyph unicode="&#x2013;" horiz-adv-x="500" d="M37 402v73h410v-73h-410z" />
<glyph unicode="&#x2014;" horiz-adv-x="1000" d="M37 402v73h910v-73h-910z" />
<glyph unicode="&#x2018;" horiz-adv-x="256" d="M24 854q0 23 8 49.5t23 48.5t35.5 36.5t45.5 14.5q33 0 59.5 -18t26.5 -55q0 -45 -25.5 -72.5t-74.5 -27.5v-177q-29 0 -48 26t-30 60t-15.5 67.5t-4.5 47.5z" />
<glyph unicode="&#x2019;" horiz-adv-x="305" d="M126 762q-20 0 -41.5 -3.5t-40 -1.5t-30.5 15.5t-12 47.5q0 22 9.5 40.5t24.5 31.5t34.5 20.5t40.5 7.5q33 0 55 -17.5t35.5 -44.5t19 -59t5.5 -60q0 -24 -3 -58.5t-13.5 -66.5t-30.5 -54.5t-53 -22.5v225z" />
<glyph unicode="&#x201c;" horiz-adv-x="476" d="M36 768q0 60 22 92.5t80 32.5q42 0 56.5 -17.5t14.5 -59.5q0 -16 -6.5 -27.5t-17 -19.5t-24 -14t-26.5 -11v-137q-27 0 -46 17t-30.5 42t-17 53t-5.5 49zM332 893q15 0 31.5 -2t31 -8.5t24 -19t9.5 -32.5q0 -26 -8 -41t-19.5 -24.5t-24.5 -16.5t-24 -19t-17.5 -31.5 t-4.5 -52.5q-3 0 -12.5 -0.5t-12.5 -0.5q-5 0 -13.5 0.5t-16 2.5t-13 7.5t-5.5 15.5v195q0 13 10.5 18.5t24 7.5t25.5 1.5t15 -0.5z" />
<glyph unicode="&#x201d;" horiz-adv-x="451" d="M254 1032q0 21 1.5 36.5t8 25t19 14t34.5 4.5q26 0 43 -10.5t26.5 -28t13.5 -39.5t4 -45q0 -16 -1.5 -41t-7.5 -49t-18.5 -41.5t-34.5 -17.5q-24 0 -31.5 16.5t-7.5 37.5t2.5 41t-0.5 28q-1 2 -8 5l-16 7l-16 7q-7 3 -8 5q-1 1 -1.5 6.5t-1 12.5t-0.5 14v12zM35 1037 q0 22 9 36.5t23 23.5t32.5 12.5t36.5 3.5q28 0 43 -8.5t22 -23.5t8 -35.5t1 -44.5q0 -14 0.5 -37.5t-3 -46t-14 -38.5t-32.5 -16q-29 0 -37 9t-8.5 23.5t1.5 32.5t-7 35q-8 16 -21 21t-25 9t-20.5 12.5t-8.5 31.5z" />
<glyph unicode="&#x2022;" horiz-adv-x="293" d="M36 84q0 24 7.5 49t21.5 45t35 32.5t47 12.5q24 0 44.5 -11.5t35.5 -29.5t23.5 -41t8.5 -45q0 -15 -10 -31.5t-25 -31t-32.5 -24t-32.5 -9.5q-13 0 -34 6.5t-40.5 18t-34 27t-14.5 32.5z" />
<glyph unicode="&#x2026;" horiz-adv-x="756" d="M36 61q0 17 11.5 27t28.5 15t37 6t37.5 0.5t29.5 -1.5t14 -1q0 -19 -5 -38.5t-15.5 -35t-26.5 -25.5t-37 -10q-13 0 -26 4.5t-23.5 12.5t-17.5 20t-7 26zM460 98q0 -18 -9.5 -36t-24.5 -32.5t-34 -23t-37 -8.5q-21 0 -33 8.5t-17.5 22.5t-6.5 32t-1 37h163zM548 61 q0 25 24 35.5t53 12.5t54 0t28 -2q0 -19 -5 -38.5t-15.5 -35t-26.5 -25.5t-38 -10q-13 0 -26 4.5t-23.5 12.5t-17.5 20t-7 26z" />
<glyph unicode="&#x2039;" horiz-adv-x="646" d="M36 341q-10 15 -17.5 30t-7.5 33v6q0 2 1 5l488 487h68l-458 -512q19 -17 62 -44l98 -58l112 -66q59 -36 107 -69.5t79 -63.5t31 -52q0 -11 -6 -24t-20 -13q-2 0 -8 3t-14 6.5t-15.5 7.5t-11.5 7l-56 36l-86 56l-102 66l-101 66l-87 56z" />
<glyph unicode="&#x203a;" horiz-adv-x="659" d="M512 463v25q-15 11 -46 36l-70 56l-80 66l-81 66l-69 56l-44 37q-6 5 -20 19l-30 28l-30 30q-13 14 -18 20q8 15 16 20.5t21 5.5q2 0 6.5 -0.5t5.5 -0.5l57 -42l86 -64l102 -76l101 -76l86 -65l56 -43q5 -4 15 -15l23 -22l22 -22q10 -10 13 -14q1 -1 1.5 -5.5t0.5 -6.5 t-0.5 -6.5t-1.5 -6.5q-6 -7 -24 -25l-36 -36l-38 -37l-24 -24l-71 -61l-87 -73l-92 -75l-81 -66l-59 -48q-24 -18 -25 -18h-49v49z" />
<glyph unicode="&#x20ac;" horiz-adv-x="963" d="M73 366h122v122q-8 0 -29 3t-44.5 7t-44.5 8t-29 6q-5 1 -14 10.5t-10 14.5q1 5 10 14t14 10q6 1 31.5 4t54.5 6t54 7t31 7q46 29 72.5 66t48 75t45 74.5t62 65t100 46t159.5 17.5q40 0 80 -13t72 -37.5t51.5 -61.5t19.5 -85q0 -26 -12.5 -38.5t-32 -17t-42 -4t-41.5 0.5 q0 14 4.5 26t10 23t10 22t4.5 24q0 24 -15 48.5t-35 37.5q-6 0 -19.5 0.5t-29 1t-29.5 1t-19 0.5q-59 0 -119 -18.5t-108 -53.5t-78.5 -85.5t-30.5 -114.5h165l24 -24q-10 -28 -31.5 -38.5t-49 -12t-57 1t-54 0t-40 -14t-15.5 -41.5q0 -37 20.5 -57t50.5 -29t64.5 -10 t62.5 -1v-54h-164q-3 -13 -5 -24q-2 -10 -2.5 -20t1.5 -17q10 -48 41.5 -81t73 -53.5t88.5 -30t88 -9.5q40 0 77 9t73.5 20t73.5 20t76 9q0 -29 -14.5 -49.5t-38.5 -35t-54 -23.5t-61 -14t-59.5 -6.5t-49.5 -1.5q-103 0 -165.5 22.5t-101.5 56.5t-64 73t-52.5 73t-67 56.5 t-107.5 22.5v64z" />
<glyph unicode="&#x2122;" horiz-adv-x="841" d="M683 622q-29 -32 -56.5 -54t-65.5 -22q-39 0 -66 22t-56 54q-20 -52 -26 -109t-6 -111h-42v348q30 0 54.5 -13t47 -28t45.5 -28t50 -13q24 0 42 12.5t35 27t35.5 27t44.5 12.5q5 0 19 -1t18 -2q8 -45 13.5 -83.5t8.5 -75t4 -74t1 -80.5q0 -8 -1 -21l-1 -25 q0 -12 -0.5 -21.5t-0.5 -10.5l-41 -41zM158 670q-2 0 -21 1.5t-42 7t-44 15t-27 25.5l49 49h258q0 -26 -13.5 -38t-30 -19.5t-30 -15.5t-13.5 -25v-243q0 -16 -13 -21t-24 -5q-2 0 -6.5 0.5t-5.5 0.5l-11 5l-12 8t-10 7.5t-4 4.5v243z" />
<glyph unicode="&#xe000;" horiz-adv-x="745" d="M0 745h745v-745h-745v745z" />
<glyph unicode="&#xfb01;" horiz-adv-x="866" d="M756 24q-3 51 -12 104l-16 105q-9 53 -15.5 106t-6.5 104v23q0 12 3 22.5t11 17.5t24 7q2 0 6 -0.5t6 -0.5q3 -16 8 -48l14 -73l14 -86l16 -86l12 -73q6 -33 9 -48v-13q0 -12 -0.5 -27t-3.5 -28.5t-10.5 -22.5t-20.5 -9q-26 0 -38 26zM317 415h-35q-23 0 -51 1.5 t-58.5 5.5t-59 11.5t-52.5 21t-37 33.5l24 24h220v415q0 44 22.5 84.5t58 71t78 48.5t82.5 18q29 0 67 -15t72.5 -39t58.5 -55t24 -64q0 -6 -5.5 -14t-13 -16t-16 -13.5t-13.5 -5.5q-23 17 -36 33t-22 30l-17 25q-7 11 -19 19t-31 12.5t-51 4.5q-38 0 -63.5 -10t-44 -28.5 t-32 -46.5t-26.5 -64q0 -8 -1 -29v-44q-1 -23 -1 -44v-29v-38q0 -24 0.5 -47t1 -41t0.5 -20q0 -10 3 -24.5t7 -28t8 -23.5t6 -10h269l24 -36l-24 -37h-195q-9 0 -14.5 -7.5t-8 -17.5t-3 -20t-0.5 -16q0 -46 17 -87.5t38 -82.5t38 -83t17 -88h-60q-2 0 -11 17l-21 40l-24 48 q-11 24 -17 41q-5 12 -16 43l-22 66l-22 67q-10 31 -13 44zM633 695q0 18 9.5 26.5t23 11t28 2t25.5 -0.5q6 0 19 1t27 -0.5t25.5 -7.5t13.5 -20q-22 -44 -46 -60.5t-63 -16.5q-62 0 -62 65z" />
<glyph unicode="&#xfb02;" horiz-adv-x="817" d="M495 1076q-38 0 -63.5 -10t-44 -29t-32 -46.5t-26.5 -63.5q0 -8 -0.5 -29t-1 -44.5t-0.5 -44.5v-29v-37q0 -24 0.5 -47.5t1 -41.5t0.5 -20q0 -9 3 -23.5t7 -28t8 -23.5t6 -10h269l24 -37l-24 -36h-195q-9 0 -14.5 -7.5t-8 -17.5t-3 -20.5t-0.5 -15.5q0 -46 17 -87.5 t38 -82.5t38 -83t17 -89h-60q-2 0 -11 17l-21 40q-12 23 -23.5 48t-17.5 42q-5 12 -16 42l-22 66l-22 66q-10 32 -13 45q-12 0 -35 0.5t-51 1.5t-58.5 5t-59 12t-52.5 21t-37 33l24 25h220v414q0 45 22.5 85t58 70.5t78 48.5t82.5 18q27 0 49.5 -6t43 -16t40.5 -23l41 -30 q6 20 19.5 23t28.5 3q6 0 14 -0.5t16 -3t13.5 -7.5t5.5 -15v-1074q0 -14 -13.5 -19.5t-24.5 -5.5q-17 0 -26 14t-9 36v780q0 48 -14 92.5t-39.5 79t-63 55t-83.5 20.5z" />
<glyph unicode="&#xfb03;" horiz-adv-x="1542" d="M1444 97q-3 51 -12 103l-16 106q-9 53 -15.5 106t-6.5 104v22q0 13 3 23.5t11 17.5t24 7q2 0 6.5 -0.5t5.5 -0.5q3 -15 8 -47l14 -74l14 -86l16 -86l12 -74l9 -47v-13q0 -12 -0.5 -27t-3.5 -28.5t-10.5 -22.5t-20.5 -9q-26 0 -38 26zM1321 768q0 18 9.5 26.5t23 11t28 2 t25.5 -0.5q6 0 19 1t27.5 -0.5t26 -7.5t13.5 -20q-23 -44 -47 -60.5t-63 -16.5q-62 0 -62 65zM697 408q-1 0 -4 4t-7 10l-8 12l-5 11q0 1 -0.5 5.5t-0.5 6.5q0 11 5 24t20 13l113 -6v390q0 48 22 89t57 70.5t78.5 46t86.5 16.5q33 0 71.5 -11.5t71 -33t54.5 -54t22 -74.5 q0 -15 -13 -20.5t-23 -5.5q-23 0 -37 19l-32 44q-18 24 -45 43.5t-74 19.5q-29 0 -56.5 -13t-49.5 -34t-38 -47.5t-22 -54.5q0 -8 -1 -29v-44q-1 -23 -1 -44v-29q0 -17 -2 -52.5t0.5 -73.5t14 -71.5t38.5 -46.5q12 1 44 1h66h66q31 0 43 -1q23 -2 37.5 -9.5t14.5 -26.5 q0 -15 -15.5 -25t-40 -16t-54 -9t-57 -4.5t-49.5 -3t-31 -4.5q0 -2 -0.5 -11.5t-0.5 -12.5q0 -44 16 -83.5t34.5 -77.5t34.5 -76t16 -80q0 -16 -3.5 -29t-23.5 -20q-24 13 -44.5 41t-38.5 64.5t-32.5 78t-25.5 82t-18.5 76t-10.5 60.5zM48 408q-1 0 -4 4t-7 10t-7 12l-6 11 q0 1 -0.5 5.5t-0.5 6.5q0 11 5 24t20 13l113 -6v390q0 48 22 89t57 70.5t78.5 46t86.5 16.5q33 0 71.5 -11.5t71 -33t54.5 -54t22 -74.5q0 -15 -13 -20.5t-23 -5.5q-23 0 -38 19l-32 44q-17 24 -44 43.5t-74 19.5q-29 0 -56.5 -13t-49.5 -34t-38 -47.5t-22 -54.5v-29l-2 -44 v-44v-29q0 -17 -2 -52.5t0.5 -73.5t14 -71.5t38.5 -46.5q12 1 43 1h66h66q32 0 44 -1q23 -2 37.5 -9.5t14.5 -26.5q0 -15 -15.5 -25t-40 -16t-54 -9t-57 -4.5t-49.5 -3t-31 -4.5q0 -2 -0.5 -11.5t-0.5 -12.5q0 -44 16 -83.5t34.5 -77.5t34.5 -76t16 -80q0 -16 -3.5 -29 t-23.5 -20q-24 13 -44.5 41t-38.5 64.5t-32.5 78t-25.5 82t-18.5 76t-10.5 60.5z" />
<glyph unicode="&#xfb04;" horiz-adv-x="1469" d="M1335 1098q4 11 12.5 17t19.5 9t22 4t19 1v-1105l-24 -24l-25 24l-1 26q-1 27 -2.5 72.5t-3 105.5t-3.5 128l-4 140l-4 141q-2 69 -3.5 131t-2.5 110v110v110zM697 408q-1 0 -4 4t-7 10l-8 12l-5 11q0 1 -0.5 5.5t-0.5 6.5q0 11 5 24t20 13l113 -6v390q0 48 22 89 t57 70.5t78.5 46t86.5 16.5q33 0 71.5 -11.5t71 -33t54.5 -54t22 -74.5q0 -15 -13 -20.5t-23 -5.5q-23 0 -37 19l-32 44q-18 24 -45 43.5t-74 19.5q-29 0 -56.5 -13t-49.5 -34t-38 -47.5t-22 -54.5q0 -8 -1 -29v-44q-1 -23 -1 -44v-29q0 -17 -2 -52.5t0.5 -73.5t14 -71.5 t38.5 -46.5q12 1 44 1h66h66q31 0 43 -1q23 -2 37.5 -9.5t14.5 -26.5q0 -15 -15.5 -25t-40 -16t-54 -9t-57 -4.5t-49.5 -3t-31 -4.5q0 -2 -0.5 -11.5t-0.5 -12.5q0 -44 16 -83.5t34.5 -77.5t34.5 -76t16 -80q0 -16 -3.5 -29t-23.5 -20q-24 13 -44.5 41t-38.5 64.5t-32.5 78 t-25.5 82t-18.5 76t-10.5 60.5zM48 408q-1 0 -4 4t-7 10t-7 12l-6 11q0 1 -0.5 5.5t-0.5 6.5q0 11 5 24t20 13l113 -6v390q0 48 22 89t57 70.5t78.5 46t86.5 16.5q33 0 71.5 -11.5t71 -33t54.5 -54t22 -74.5q0 -15 -13 -20.5t-23 -5.5q-23 0 -38 19l-32 44q-17 24 -44 43.5 t-74 19.5q-29 0 -56.5 -13t-49.5 -34t-38 -47.5t-22 -54.5v-29l-2 -44v-44v-29q0 -17 -2 -52.5t0.5 -73.5t14 -71.5t38.5 -46.5q12 1 43 1h66h66q32 0 44 -1q23 -2 37.5 -9.5t14.5 -26.5q0 -15 -15.5 -25t-40 -16t-54 -9t-57 -4.5t-49.5 -3t-31 -4.5q0 -2 -0.5 -11.5 t-0.5 -12.5q0 -44 16 -83.5t34.5 -77.5t34.5 -76t16 -80q0 -16 -3.5 -29t-23.5 -20q-24 13 -44.5 41t-38.5 64.5t-32.5 78t-25.5 82t-18.5 76t-10.5 60.5z" />
</font>
</defs>
</svg>
